<svg width="619" height="410" viewBox="0 0 619 410" xmlns="http://www.w3.org/2000/svg"><title>illustration</title><g transform="translate(1 1)" fill="none" fill-rule="evenodd"><path d="M133.26 249.356v24.18c-7.389 10.605-21.26 3.728-21.26-9.131 0-10.269 15.109-3.982 21.26-15.05zm138.656-149.213c33.052 27.215 30.056 68.588 3.347 89.323-6.347 4.928-12.904 8.588-19.359 11.392a14.04 14.04 0 0 1-4.187-10.006V171.81h-27.735v19.41c0 5.951-3.75 11.256-9.358 13.235l-26.506 9.356a23.85 23.85 0 0 0-14.971 15.877l28.613.03-.034.177h-56.947a11.5 11.5 0 0 0-9.028 4.364 72.926 72.926 0 0 0-.577-6.157c-5.243-39.276 22.869-41.425 42.076-41.425s-.446-38.506 7.968-62.635c8.413-24.13 53.646-51.113 86.698-23.898z" stroke="#212F4C" stroke-width="1.8" fill="#212F4C" stroke-linejoin="round"/><rect stroke="#212F4C" stroke-width="1.8" fill="#7E9ACE" stroke-linecap="round" stroke-linejoin="round" x="27" y="392.742" width="550" height="15" rx="7.5"/><circle fill="#FFF" cx="264.5" cy="150.242" r="8.5"/><path d="M191.335 212.742c13.699 5.667 28.85 8.5 45.455 8.5 16.604 0 34.246-2.833 52.923-8.5l9.418 3.955 6.597 6.013 3.272 7.032H173l1.64-3.993 2.932-4.985 5.268-4.582 5.026-2.443 3.469-.997zM309 369.026h21.43l5.73-2.284 3.087 7.706 5.753 6.13-9.343 4.353-6.235 6.811h-1.228l-11.648-11.07zM156.443 391.742l11.493-11.025L177 368.742l-32.825.049-5.175 6.397 5.175 2.077 6.06 2.116 4.314 4.843zM196 368.742h21l-2 17.804-19 .196zM287 368.742h-30l1.84 18H287z" fill="#EFABFF"/><path d="M144.14 368.592l-5.14 6.36m17.324 17.352l14.718-15.786a37.835 37.835 0 0 0 5.698-7.973m19.844.067v17.934m0 5.758h90.221m-.065-5.758l-.169-17.953m22.973-.192a37.838 37.838 0 0 0 10.317 14.925l10.157 8.978M345 379.45a37.837 37.837 0 0 1-8.731-13.181M309.338 229.68a23.827 23.827 0 0 0-15.533-15.42l-32.238-10.134a14.014 14.014 0 0 1-9.812-13.369v-19.016h-27.73v19.382c0 5.943-3.749 11.24-9.355 13.216l-26.5 9.343a23.827 23.827 0 0 0-14.97 15.853" stroke="#212F4C" stroke-width="1.8" stroke-linecap="round" stroke-linejoin="round"/><circle fill="#FFF" cx="211.5" cy="150.242" r="8.5"/><rect stroke="#212F4C" stroke-width="1.8" fill="#FFF" stroke-linecap="round" stroke-linejoin="round" x="213" y="111.742" width="50" height="70" rx="25"/><path d="M217.559 368.742h-73.317c-6.209 0-11.242-5.029-11.242-11.232V240.974c0-6.203 5.033-11.232 11.242-11.232h185.516c6.209 0 11.242 5.029 11.242 11.232V357.51c0 6.203-5.033 11.232-11.242 11.232h-73" stroke="#212F4C" stroke-width="1.8" fill="#FFF" stroke-linecap="round" stroke-linejoin="round"/><circle stroke="#809BCE" stroke-width="1.8" stroke-linecap="round" stroke-linejoin="round" cx="236.5" cy="299.242" r="12.5"/><path stroke="#212F4C" stroke-width="1.8" stroke-linecap="round" stroke-linejoin="round" d="M219.675 348.742h34.65l4.675 44h-44zM181 386.742h34v6h-34zM259 386.742h34v6h-34z"/><path d="M156 392.742c-.741-8.517-4.656-13.602-11.745-15.257-10.632-2.483-12.168-7.008-15.593 0-3.424 7.008-10.662 1.068-10.662 15.257h38zM330 392.742c5.067-8 11.895-12 20.484-12 8.589 0 14.428 4 17.516 12h-38z" stroke="#212F4C" stroke-width="1.8" fill="#FFF" stroke-linecap="round" stroke-linejoin="round"/><path d="M219.895 119.636c12.409 11.619 26.42 18.826 42.032 21.623 15.612 2.796 14.715-6.54-2.69-28.007l-24.067-8.51-17.17 8.51 1.895 6.384z" fill="#212F4C"/><path d="M484.431 115.832a24.965 24.965 0 0 1-18.784 14.075c-13.645 2.144-26.458-7.092-28.62-20.63l-3.196-20.025a24.833 24.833 0 0 1-.31-3.594M484.403 100.783a8.38 8.38 0 0 0 3.15.102c4.548-.715 7.651-4.952 6.93-9.465-.72-4.512-4.99-7.59-9.538-6.876" stroke="#212F4C" stroke-width="1.8" stroke-linecap="round" stroke-linejoin="round"/><path d="M486.576 84.268c3.448-16.92.273-24.61-9.522-23.071-.944-10.385-7.362-15.033-19.255-13.944-17.84 1.632-28.219 19.376-41.137 13.935-12.92-5.44-10.764 28.89 15.278 24.798 26.042-4.092 40.565-19.217 42.723-14.31 2.157 4.907-1.3 24.992 4.167 26.105 2.224.452-.698-7.07.734-10.523.61-1.471 2.948-2.468 7.012-2.99z" stroke="#212F4C" stroke-width="1.8" fill="#212F4C" stroke-linejoin="round"/><path d="M485.172 116.216c-4.59 7.257-9.813 11.53-15.665 12.819-5.852 1.289-10.12 1.683-12.802 1.181l1.205 10.593c8.08-1.471 13.928-3.912 17.548-7.32 3.619-3.409 6.857-9.166 9.714-17.273z" fill="#212F4C"/><path d="M488 101.742l12.216 41.365a9 9 0 0 0 5.628 5.935l63.75 22.572a36 36 0 0 1 23.291 26.903l23.053 115.728a27 27 0 0 1-8.77 25.655l-60.807 52.842h-39.14l69.733-74.44-34.424-92.97M456.726 130.742l1.7 14.556a9 9 0 0 1-3.266 8.03l-34.111 27.7a36 36 0 0 0-13.122 31.584l12.386 121.976L403 392.742" stroke="#212F4C" stroke-width="1.8" stroke-linecap="round" stroke-linejoin="round"/><path d="M431 214.742c10.559 61.717 15.838 106.347 15.838 133.89 0 4.814-7.575 13.633-3.787 17.777 3.787 4.144 75.293 6.118 92.949-4.434M453 155.877c12.15 14.952 30.483 12.908 55-6.135M448 160.027c14.58 17.756 36.58 15.328 66-7.285M450 368.742l-4 24M584.5 359.742v29" stroke="#212F4C" stroke-width="1.8" stroke-linecap="round" stroke-linejoin="round"/><g fill="#EFABFF"><path d="M506.195 187.797v-7.684a3.067 3.067 0 0 1 6.133 0v7.684a3.067 3.067 0 0 1-6.133 0zM554.92 201.62l3.824 6.644a3.079 3.079 0 0 1-1.125 4.2 3.06 3.06 0 0 1-4.187-1.122l-3.823-6.645a3.079 3.079 0 0 1 1.126-4.2 3.06 3.06 0 0 1 4.186 1.122zM462.857 359.818l6.602-3.825a3.065 3.065 0 0 1 4.194 1.123 3.085 3.085 0 0 1-1.127 4.207l-6.602 3.826a3.065 3.065 0 0 1-4.194-1.124 3.085 3.085 0 0 1 1.127-4.207zM521.248 286.68l6.602-3.826a3.065 3.065 0 0 1 4.194 1.124 3.085 3.085 0 0 1-1.128 4.207l-6.602 3.826a3.065 3.065 0 0 1-4.194-1.124 3.085 3.085 0 0 1 1.128-4.207zM586.705 294.52l3.353-6.9a3.06 3.06 0 0 1 4.098-1.41 3.078 3.078 0 0 1 1.414 4.109l-3.352 6.9a3.06 3.06 0 0 1-4.098 1.41 3.078 3.078 0 0 1-1.415-4.11zM424.297 313.347l6.602-3.825a3.065 3.065 0 0 1 4.194 1.123 3.085 3.085 0 0 1-1.127 4.207l-6.602 3.826a3.065 3.065 0 0 1-4.194-1.124 3.085 3.085 0 0 1 1.127-4.207zM472.526 258.806l-6.602-3.826a3.065 3.065 0 0 0-4.194 1.124 3.085 3.085 0 0 0 1.127 4.207l6.602 3.826a3.065 3.065 0 0 0 4.194-1.124 3.085 3.085 0 0 0-1.127-4.207zM554.583 175.504l-6.603-3.825a3.065 3.065 0 0 0-4.194 1.123 3.085 3.085 0 0 0 1.128 4.207l6.602 3.826a3.065 3.065 0 0 0 4.194-1.124 3.085 3.085 0 0 0-1.127-4.207zM425.615 375.781l-6.602-3.825a3.065 3.065 0 0 0-4.194 1.124 3.085 3.085 0 0 0 1.128 4.207l6.602 3.825a3.065 3.065 0 0 0 4.194-1.123 3.085 3.085 0 0 0-1.128-4.208zM440.147 192.086l-6.603-3.826a3.065 3.065 0 0 0-4.194 1.124 3.085 3.085 0 0 0 1.128 4.207l6.602 3.826a3.065 3.065 0 0 0 4.194-1.124 3.085 3.085 0 0 0-1.127-4.207zM577.297 237.774l-6.602-3.826a3.065 3.065 0 0 0-4.194 1.124 3.085 3.085 0 0 0 1.127 4.207l6.602 3.825a3.065 3.065 0 0 0 4.194-1.123 3.085 3.085 0 0 0-1.127-4.207zM504.848 239.504l-6.602-3.825a3.065 3.065 0 0 0-4.194 1.124 3.085 3.085 0 0 0 1.128 4.207l6.602 3.825a3.065 3.065 0 0 0 4.194-1.123 3.085 3.085 0 0 0-1.128-4.208zM470.823 313.3l7.356-1.978a3.083 3.083 0 0 0 2.178-3.771 3.071 3.071 0 0 0-3.765-2.174l-7.356 1.978a3.083 3.083 0 0 0-2.178 3.772 3.071 3.071 0 0 0 3.765 2.174zM476.149 211.22l7.356-1.978a3.083 3.083 0 0 0 2.177-3.772 3.071 3.071 0 0 0-3.765-2.174l-7.356 1.978a3.083 3.083 0 0 0-2.178 3.772 3.071 3.071 0 0 0 3.766 2.174zM577.447 347.578l6.602-3.825a3.065 3.065 0 0 1 4.194 1.124 3.085 3.085 0 0 1-1.128 4.207l-6.602 3.825a3.065 3.065 0 0 1-4.194-1.123 3.085 3.085 0 0 1 1.128-4.208zM422.858 241.492l5.398 5.418a3.083 3.083 0 0 1 0 4.352 3.061 3.061 0 0 1-4.336 0l-5.399-5.418a3.083 3.083 0 0 1 0-4.352 3.061 3.061 0 0 1 4.337 0zM514.014 336.384l5.399 5.418a3.083 3.083 0 0 1 0 4.353 3.061 3.061 0 0 1-4.337 0l-5.399-5.418a3.083 3.083 0 0 1 0-4.353 3.061 3.061 0 0 1 4.337 0z"/></g><path d="M542.335 224.742L577 317.852l-40 41.89c12.67-15.529 19.337-31.683 20-48.462.663-16.78-4.225-45.626-14.665-86.538zM430.846 214.742c10.7 69.311 16.05 114.009 16.05 134.091 0 5.472-7.677 15.665-3.839 17.804 2.56 1.425 4.873 2.138 6.943 2.138l-3.991 23.967H425c7.408-6.752 11.575-24.215 12.5-52.388.925-28.173-1.293-70.044-6.654-125.612zM224 178.742l9.634 3 7.496.404 7.87-2.243c-7.53 7.71-15.863 10.89-25 9.536v-10.697z" fill="#212F4C"/><path d="M125 353.742c-38.815-44.972 0-77.555-55.312-88.417C14.376 254.463 3.921 239.718 0 157.742" stroke="#809BCE" stroke-width="1.8" stroke-linecap="round" stroke-linejoin="round"/><circle stroke="#809BCE" stroke-width="1.8" stroke-linecap="round" stroke-linejoin="round" cx="43.5" cy="320.242" r="8.5"/><circle stroke="#809BCE" stroke-width="1.8" stroke-linecap="round" stroke-linejoin="round" cx="195" cy="57.742" r="6"/><circle stroke="#809BCE" stroke-width="1.8" stroke-linecap="round" stroke-linejoin="round" cx="424" cy="31.742" r="6"/><path stroke="#809BCE" stroke-width="1.8" stroke-linecap="round" stroke-linejoin="round" d="M381 333.742h8v8h-8zM574 130.742h11v11h-11zM38 182.742h11v11H38zM349 350.742c27.659-63.244 14.891-82.358 65.185-82.358 50.294 0 79.581-24.416 91.112-107.029 7.688-55.075 30.255-82.613 67.703-82.613M335.927 211.742c12.813-29.571-26.057-66.591 9.472-99.71 23.685-22.078 27.893-55.175 12.621-99.29"/><path d="M92 157.742v86h41" stroke="#809BCE" stroke-width="1.8" stroke-linecap="round" stroke-linejoin="round" stroke-dasharray="2.7,5.4"/><g stroke="#212F4C" stroke-linecap="round" stroke-linejoin="round" stroke-width="1.8"><path fill="#FFF" d="M67 91.742h66.417v69.517l-13.087 10.97H67z"/><path d="M120.33 172.23v-11.317h13.087"/></g><g stroke="#212F4C" stroke-linecap="round" stroke-linejoin="round" stroke-width="1.8"><path fill="#FFF" d="M58 84.742h66.417v69.517l-13.087 10.97H58z"/><path d="M111.33 165.23v-11.317h13.087"/></g><g stroke-linecap="round" stroke-linejoin="round" stroke-width="1.8"><g stroke="#212F4C"><path fill="#FFF" d="M48 77.742h66.417v69.517l-13.087 10.97H48z"/><path d="M101.33 158.23v-11.317h13.087"/></g><path stroke="#809BCE" d="M59.999 88.721h42.419M59.999 146.913h7.463M59.999 97.504h16.202M86.216 97.504h16.202M59.999 106.287h27.563"/></g><g transform="translate(268 .742)" stroke-linecap="round" stroke-linejoin="round" stroke-width="1.8"><path stroke="#212F4C" fill="#FFF" d="M0 0h49.412v50.767l-9.737 8.011H0z"/><path stroke="#809BCE" d="M17.75 38.582h13.911"/><ellipse stroke="#212F4C" fill="#7E9ACE" cx="24.706" cy="20.695" rx="10.545" ry="10.404"/><path stroke="#212F4C" d="M39.675 58.778v-8.264h9.737"/></g><g stroke="#212F4C" stroke-linecap="round" stroke-linejoin="round" stroke-width="1.8"><path d="M416.697 161.878l4.767-48.122h-56.72"/><path fill="#FFF" d="M352.467 161.878h64.23l-10.381-43.074h-39.037l-3.282-7.062-22.997.21z"/></g><path d="M386 161.742v91h-45M293 60.742v22.979h25v146.021" stroke="#809BCE" stroke-width="1.8" stroke-linecap="round" stroke-linejoin="round" stroke-dasharray="2.7,5.4"/></g></svg>