<svg fill="none" height="409" viewBox="0 0 620 409" width="620" xmlns="http://www.w3.org/2000/svg"><path clip-rule="evenodd" d="M272.916 100.401c-33.052-27.215-78.285-.231-86.698 23.898-3.665 10.511-2.005 23.749-.55 35.344 1.884 15.025 3.423 27.291-7.418 27.291-19.207 0-47.319 2.149-42.076 41.425.231 1.728.397 3.346.502 4.864a12.384 12.384 0 0 1 9.103-3.971h57.108c.169-1.004.304-2.009.436-2.998.617-4.607 1.188-8.871 4.965-11.099 3.715-2.191 9.739-3.432 17.129-4.954 14.148-2.913 33.302-6.856 50.846-20.477 26.709-20.735 29.705-62.108-3.347-89.323zM136.807 235.989c.116 5.071-.519 8.855-1.648 11.714v24.652c.36-.64.7-1.331 1.015-2.073a229.95 229.95 0 0 0 1.616-3.926c5.326-13.168 8.781-21.71 40.46-21.71 18.451 0 22.719-6.522 24.29-13.594h-56.761a10.61 10.61 0 0 0-8.972 4.937zm-15.249 21.392c4.074-.98 8.717-2.097 11.801-6.35v23.933c-7.557 8.885-20.359 2.052-20.359-10.302 0-5.222 3.908-6.162 8.558-7.281z" fill="#212f4c" fill-rule="evenodd"/><path d="M186.218 124.299l.849.296zm86.698-23.898l-.572.695zm-87.248 59.242l.893-.112zm-49.494 68.716l-.892.119zm.502 4.864l-.897.062a.898.898 0 1 0 1.557.55zm66.211-3.971v.9a.9.9 0 0 0 .888-.751zm.436-2.998l-.888-.148-.004.029zm0 0l.888.148a.289.289 0 0 0 .004-.029zm4.965-11.099l.457.775zm17.129-4.954l.182.882zm50.846-20.477l-.552-.711zm-141.104 57.979l-.837-.331a.918.918 0 0 0-.063.331zm1.648-11.714l-.76-.483a.895.895 0 0 0-.14.503zm-1.648 36.366h-.9a.9.9 0 0 0 1.685.441zm1.015-2.073l-.828-.352zm1.616-3.926l-.834-.337zm64.75-35.304l.879.195a.9.9 0 0 0-.879-1.095zm-69.181 19.979h.9a.9.9 0 0 0-1.628-.529zm-11.801 6.35l-.21-.875zm11.801 17.583l.686.583a.903.903 0 0 0 .214-.583zm53.708-150.369c4.098-11.75 17.268-24.367 33.584-30.66 16.269-6.274 35.477-6.191 51.693 7.161l1.144-1.39c-16.836-13.863-36.77-13.896-53.484-7.45-16.667 6.428-30.32 19.368-34.636 31.747zm-.506 34.936c-1.462-11.657-3.075-24.664.506-34.936l-1.699-.592c-3.748 10.749-2.04 24.218-.593 35.752zm-8.311 28.303c2.889 0 5.082-.824 6.642-2.423 1.536-1.576 2.348-3.791 2.729-6.356.757-5.096-.125-12.064-1.06-19.524l-1.786.224c.948 7.564 1.778 14.242 1.066 19.035-.354 2.38-1.073 4.17-2.238 5.364-1.141 1.17-2.821 1.88-5.353 1.88zm-41.183 40.406c-1.298-9.719-.52-17.057 1.609-22.601 2.123-5.528 5.61-9.329 9.842-11.957 8.528-5.294 20.109-5.848 29.732-5.848v-1.8c-9.583 0-21.663.52-30.681 6.119-4.542 2.819-8.3 6.92-10.574 12.841-2.267 5.905-3.037 13.565-1.713 23.484zm.507 4.92a79.008 79.008 0 0 0-.507-4.92l-1.785.238c.229 1.711.392 3.311.497 4.807zm8.205-4.808c-3.856 0-7.331 1.64-9.762 4.258l1.319 1.225a11.485 11.485 0 0 1 8.443-3.683zm57.108 0h-57.108v1.8h57.108zm-.456-2.217c-.133.991-.265 1.981-.431 2.968l1.775.298c.172-1.021.308-2.041.44-3.028zm.005-.029h-.001l1.776.296zm5.395-11.726c-2.115 1.247-3.314 3.066-4.057 5.127-.731 2.028-1.038 4.348-1.343 6.627l1.784.239c.312-2.327.599-4.443 1.252-6.256.641-1.778 1.615-3.206 3.278-4.187zm17.405-5.06c-3.688.759-7.07 1.455-9.994 2.238-2.919.78-5.448 1.663-7.411 2.822l.914 1.55c1.751-1.033 4.092-1.866 6.962-2.634 2.864-.766 6.189-1.451 9.892-2.213zm50.475-20.307c-17.362 13.479-36.323 17.393-50.475 20.307l.363 1.763c14.143-2.912 33.489-6.886 51.216-20.648zm-3.367-87.917c32.632 26.869 29.594 67.556 3.367 87.917l1.104 1.422c27.19-21.109 30.145-63.168-3.327-90.729zM135.996 248.033c1.186-3.002 1.828-6.914 1.71-12.065l-1.799.041c.114 4.991-.512 8.648-1.585 11.363zm.063 24.322v-24.652h-1.8v24.652zm-.713-2.425a20.03 20.03 0 0 1-.971 1.984l1.569.882c.377-.67.731-1.391 1.059-2.162zm1.61-3.911c-.513 1.268-1.04 2.57-1.61 3.911l1.657.704c.577-1.357 1.11-2.674 1.622-3.94zm41.294-22.273c-15.88 0-24.898 2.133-30.623 6.076-5.746 3.958-8.024 9.653-10.671 16.197l1.669.675c2.679-6.625 4.791-11.785 10.023-15.39 5.255-3.619 13.803-5.758 29.602-5.758zm23.412-12.889c-.76 3.417-2.138 6.572-5.455 8.908-3.352 2.362-8.816 3.981-17.957 3.981v1.8c9.31 0 15.206-1.641 18.993-4.309 3.823-2.692 5.364-6.335 6.176-9.99zm-55.883 1.095h56.761v-1.8h-56.761zm-8.213 4.519a9.715 9.715 0 0 1 8.213-4.519v-1.8a11.512 11.512 0 0 0-9.732 5.354zm-4.935 14.031c-2.864 3.949-7.171 5.015-11.283 6.004l.421 1.75c4.034-.971 9.014-2.139 12.319-6.697zm1.628 24.462v-23.933h-1.8v23.933zM112.1 264.662c0 6.493 3.37 11.609 7.833 13.915 4.499 2.325 10.049 1.746 14.112-3.03l-1.371-1.166c-3.495 4.108-8.124 4.556-11.915 2.597-3.828-1.978-6.859-6.454-6.859-12.316zm9.248-8.156c-2.276.548-4.591 1.093-6.308 2.226-.884.583-1.633 1.333-2.154 2.33-.52.994-.786 2.181-.786 3.6h1.8c0-1.192.222-2.08.581-2.766.357-.683.875-1.217 1.55-1.662 1.399-.922 3.363-1.407 5.738-1.978z" fill="#212f4c"/><rect fill="#7e9ace" height="15" rx="7.5" stroke="#212f4c" stroke-linecap="round" stroke-linejoin="round" stroke-width="1.8" width="550" x="28" y="393"/><path clip-rule="evenodd" d="M265.5 159a8.5 8.5 0 1 0-.001-17.001A8.5 8.5 0 0 0 265.5 159z" fill="#fff" fill-rule="evenodd"/><path clip-rule="evenodd" d="M192.335 213s20.548 8.5 45.455 8.5 52.923-8.5 52.923-8.5l9.418 3.955 6.597 6.013L310 230H174l1.641-3.994 2.931-4.985 5.268-4.582 5.026-2.442zM310 369.284h21.43l5.73-2.284 3.087 7.706 5.753 6.13-9.343 4.353-6.235 6.811h-1.228l-11.648-11.07zM157.443 392l11.493-11.025L178 369l-32.825.049-5.175 6.397 5.175 2.077 6.061 2.116 4.313 4.843zM197 369h21l-2.681 18H197zM288 369h-30l1.839 18H288z" fill="#efabff" fill-rule="evenodd"/><path d="M145.839 369.415l-.7-.566zm-.134-1.266l-.566.7zm-5.005 7.627l.7.565zm-1.266.134l-.565.7zm-.134-1.265l-.7-.566zm5.139-6.361l.7.565zm34.095.943l.793.424zm-.37-1.218l-.424.794zm-5.464 9.38l.658.614zm-14.718 15.787l.659.614zm-1.272.044l.614-.658zm-.044-1.272l.658.614zm14.717-15.786l.659.613zm5.563-7.783l.794.424zm111.525.464l-.9.008zm-.908-.892l.008.9zm1.077 18.844l.9-.008zm-.892.909l-.008-.9zm-.908-.892l-.9.009zm-.169-17.952l.9-.009zm24.715-.52l-.842.319zm-1.161-.522l.319.841zm11.232 15.091l.596-.674zm10.158 8.979l-.596.674zm.078 1.27l-.674-.596zm-1.271.078l.597-.674zm-10.157-8.978l-.596.674zm-10.562-15.28l.841-.319zm28.403-2.781l.838-.33zm-1.167-.509l.33.838zm9.691 13.376l.63-.643zm-1.26 1.286l.63-.643zm-8.939-13.495l.838-.329zm-73.594-163.329l-.27.859zm32.238 10.134l-.27.859zm16.119 16.003l.857-.276zm-.58 1.132l-.276-.857zm-1.133-.581l.857-.276zm-14.946-14.837l.27-.858zm-32.238-10.134l-.27.859zM251.855 172.9h.9a.9.9 0 0 0-.9-.9zm-25.929 0v-.9a.9.9 0 0 0-.9.9zm-9.957 32.547l-.299-.849zm-26.501 9.342l-.299-.849zm-14.402 15.254l.864.25zm-1.115.615l-.25.865zm-.615-1.114l-.864-.25zm15.534-16.452l.299.848zm26.501-9.343l-.299-.849zM146.54 369.981a1.802 1.802 0 0 0-.269-2.532l-1.132 1.4zm-5.14 6.36l5.14-6.36-1.401-1.132L140 375.21zm-2.531.269a1.799 1.799 0 0 0 2.531-.269l-1.4-1.131zm-.269-2.531a1.799 1.799 0 0 0 .269 2.531l1.131-1.4zm5.139-6.361l-5.139 6.361 1.4 1.131 5.139-6.361zm2.532-.269a1.802 1.802 0 0 0-2.532.269l1.4 1.131zm33.056 2.202a1.8 1.8 0 0 0-.739-2.436l-.848 1.588zm-5.969 8.352a39.627 39.627 0 0 0 5.969-8.352l-1.587-.848a37.825 37.825 0 0 1-5.698 7.972zm-14.717 15.787l14.717-15.787-1.316-1.228-14.718 15.787zm-2.544.089a1.8 1.8 0 0 0 2.544-.089l-1.317-1.228zm-.09-2.544a1.8 1.8 0 0 0 .09 2.544l1.227-1.317zm14.718-15.787l-14.718 15.787 1.317 1.227 14.718-15.787zm5.427-7.593a36.054 36.054 0 0 1-5.427 7.593l1.317 1.227a37.825 37.825 0 0 0 5.698-7.972zm2.436-.74a1.8 1.8 0 0 0-2.436.74l1.588.848zm20.796 1.655a1.8 1.8 0 0 0-1.8-1.8v1.8zm0 17.934V368.87h-1.8v17.934zm-1.8 1.8a1.8 1.8 0 0 0 1.8-1.8h-1.8zm-1.8-1.8a1.8 1.8 0 0 0 1.8 1.8v-1.8zm0-17.934v17.934h1.8V368.87zm1.8-1.8a1.8 1.8 0 0 0-1.8 1.8h1.8zm0 23.692a1.8 1.8 0 0 0-1.8 1.8h1.8zm90.221 0h-90.221v1.8h90.221zm1.8 1.8a1.8 1.8 0 0 0-1.8-1.8v1.8zm-1.8 1.8a1.8 1.8 0 0 0 1.8-1.8h-1.8zm-90.221 0h90.221v-1.8h-90.221zm-1.8-1.8a1.8 1.8 0 0 0 1.8 1.8v-1.8zm93.587-23.728a1.8 1.8 0 0 0-1.817-1.783l.017 1.8zm.169 17.953l-.169-17.953-1.8.017.169 17.953zm-1.783 1.817a1.8 1.8 0 0 0 1.783-1.817l-1.8.017zm-1.817-1.783a1.8 1.8 0 0 0 1.817 1.783l-.017-1.8zm-.169-17.953l.169 17.953 1.8-.017-.169-17.953zm1.783-1.817a1.8 1.8 0 0 0-1.783 1.817l1.8-.017zm24.673.969a1.8 1.8 0 0 0-2.321-1.044l.638 1.683zm9.826 14.215a36.035 36.035 0 0 1-9.826-14.215l-1.683.639a37.846 37.846 0 0 0 10.317 14.925zm10.158 8.978l-10.158-8.978-1.192 1.349 10.158 8.978zm.156 2.541a1.8 1.8 0 0 0-.156-2.541l-1.192 1.349zm-2.541.157a1.8 1.8 0 0 0 2.541-.157l-1.348-1.192zm-10.157-8.979l10.157 8.979 1.193-1.349-10.158-8.978zm-10.808-15.634a39.646 39.646 0 0 0 10.808 15.634l1.192-1.348a37.846 37.846 0 0 1-10.317-14.925zm1.045-2.322a1.8 1.8 0 0 0-1.045 2.322l1.683-.639zm29.038-1.109a1.8 1.8 0 0 0-2.334-1.016l.659 1.675zm8.316 12.554a36.034 36.034 0 0 1-8.316-12.554l-1.675.659A37.832 37.832 0 0 0 346 379.707zm.026 2.546c.695-.71.684-1.85-.026-2.546l-1.26 1.286zm-2.546.026c.71.695 1.85.684 2.546-.026l-1.286-1.26zm-9.146-13.809a39.634 39.634 0 0 0 9.146 13.809l1.26-1.286a37.832 37.832 0 0 1-8.731-13.181zm1.016-2.333a1.799 1.799 0 0 0-1.016 2.333l1.675-.658zM225.026 170.2a1.8 1.8 0 0 0-1.8 1.8h1.8zm27.729 0h-27.729v1.8h27.729zm1.8 1.8a1.8 1.8 0 0 0-1.8-1.8v1.8zm0 19.016V172h-1.8v19.016zm8.552 11.651a12.213 12.213 0 0 1-8.552-11.651h-1.8c0 6.12 3.973 11.533 9.812 13.369zm32.238 10.135l-32.238-10.135-.54 1.718 32.238 10.134zm16.706 16.585a25.627 25.627 0 0 0-16.706-16.585l-.54 1.717a23.827 23.827 0 0 1 15.533 15.419zm-1.162 2.265a1.8 1.8 0 0 0 1.162-2.265l-1.713.551zm-2.265-1.162a1.8 1.8 0 0 0 2.265 1.162l-.551-1.714zm-14.359-14.254a22.026 22.026 0 0 1 14.359 14.254l1.714-.552a23.827 23.827 0 0 0-15.533-15.419zm-32.238-10.134l32.238 10.134.54-1.717-32.238-10.134zm-11.072-15.086a15.815 15.815 0 0 0 11.072 15.086l.54-1.717a14.016 14.016 0 0 1-9.812-13.369zm0-18.116v18.116h1.8V172.9zm-25.029.9h25.929V172h-25.929zm.9 17.582V172.9h-1.8v18.482zm-10.558 14.914a15.815 15.815 0 0 0 10.558-14.914h-1.8c0 5.943-3.75 11.24-9.356 13.216zm-26.5 9.342l26.5-9.342-.598-1.698-26.501 9.342zm-13.838 14.655a22.026 22.026 0 0 1 13.838-14.655l-.599-1.698a23.828 23.828 0 0 0-14.968 15.854zm-2.229 1.23a1.8 1.8 0 0 0 2.229-1.23l-1.729-.499zm-1.229-2.229a1.8 1.8 0 0 0 1.229 2.229l.5-1.729zm16.099-17.051a25.624 25.624 0 0 0-16.099 17.051l1.729.5a23.828 23.828 0 0 1 14.968-15.854zm26.501-9.343l-26.501 9.343.598 1.697 26.501-9.342zm8.154-11.518c0 5.179-3.268 9.796-8.154 11.518l.598 1.698a14.014 14.014 0 0 0 9.356-13.216zm0-19.382v19.382h1.8V172z" fill="#212f4c"/><path clip-rule="evenodd" d="M212.5 159a8.5 8.5 0 1 0-.001-17.001A8.5 8.5 0 0 0 212.5 159z" fill="#fff" fill-rule="evenodd"/><rect fill="#fff" height="70" rx="25" stroke="#212f4c" stroke-linecap="round" stroke-linejoin="round" stroke-width="1.8" width="50" x="214" y="112"/><path d="M218.559 369h-73.317c-6.209 0-11.242-5.029-11.242-11.232V241.232c0-6.203 5.033-11.232 11.242-11.232h185.516c6.209 0 11.242 5.029 11.242 11.232v116.536c0 6.203-5.033 11.232-11.242 11.232h-73" stroke="#212f4c" stroke-linecap="round" stroke-linejoin="round" stroke-width="1.8"/><path d="M237.5 312c6.904 0 12.5-5.596 12.5-12.5s-5.596-12.5-12.5-12.5-12.5 5.596-12.5 12.5 5.596 12.5 12.5 12.5z" clip-rule="evenodd" stroke="#809bce" stroke-width="1.8" stroke-linecap="round" stroke-linejoin="round"/><path d="M220.675 349h34.65L260 393h-44z" clip-rule="evenodd" stroke="#212f4c" stroke-width="1.8" stroke-linecap="round" stroke-linejoin="round"/><path d="M182 387h34v6h-34zM260 387h34v6h-34z" stroke="#212f4c" stroke-linecap="round" stroke-linejoin="round" stroke-width="1.8"/><path d="M157 393s-1.112-12.775-11.745-15.257c-10.632-2.483-12.168-7.008-15.593 0C126.238 384.751 119 378.811 119 393zM331 393s7.6-12 20.484-12C364.367 381 369 393 369 393z" clip-rule="evenodd" stroke="#212f4c" stroke-width="1.8" stroke-linecap="round" stroke-linejoin="round"/><path clip-rule="evenodd" d="M220.895 119.894s18.613 17.428 42.032 21.623c23.418 4.194-2.69-28.008-2.69-28.008L236.17 105 219 113.509z" fill="#212f4c" fill-rule="evenodd"/><path d="M485.431 116.09a24.964 24.964 0 0 1-18.784 14.075c-13.645 2.144-26.458-7.092-28.62-20.63l-3.196-20.025a24.876 24.876 0 0 1-.31-3.594M485.403 101.041a8.367 8.367 0 0 0 3.15.101c4.548-.714 7.651-4.952 6.931-9.464-.721-4.512-4.991-7.59-9.539-6.876" stroke="#212f4c" stroke-linecap="round" stroke-linejoin="round" stroke-width="1.8"/><path d="M487.576 84.525s5.171-25.38-9.522-23.07c0 0-1.415-15.577-19.255-13.945s-28.219 19.377-41.138 13.936c-12.918-5.441-10.763 28.89 15.279 24.798 26.042-4.092 40.565-19.217 42.723-14.31 2.157 4.907-1.301 24.992 4.167 26.105 2.224.452-.698-7.07.734-10.524.916-2.206 7.012-2.99 7.012-2.99z" fill-rule="evenodd" clip-rule="evenodd" fill="#212f4c" stroke="#212f4c" stroke-width="1.8" stroke-linejoin="round"/><path clip-rule="evenodd" d="M486.172 116.474s-6.886 10.885-15.665 12.819-12.802 1.181-12.802 1.181l1.205 10.593s12.119-2.207 17.548-7.32 9.714-17.273 9.714-17.273z" fill="#212f4c" fill-rule="evenodd"/><path d="M489 102l12.216 41.365a9.002 9.002 0 0 0 5.628 5.935l63.751 22.571a36 36 0 0 1 23.29 26.903l23.053 115.729a27.002 27.002 0 0 1-8.77 25.655L547.361 393h-39.139l69.732-74.44-34.424-92.97M457.726 131l1.7 14.556a8.995 8.995 0 0 1-3.266 8.03l-34.111 27.701a36 36 0 0 0-13.122 31.583l12.386 121.976L404 393" stroke="#212f4c" stroke-linecap="round" stroke-linejoin="round" stroke-width="1.8"/><path d="M432 215s15.838 92.575 15.838 133.89c0 4.814-7.575 13.632-3.787 17.777 3.787 4.144 75.293 6.117 92.949-4.434M454 156.135s18.225 22.429 55-6.135M449 160.285s21.87 26.634 66-7.285M451 369l-4 24M585.5 360v29" stroke="#212f4c" stroke-linecap="round" stroke-linejoin="round" stroke-width="1.8"/><path clip-rule="evenodd" d="M510.261 191.122a3.067 3.067 0 0 1-3.066-3.067v-7.684a3.067 3.067 0 1 1 6.133 0v7.684a3.067 3.067 0 0 1-3.067 3.067zM551.726 200.76a3.07 3.07 0 0 1 4.2 1.125l3.823 6.646a3.07 3.07 0 0 1-5.322 3.061l-3.822-6.646a3.069 3.069 0 0 1 1.121-4.186zM462.725 364.275a3.075 3.075 0 0 1 1.124-4.194l6.602-3.826a3.075 3.075 0 0 1 3.083 5.321l-6.602 3.826a3.075 3.075 0 0 1-4.207-1.127zM521.115 291.137a3.076 3.076 0 0 1 1.124-4.194l6.602-3.826a3.075 3.075 0 0 1 3.084 5.321l-6.602 3.826a3.077 3.077 0 0 1-4.208-1.127zM589.112 298.883a3.07 3.07 0 0 1-1.411-4.098l3.353-6.899a3.07 3.07 0 0 1 5.52 2.683l-3.352 6.899a3.07 3.07 0 0 1-4.11 1.415zM424.165 317.804a3.075 3.075 0 0 1 1.124-4.194l6.602-3.826a3.075 3.075 0 0 1 3.083 5.321l-6.602 3.826a3.075 3.075 0 0 1-4.207-1.127zM474.658 263.262a3.075 3.075 0 0 0-1.124-4.194l-6.602-3.825a3.074 3.074 0 1 0-3.083 5.321l6.602 3.826a3.075 3.075 0 0 0 4.207-1.128zM556.715 179.961a3.075 3.075 0 0 0-1.124-4.194l-6.602-3.826a3.075 3.075 0 0 0-3.084 5.321l6.603 3.826a3.076 3.076 0 0 0 4.207-1.127zM427.747 380.238a3.075 3.075 0 0 0-1.123-4.194l-6.603-3.825a3.075 3.075 0 1 0-3.083 5.321l6.602 3.825a3.074 3.074 0 0 0 4.207-1.127zM442.279 196.543a3.075 3.075 0 0 0-1.124-4.194l-6.602-3.826a3.075 3.075 0 0 0-3.084 5.321l6.603 3.826a3.076 3.076 0 0 0 4.207-1.127zM579.429 242.23a3.075 3.075 0 0 0-1.124-4.194l-6.602-3.825a3.074 3.074 0 1 0-3.083 5.321l6.602 3.826a3.075 3.075 0 0 0 4.207-1.128zM506.98 243.961a3.075 3.075 0 0 0-1.123-4.194l-6.603-3.825a3.074 3.074 0 1 0-3.083 5.321l6.602 3.825a3.074 3.074 0 0 0 4.207-1.127zM468.056 311.379a3.077 3.077 0 0 0 3.772 2.178l7.356-1.978a3.077 3.077 0 1 0-1.598-5.943l-7.356 1.978a3.078 3.078 0 0 0-2.174 3.765zM473.382 209.298a3.077 3.077 0 0 0 3.772 2.178l7.356-1.978a3.078 3.078 0 0 0-1.598-5.943l-7.356 1.978a3.077 3.077 0 0 0-2.174 3.765zM577.315 352.035a3.075 3.075 0 0 1 1.123-4.194l6.602-3.826a3.076 3.076 0 0 1 3.084 5.322l-6.602 3.825a3.074 3.074 0 0 1-4.207-1.127zM419.513 241.757a3.073 3.073 0 0 1 4.353 0l5.398 5.418a3.071 3.071 0 1 1-4.352 4.337l-5.399-5.418a3.073 3.073 0 0 1 0-4.337zM510.67 336.65a3.072 3.072 0 0 1 4.352 0l5.399 5.418a3.073 3.073 0 0 1-4.353 4.337l-5.398-5.418a3.071 3.071 0 0 1 0-4.337z" fill="#efabff" fill-rule="evenodd"/><path clip-rule="evenodd" d="M543.335 225L578 318.11 538 360s19.005-23.293 20-48.463c.995-25.169-14.665-86.537-14.665-86.537zM431.846 215s16.05 103.967 16.05 134.091c0 5.472-7.677 15.665-3.839 17.804 3.839 2.138 6.943 2.138 6.943 2.138l-3.991 23.966H426s11.112-10.128 12.5-52.388C439.888 298.352 431.846 215 431.846 215zM225 179l9.658 3.98 7.472-.576 7.87-2.243s-11.295 11.566-25 9.536z" fill="#212f4c" fill-rule="evenodd"/><g stroke-width="1.8" stroke-linecap="round" stroke-linejoin="round"><path d="M126 354c-38.815-44.972 0-77.555-55.312-88.417C15.376 254.721 4.921 239.976 1 158" stroke="#809bce"/><path clip-rule="evenodd" d="M44.5 329a8.5 8.5 0 1 0 0-17 8.5 8.5 0 0 0 0 17zM196 64a6 6 0 1 0 0-12 6 6 0 0 0 0 12zM425 38a6 6 0 1 0 0-12 6 6 0 0 0 0 12z" stroke="#809bce"/><path d="M382 334h8v8h-8zM575 131h11v11h-11zM39 183h11v11H39zM350 351c27.659-63.244 14.891-82.358 65.185-82.358s79.581-24.416 91.112-107.029S574 79 574 79M336.927 212c12.813-29.571-26.057-66.591 9.472-99.709C381.927 79.173 359.02 13 359.02 13" stroke="#809bce"/><path d="M93 158v86h41" stroke="#809bce" stroke-dasharray="2.7 5.4"/><path d="M68 92h66.417v69.517l-13.087 10.97H68z" fill-rule="evenodd" clip-rule="evenodd" fill="#fff" stroke="#212f4c"/><path d="M121.33 172.487v-11.316h13.087" stroke="#212f4c"/><path d="M59 85h66.417v69.517l-13.087 10.97H59z" fill-rule="evenodd" clip-rule="evenodd" fill="#fff" stroke="#212f4c"/><path d="M112.33 165.487v-11.316h13.087" stroke="#212f4c"/><path d="M49 78h66.417v69.517l-13.087 10.97H49z" fill-rule="evenodd" clip-rule="evenodd" fill="#fff" stroke="#212f4c"/><path d="M102.33 158.487v-11.316h13.087" stroke="#212f4c"/><path d="M60.999 88.979h42.419M60.999 147.171h7.463M60.999 97.762h16.202M87.216 97.762h16.202M60.999 106.545h27.563" stroke="#809bce"/><path d="M269 1h49.412v50.767l-9.737 8.011H269z" fill-rule="evenodd" clip-rule="evenodd" fill="#fff" stroke="#212f4c"/><path d="M286.75 39.583h13.911" stroke="#809bce"/><path d="M293.706 32.099c5.824 0 10.545-4.658 10.545-10.404 0-5.746-4.721-10.404-10.545-10.404S283.16 15.95 283.16 21.695c0 5.746 4.722 10.404 10.546 10.404z" fill-rule="evenodd" clip-rule="evenodd" fill="#7e9ace" stroke="#212f4c"/><path d="M308.675 59.778v-8.264h9.737M417.697 162.136l4.767-48.122h-56.72" stroke="#212f4c"/><path d="M353.467 162.136h64.23l-10.381-43.074h-39.037L364.997 112l-22.997.21z" fill-rule="evenodd" clip-rule="evenodd" fill="#fff" stroke="#212f4c"/><path d="M387 162v91h-45M294 61v22.979h25V230" stroke="#809bce" stroke-dasharray="2.7 5.4"/></g></svg>