<svg fill="none" height="107" viewBox="0 0 106 107" width="106" xmlns="http://www.w3.org/2000/svg"><path clip-rule="evenodd" d="M52.75 106c29.133 0 52.75-23.617 52.75-52.75S81.883.5 52.75.5 0 24.117 0 53.25 23.617 106 52.75 106z" fill="#212f4c" fill-rule="evenodd"/><rect fill="#ebf2ff" height="58" rx="8" stroke="#212f4c" stroke-linecap="round" stroke-linejoin="round" stroke-width="2" width="57" x="26" y="28.5"/><rect fill="#fff" height="58" rx="8" stroke="#212f4c" stroke-linecap="round" stroke-linejoin="round" stroke-width="2" width="45.5" x="26" y="28.5"/><rect fill="#ebf2ff" height="24" rx="6" width="39.5" x="29" y="31.75"/><path clip-rule="evenodd" d="M19 69.25a6 6 0 0 1 6-6h34.5a6 6 0 0 1 6 6v8a6 6 0 0 1-6 6H25a6 6 0 0 1-6-6z" fill="#ebf2ff" fill-rule="evenodd"/><rect fill="#fff" height="24" rx="6" stroke="#212f4c" stroke-linecap="round" stroke-linejoin="round" stroke-width="2" width="39.5" x="19" y="59.25"/><path clip-rule="evenodd" d="M33.455 65.75h10.59z" fill="#ebf2ff" fill-rule="evenodd"/><path d="M33.455 65.75h10.59" stroke="#212f4c" stroke-linecap="round" stroke-linejoin="round" stroke-width="2"/><rect fill="#fff" height="15" rx="5" stroke="#212f4c" stroke-linecap="round" stroke-linejoin="round" stroke-width="1.8" width="52" x="33" y="37.5"/><path clip-rule="evenodd" d="M44.045 42.75h17.394z" fill="#ebf2ff" fill-rule="evenodd"/><path d="M44.045 42.75h17.394" stroke="#212f4c" stroke-linecap="round" stroke-linejoin="round" stroke-width="2"/><path clip-rule="evenodd" d="M44.045 47.75h11.394z" fill="#ebf2ff" fill-rule="evenodd"/><g stroke="#212f4c" stroke-linecap="round" stroke-linejoin="round" stroke-width="2"><path d="M44.045 47.75h11.394"/><path clip-rule="evenodd" d="M66.114 69.472l2.076-20.423 18.708 8.423-6.314 3.645 6.176 10.697-8.14 4.7-6.176-10.698z" fill="#efabff" fill-rule="evenodd"/></g></svg>