<svg fill="none" height="106" viewBox="0 0 106 106" width="106" xmlns="http://www.w3.org/2000/svg"><path clip-rule="evenodd" d="M53 106c29.133 0 52.75-23.617 52.75-52.75S82.133.5 53 .5.25 24.117.25 53.25 23.867 106 53 106z" fill="#212f4c" fill-rule="evenodd"/><path d="M25 25.25a6 6 0 0 1 6-6h44a6 6 0 0 1 6 6v52.32l-11.035 9.203H31a6 6 0 0 1-6-6z" fill-rule="evenodd" clip-rule="evenodd" fill="#fff" stroke="#212f4c" stroke-width="2" stroke-linecap="round" stroke-linejoin="round"/><path clip-rule="evenodd" d="M53 54.569c7.456 0 13.5-6.044 13.5-13.5s-6.044-13.5-13.5-13.5-13.5 6.044-13.5 13.5 6.044 13.5 13.5 13.5z" fill="#dae5fa" fill-rule="evenodd"/><g stroke-linecap="round" stroke-linejoin="round" stroke-width="2"><path clip-rule="evenodd" d="M53.017 43.21a3.877 3.877 0 1 0 0-7.754 3.877 3.877 0 0 0 0 7.754z" stroke="#212f4c"/><path d="M56.894 47.087a3.877 3.877 0 1 0-7.755 0" stroke="#212f4c"/><path d="M49.993 73h6.293M46.02 67.5h14.24" stroke="#809bce"/><path d="M68.965 85.773V81.28a5 5 0 0 1 5-5H80" stroke="#212f4c"/><path clip-rule="evenodd" d="M86.552 37.43L61.896 62.087l-1.149 5.039 5.039-1.15L90.44 41.32z" fill="#efabff" fill-rule="evenodd" stroke="#212f4c"/></g></svg>