<svg fill="none" height="106" viewBox="0 0 106 106" width="106" xmlns="http://www.w3.org/2000/svg"><path clip-rule="evenodd" d="M53 106c29.133 0 52.75-23.617 52.75-52.75S82.133.5 53 .5.25 24.117.25 53.25 23.867 106 53 106z" fill="#212f4c" fill-rule="evenodd"/><g stroke-linecap="round" stroke-linejoin="round" stroke-width="2"><rect fill="#fff" height="26.5" rx="6" stroke="#212f4c" width="70.41" x="17.795" y="23.375"/><path d="M26.5 39.375h17.47M26.5 33.875H58" stroke="#809bce"/><path clip-rule="evenodd" d="M86.688 39.063c8.663 0 15.687-7.024 15.687-15.688S95.351 7.687 86.687 7.687 71 14.712 71 23.376s7.024 15.688 15.688 15.688z" fill="#efabff" fill-rule="evenodd" stroke="#212f4c"/><path d="M80.652 22.214l4.487 4.488 7.778-7.778" stroke="#fff"/><rect fill="#fff" height="26.5" rx="6" stroke="#212f4c" width="70.41" x="17.795" y="56.125"/><path d="M26.5 72.125h17.47M26.5 66.625H58" stroke="#809bce"/></g></svg>