<svg fill="none" height="107" viewBox="0 0 106 107" width="106" xmlns="http://www.w3.org/2000/svg"><path clip-rule="evenodd" d="M52.75 106c29.133 0 52.75-23.617 52.75-52.75S81.883.5 52.75.5 0 24.117 0 53.25 23.617 106 52.75 106z" fill="#212f4c" fill-rule="evenodd"/><path d="M27 32.5a6 6 0 0 1 6-6h38a6 6 0 0 1 6 6v49a6 6 0 0 1-6 6H33a6 6 0 0 1-6-6z" fill-rule="evenodd" clip-rule="evenodd" fill="#fff" stroke="#212f4c" stroke-width="1.8" stroke-linecap="round" stroke-linejoin="round"/><rect fill="#ebf2ff" height="19" rx="6" width="43" x="31" y="38.5"/><path d="M35.12 47.678l3.079 3.143 5.386-5.5" stroke="#212f4c" stroke-linecap="round" stroke-linejoin="round" stroke-width="1.8"/><path d="M49.476 46.341h11.523M49.476 50.786H71.88" stroke="#809bce" stroke-linecap="round" stroke-linejoin="round" stroke-width="2"/><rect fill="#ebf2ff" height="19" rx="6" width="43" x="31" y="59.5"/><g stroke-linecap="round" stroke-linejoin="round"><path d="M35.12 68.678l3.079 3.143 5.386-5.5" stroke="#212f4c" stroke-width="1.8"/><path d="M49.476 67.341h11.523M49.476 71.786H71.88" stroke="#809bce" stroke-width="2"/><path clip-rule="evenodd" d="M82.913 41.326c9.34 0 16.913-7.572 16.913-16.913 0-9.34-7.572-16.913-16.913-16.913C73.573 7.5 66 15.072 66 24.413c0 9.34 7.572 16.913 16.913 16.913z" fill="#efabff" fill-rule="evenodd" stroke="#212f4c" stroke-width="2"/><path d="M77.923 29.5C75.756 29.5 74 27.79 74 25.682s1.756-3.818 3.923-3.818c.154 0 .305.008.454.025a4.332 4.332 0 0 1-.454-1.934c0-2.46 2.05-4.455 4.577-4.455 2.528 0 4.577 1.994 4.577 4.455a4.34 4.34 0 0 1-.453 1.934c.148-.017.3-.025.453-.025 2.167 0 3.923 1.71 3.923 3.818S89.244 29.5 87.077 29.5" stroke="#fff" stroke-width="2"/><path d="M82.5 25.5v6M80.244 26.06l2.312-2.263 2.312 2.263" stroke="#fff" stroke-width="1.8"/></g></svg>