<svg viewBox="0 0 485.8606 183.6477" xmlns="http://www.w3.org/2000/svg"><g fill="#809bce"><path d="M434.518 98.825a9.833 9.833 0 1 0 9.78 9.782 10.002 10.002 0 0 0-9.78-9.782M165.067 95.47h-25.431v72.074h25.431c21.004 0 36.86-15.444 36.86-36.347 0-20.489-15.856-35.727-36.86-35.727m-7.928 55.394V112.15h9.164c10.399 0 17.709 8.03 17.709 19.046 0 11.327-7.414 19.667-17.709 19.667zM232.196 115.754c-14.93 0-26.461 11.428-26.461 26.255a26.35 26.35 0 0 0 26.77 26.564c12.972 0 22.548-7.207 24.092-18.43h-16.165c-.72 2.78-3.5 4.839-8.442 4.839-5.663 0-9.987-3.295-11.223-8.546h36.243c.206-1.853.412-4.53.412-5.869a24.982 24.982 0 0 0-25.226-24.813m-10.708 20.283c1.75-4.84 5.354-6.898 9.885-6.898 4.427 0 8.34 2.78 8.751 6.898zM294.28 115.753c-6.487 0-11.429 2.575-14.827 7.208v-6.178H262.98v66.662l16.473.203v-20.51c1.014 3.737 11.017 5.435 14.827 5.435 12.87 0 23.063-11.84 23.063-26.358s-10.192-26.462-23.063-26.462m-3.913 37.066c-6.776 0-10.054-5.449-10.826-8.68v-.594a10.537 10.537 0 0 1-.088-1.33 10.866 10.866 0 1 1 10.914 10.605M347.098 115.753c-14.929 0-26.255 11.327-26.255 26.564 0 15.033 11.326 26.256 26.255 26.256s26.358-11.223 26.358-26.256c0-15.237-11.429-26.564-26.358-26.564m0 36.964c-5.766 0-10.09-4.427-10.09-10.4 0-6.177 4.324-10.708 10.09-10.708 5.87 0 10.193 4.531 10.193 10.708a10.011 10.011 0 0 1-10.193 10.4M397.444 115.857c-12.87 0-20.386 7.413-20.386 16.164 0 20.387 28.006 12.253 28.006 19.77 0 2.058-1.957 3.5-6.282 3.5-4.118 0-7.516-2.163-7.825-5.148h-14.929c1.03 11.53 10.296 18.43 23.888 18.43 11.532 0 20.385-7.311 20.385-16.68 0-22.652-28.211-12.562-28.211-19.872 0-2.059 1.853-3.295 5.457-3.295 3.5 0 6.28 2.06 6.487 4.427h15.855c-1.235-11.325-11.12-17.297-22.445-17.297M426.581 124.859h16.474v42.684H426.58zM473.814 96.859l-16.474 9.374v10.55h-9.267v15.857h9.267v13.282c0 14.002 8.546 22.445 20.9 22.445a31.435 31.435 0 0 0 7.62-.823v-15.239a15.475 15.475 0 0 1-3.81.411c-4.53 0-8.236-2.264-8.236-7.103V132.64h12.046v-15.856h-12.046z"/></g><path d="M73.746 169.873c-.005-20.779-.037-62.61-.042-83.557-10.385 10.872-22.56 23.9-22.56 24.23-.136 8.171-.067 31.051-.123 39.223-.01 1.382-.113 2.765-.211 5.035-2.243-1.551-4.13-2.503-5.505-3.943a5.897 5.897 0 0 1-1.177-3.766c-.067-13.385.014-26.771-.02-40.157-.023-9.58-.097-19.16-.271-28.737-.117-6.451-3.022-11.173-8.884-14.208-7.548-3.908-12.079-10.055-12.376-18.76a21.598 21.598 0 0 1 40.437-11.25c4.806 8.582 3.572 20.243-3.63 27.068-.918.87-3.717 3.503-4.66 4.349-3.73 3.35-4.219 5.349-4.326 10.425.313 4.79.83 22.437.695 23.425 4.903-4.825 16.332-17.813 17.43-19.015 10.535-11.521 16.924-17.21 19.232-29.63C92.061 27.435 75.522 4.675 51.729.628 24.684-3.97-.272 17.262.002 44.68a45.288 45.288 0 0 0 8.364 25.739A86.984 86.984 0 0 0 23.52 87.404c3.127 2.657 3.48 5.026 1.344 8.495a38.9 38.9 0 0 1-2.723 3.765 8.337 8.337 0 0 0-1.182 9.111c.73 1.677 1.611 3.286 2.39 4.942 1.792 3.814 2.062 7.72-.338 11.28-2.408 3.57-2.385 6.649.422 9.95a15.593 15.593 0 0 1 2.219 4.524 9.805 9.805 0 0 1-1.674 10.276c-4.887 6.208-3.755 12.074 3.08 16.213 5.541 3.356 11.185 6.541 16.75 9.86a15.78 15.78 0 0 0 11.418 1.834 47.704 47.704 0 0 0 18.52-7.781M157.242 32.283c0-3.397 2.883-5.456 7.62-5.456 5.765 0 9.06 3.706 8.957 8.442h18.018c0-12.87-7.928-24.813-26.359-24.813-14.517 0-25.225 9.163-25.225 21.93 0 26.359 36.654 18.946 36.654 29.447 0 3.913-3.81 6.384-9.576 6.384-6.176 0-10.5-3.5-10.5-8.958h-17.195c0 14.62 11.737 25.328 27.695 25.328 15.445 0 26.77-9.678 26.77-22.754 0-27.181-36.86-19.562-36.86-29.55M236.296 64.379a16.717 16.717 0 0 1-10.896 4.456 10.607 10.607 0 1 1 10.595-12.753 2.187 2.187 0 0 1 .301 1.149zm-.085-25.609c-3.398-4.53-8.34-7.002-14.724-7.002-12.87 0-23.063 11.944-23.063 26.462s10.193 26.358 23.063 26.358c7.14 0 11.877-3.51 14.81-5.516v4.486h16.491v-50.76h-16.577zM267.51 31.048v1.75h-9.164v15.856h9.163v35.262l16.577-.036V48.654h11.944V32.798h-11.944v-1.441c0-4.84 3.603-7.104 8.237-7.104a14.627 14.627 0 0 1 3.707.411V9.426a30.857 30.857 0 0 0-7.62-.824c-12.355 0-20.901 8.34-20.901 22.446M312.708 52.051c1.75-4.838 5.354-6.897 9.884-6.897 4.427 0 8.34 2.779 8.752 6.897zm10.707-20.283c-14.93 0-26.46 11.43-26.46 26.256a26.35 26.35 0 0 0 26.77 26.564c12.973 0 22.548-7.207 24.093-18.43h-16.165c-.721 2.779-3.501 4.839-8.443 4.839-5.664 0-9.988-3.295-11.223-8.546h36.242c.206-1.853.412-4.531.412-5.87a24.982 24.982 0 0 0-25.226-24.813M353.274 83.558h16.474V11.485l-16.474.121zM410.622 32.798l-11.99 28.712a13.545 13.545 0 0 0-.374-8.047l-7.2-20.665h-17.71l18.375 45.26-9.005 21.562h17.813l27.902-66.822z" fill="#212f4c"/></svg>