<svg fill="none" height="42" viewBox="0 0 204 42" width="204" xmlns="http://www.w3.org/2000/svg"><path d="M0 0h42v42H0z" fill="#212f4c"/><path d="M19.6 23.8l-7.28-13.58h3.36l4.2 8.54c0 .14.14.28.28.42s.14.28.28.56l.14.14v.14c.14.28.14.42.28.7.14.14.14.42.28.56.14-.42.42-.7.56-1.26.14-.42.42-.84.7-1.26l4.2-8.54h3.08L22.4 23.94v8.68h-2.8z" fill="#fff"/><g fill="#212f4c"><path d="M61.18 8.12c2.1 0 3.92.56 5.32 1.68l-1.4 1.68c-1.26-.84-2.52-1.4-4.06-1.4-2.38 0-4.2 1.26-5.18 3.64-.56 1.4-.84 3.22-.84 5.6 0 1.82.28 3.36.7 4.48 1.12 2.66 2.94 3.92 5.74 3.92 1.54 0 2.94-.42 4.2-1.4l1.4 1.82c-1.82 1.12-3.78 1.68-5.88 1.68-2.52 0-4.62-.98-6.3-3.08-1.68-1.96-2.38-4.62-2.38-7.84s.84-5.74 2.52-7.84c1.54-1.82 3.64-2.94 6.16-2.94z"/><path clip-rule="evenodd" d="M70.98 16.1c-1.26 1.4-1.82 3.36-1.82 5.88s.56 4.62 1.82 6.02c1.26 1.54 2.8 2.24 4.9 2.24 1.68 0 3.08-.56 4.2-1.54 1.54-1.4 2.38-3.64 2.38-6.44 0-2.38-.42-4.34-1.4-5.74-1.26-1.82-3.08-2.66-5.32-2.66-1.96 0-3.5.84-4.76 2.24zm4.76-.14c1.54 0 2.52.7 3.22 1.96.56.98.84 2.52.7 4.62 0 1.4-.14 2.52-.42 3.36-.56 1.54-1.68 2.38-3.36 2.38-1.4 0-2.38-.56-3.08-1.54s-.98-2.66-.98-5.04c0-1.82.14-3.22.7-4.06.7-1.12 1.68-1.68 3.22-1.68z" fill-rule="evenodd"/><path d="M86.94 18.2c0-1.54-.14-2.8-.56-3.78l2.38-.56c.42.7.56 1.54.56 2.24v.14c.56-.56 1.12-1.12 1.96-1.54.98-.56 1.82-.84 2.66-.84 1.26 0 2.38.56 3.08 1.54.14.28.42.7.56.98 1.68-1.68 3.22-2.52 4.9-2.52 1.12 0 2.1.42 2.8 1.12.7.84 1.12 1.82 1.12 2.94v11.62h-2.52V18.06c0-1.54-.7-2.24-1.96-2.24-.7 0-1.54.28-2.24.84-.28.28-.84.7-1.54 1.26l-.28.28v11.34H95.2V18.62c0-.98-.14-1.68-.42-1.96-.42-.42-.84-.56-1.54-.56-1.12 0-2.38.7-3.92 2.1v11.48h-2.38z"/><path clip-rule="evenodd" d="M113.26 7l-2.52.56c.42.7.56 1.96.7 3.64v14.7c0 1.96-.14 3.22-.42 3.92h2.38c.14-.42.28-.98.42-1.68.42.56.98.98 1.82 1.4s1.54.56 2.38.56c1.82 0 3.36-.7 4.48-2.24s1.68-3.5 1.68-6.02c0-2.38-.56-4.34-1.68-5.74-.98-1.4-2.52-2.1-4.34-2.1-1.54 0-3.08.7-4.48 2.1v-5.18c0-1.54-.14-2.8-.42-3.92zm.42 11.2c.28-.42.7-.84 1.12-1.12.84-.7 1.82-.98 2.66-.84 1.4 0 2.38.42 2.94 1.26.7.84.98 2.24.98 4.2 0 2.24-.42 3.78-1.12 4.9-.56.98-1.54 1.4-2.8 1.4-1.54 0-2.8-.56-3.78-1.82zM128.38 8.12c-.42.42-.56.84-.56 1.4 0 .56.14.98.56 1.4s.84.56 1.4.56.98-.14 1.4-.56.56-.84.56-1.4c0-.56-.14-.98-.56-1.4s-.84-.56-1.4-.56-.98.14-1.4.56zm0 6.16v15.4h2.52V13.86z" fill-rule="evenodd"/><path d="M136.36 18.2c0-1.12 0-1.82-.14-2.1 0-.42-.28-.84-.56-1.54l2.38-.7c.42.84.56 1.54.56 2.38 1.54-1.54 3.22-2.38 4.9-2.38.84 0 1.54.14 2.24.56s1.26.98 1.54 1.68c.28.56.42 1.12.42 1.82v11.76h-2.38v-10.5c0-1.26-.14-2.1-.56-2.52s-.98-.7-1.68-.7c-.56 0-1.4.28-2.24.7s-1.54.98-2.1 1.54v11.48h-2.38z"/><path clip-rule="evenodd" d="M152.04 15.96l1.26 1.68c.488-.293.908-.586 1.26-.83.153-.107.293-.205.42-.29 1.12-.42 2.1-.7 2.94-.7.98 0 1.54.28 2.1.84.42.28.56 1.12.56 2.38v1.12h-1.12c-2.52 0-4.62.42-6.02 1.4s-2.1 2.24-2.1 4.06c0 1.4.42 2.52 1.26 3.22.98.84 2.24 1.26 3.78 1.26s3.08-.7 4.48-2.1c.28 1.12.98 1.82 2.1 2.24l1.26-1.68c-.56-.28-.98-.7-1.12-1.26-.14-.42-.14-.98-.14-1.82v-.7l.14-5.04v-.84c0-1.26 0-2.1-.28-2.66-.7-1.54-2.1-2.38-4.34-2.38s-4.34.7-6.44 2.1zm8.82 5.88l-.14 4.06c-.84 1.54-2.1 2.38-3.78 2.52-1.82 0-2.66-.98-2.66-2.8 0-1.12.28-1.96.84-2.52.84-.84 2.24-1.26 4.48-1.26z" fill-rule="evenodd"/><path d="M171.08 14.28H175l-.7 1.96h-3.22v9.94c0 .84.14 1.4.42 1.82.28.28.84.56 1.54.56.56 0 1.12-.14 1.54-.28l.28 1.54c-.84.42-1.68.56-2.66.56-2.38 0-3.5-1.12-3.5-3.5V16.24h-2.1v-1.96h1.96V14c0-.28.14-1.4.28-3.22v-.42l2.52-.56c-.28 1.68-.28 3.22-.28 4.48z"/><path clip-rule="evenodd" d="M179.34 16.1c-1.26 1.4-1.82 3.36-1.82 5.88s.7 4.62 1.82 6.02c1.26 1.54 2.8 2.24 4.9 2.24 1.68 0 3.08-.56 4.2-1.54 1.54-1.4 2.38-3.64 2.38-6.44 0-2.38-.42-4.34-1.4-5.74-1.26-1.82-3.08-2.66-5.32-2.66-1.96 0-3.64.84-4.76 2.24zm4.9-.14c1.54 0 2.52.7 3.22 1.96.42.98.7 2.52.7 4.62 0 1.4-.14 2.52-.42 3.36-.56 1.54-1.68 2.38-3.36 2.38-1.4 0-2.38-.56-3.08-1.54s-.98-2.66-.98-5.04c0-1.82.14-3.22.7-4.06.7-1.12 1.68-1.68 3.22-1.68z" fill-rule="evenodd"/><path d="M195.44 17.92c0-1.4-.14-2.52-.56-3.36l2.38-.7c.42.84.56 1.54.56 2.38v.28c1.26-1.68 2.66-2.52 4.34-2.52.28 0 .56 0 .84.14l-.98 2.66c-.28-.14-.56-.14-.7-.14-.56 0-1.26.14-1.82.56s-1.12.84-1.4 1.4c-.14.42-.28.98-.28 1.68v9.66h-2.38z"/></g></svg>