<svg fill="none" height="50" viewBox="0 0 73 50" width="73" xmlns="http://www.w3.org/2000/svg"><g clip-rule="evenodd" fill="#212f4c" fill-rule="evenodd"><path d="M36.282.011H.01V12.02h12.008v24.766h12.258V12.019h12.007v24.766h36.274V24.157l-24.266-.018V12.02h24.266V.011H48.29V12.02H36.283zM25.776 45.71v3.583h2.001v-3.74c0-1.962-.696-3.181-2.472-3.181-.729 0-1.53.278-1.53.61v-3.17l-2.002.916v8.566h2.001v-3.622c0-1.206.252-1.578 1.007-1.578.756 0 .995.371.995 1.617zM5.012 41.789v7.505H3.011v-7.505H.009v-1.5h7.505v1.5zm8.123 4.503H8.973c.066 1 .769 1.46 1.432 1.46.504 0 .927-.112 1.193-.418l1.299 1.124c-.557.715-1.565 1.145-2.492 1.145-2.002 0-3.274-1.41-3.274-3.61 0-2.134 1.338-3.627 3.102-3.627 1.856 0 2.929 1.498 2.929 3.487 0 .266-.014.44-.027.44zm-4.135-1c.066-1.001.477-1.247 1.14-1.247.822 0 1.193.246 1.246 1.247zm8.523 4.33c-1.817 0-3.261-1.484-3.261-3.619s1.405-3.632 3.34-3.632c1.326 0 2.174.65 2.757 1.538l-1.206 1.22c-.41-.584-.848-.995-1.59-.995-.875 0-1.445.73-1.445 1.869 0 1.114.57 1.856 1.445 1.856.715 0 1.166-.318 1.644-.888l1.166 1.1c-.676.902-1.472 1.551-2.85 1.551zM70.054 45.71v3.766l.047-.182h1.955v-3.741c0-1.962-.695-3.181-2.472-3.181-.73 0-1.53.278-1.53.61v-3.17l-2.002.916v8.566h2.001v-3.622c0-1.206.253-1.578 1.007-1.578.756 0 .994.371.994 1.617zM33.39 41.894c.835 0 1.365.372 1.696 1.008l1.724-.797c-.583-1.205-1.643-2.054-3.394-2.054-2.425 0-4.122 1.962-4.122 4.785 0 2.93 1.631 4.786 4.057 4.786 1.683 0 2.797-.782 3.433-2.094l-1.564-.928c-.49.822-.98 1.18-1.817 1.18-1.391 0-2.2-1.273-2.2-2.943 0-1.723.795-2.943 2.187-2.943zm7.512 2.307c.411 0 .706.185.998.45l.508-1.789c-.238-.252-.657-.49-1.253-.49-.518 0-.762.177-1.093.416-.085.061-.175.126-.276.194v-.693h-2.001v7.005h2V45.71c0-1.206.402-1.511 1.117-1.511zm6.889 5.03v-.218c-.064.042-.124.083-.182.123-.402.274-.712.486-1.349.486-1.777 0-2.472-1.22-2.472-3.18v-4.152h1.501v3.992c0 1.246.489 1.617 1.245 1.617.754 0 1.257-.372 1.257-1.578v-4.032h2.001v7.005h-2.08zm7.255-3.52v3.583h2v-3.74c0-1.962-.57-3.181-2.346-3.181-.729 0-1.405.278-1.405.61v-.693h-2.002v7.005h2.001v-3.622c0-1.206.128-1.578.882-1.578.756 0 .87.371.87 1.617zm6.842 3.911c-1.816 0-3.26-1.484-3.26-3.619s1.405-3.632 3.34-3.632c1.326 0 2.174.65 2.757 1.538l-1.205 1.22c-.412-.584-.849-.995-1.59-.995-.876 0-1.446.73-1.446 1.869 0 1.114.57 1.856 1.445 1.856.715 0 1.167-.318 1.644-.888l1.166 1.1c-.677.902-1.472 1.551-2.85 1.551z"/></g></svg>