<svg fill="none" height="39" viewBox="0 0 171 39" width="171" xmlns="http://www.w3.org/2000/svg"><path clip-rule="evenodd" d="M26.154 17.342c2.223 0 3.714-1.301 3.714-4.093v-.355c0-2.745-1.112-3.81-3.312-5.442-1.798-1.348-2.437-2.082-2.437-3.761v-.095c0-1.42.686-2.13 1.893-2.13 1.183 0 1.94.592 1.94 2.296v.591h1.656v-.591C29.608 1.23 28.283 0 26.012 0c-2.177 0-3.573 1.349-3.573 3.714v.071c0 2.39 1.112 3.573 3.052 5.04 1.845 1.42 2.674 2.176 2.674 4.164v.33c0 1.68-.734 2.556-2.011 2.556-1.562 0-2.224-.852-2.224-2.768v-.568h-1.704v.568c0 2.72 1.396 4.235 3.928 4.235zm7.037-.213h1.774V.213h-1.774zm11.769 0h-6.388V.213h1.774v15.496h4.614zm3.039 0h1.774V.213H48zm13.662-4.117c0 3.076-1.727 4.33-4.093 4.33-2.745 0-4.377-1.775-4.377-4.921V4.945C53.191 1.75 54.965 0 57.521 0c2.294 0 4.045 1.16 4.045 4.117v.26H59.84V4.14c0-1.892-.828-2.673-2.295-2.673-1.656 0-2.531 1.183-2.531 3.478v7.452c0 2.224.757 3.454 2.555 3.454 1.443 0 2.46-.851 2.46-2.862v-.45h1.633zm7.274 4.33c2.697 0 4.424-1.775 4.424-4.921V4.85c0-3.1-1.727-4.85-4.424-4.85S64.51 1.75 64.51 4.874v7.594c0 3.1 1.728 4.874 4.425 4.874zm-2.626-4.898c0 2.2.828 3.407 2.626 3.407 1.75 0 2.602-1.301 2.602-3.43V4.874c0-2.082-.852-3.407-2.602-3.407-1.775 0-2.626 1.206-2.626 3.407zm10.397 4.685h1.608V3.549l4.566 13.58h1.846V.213H83.14v12.563L78.858.213h-2.153zM93.43.213l2.602 14.881L98.612.213h1.655l-3.075 16.916h-2.437L91.679.213zm14.916 16.916h1.75L107.115.213h-2.673l-3.005 16.916h1.68l.71-4.259h3.785zm-.97-5.63l-1.657-9.89-1.679 9.89zm5.499 5.63h6.388v-1.42h-4.613V.213h-1.775zm15.697 0h-6.388V.213h1.774v15.496h4.614zm2.92 0h6.79v-1.42h-5.015V8.777h3.832v-1.42h-3.832V1.633h4.708V.212h-6.483zm14.135 0h-1.821V9.747L140.351.213h1.869l2.508 7.405 2.461-7.405h1.656l-3.218 9.558zM0 38.637h4.755c3.17 0 4.85-1.136 4.85-4.259V33.29c0-2.153-1.112-3.194-2.91-3.549 1.538-.355 2.532-1.278 2.532-3.052v-1.183c0-2.579-1.49-3.785-4.566-3.785H0zm3.572-7.642v5.063h.852c1.088 0 1.562-.544 1.562-1.964v-1.206c0-1.538-.474-1.893-1.633-1.893zm0-2.437V24.3h.758c.946 0 1.443.26 1.443 1.537v1.065c0 1.254-.403 1.656-1.443 1.656zm14.68 5.465V21.721h3.667v12.42c0 3.289-1.846 4.756-4.969 4.756-3.146 0-4.92-1.49-4.92-4.78V21.722h3.643v12.326c0 1.396.331 1.893 1.301 1.893.899 0 1.277-.497 1.277-1.917zm10.704 4.874c3.005 0 4.684-1.538 4.684-4.613v-.332c0-3.235-1.648-4.281-3.599-5.519l-.139-.088c-1.467-.993-1.987-1.42-1.987-2.626v-.095c0-.946.331-1.324 1.017-1.324.64 0 1.089.307 1.089 1.514v.544h3.43v-.497c-.024-2.981-1.656-4.377-4.519-4.377-2.91 0-4.566 1.562-4.566 4.377v.095c0 2.791 1.16 4.045 3.36 5.441l.193.126c1.391.91 2.149 1.407 2.149 2.855v.19c0 1.088-.355 1.56-1.112 1.56-.875 0-1.23-.449-1.23-1.82v-.663H24.2v.544c.023 3.383 1.869 4.708 4.755 4.708zm10.917-.26h-3.667V21.72h3.667zm2.874 0h3.146V28.132l3.36 10.505h3.454V21.72h-3.17v9.037l-2.863-9.037h-3.927zm20.664 0H55.51V21.72h7.666v2.862h-4.022v3.786h3.17v2.72h-3.17v4.685h4.258zm6.801.26c3.005 0 4.685-1.538 4.685-4.613v-.332c0-3.235-1.649-4.281-3.6-5.519l-.138-.088c-1.467-.993-1.988-1.42-1.988-2.626v-.095c0-.946.331-1.324 1.018-1.324.638 0 1.088.307 1.088 1.514v.544h3.43v-.497c-.023-2.981-1.656-4.377-4.518-4.377-2.91 0-4.567 1.562-4.567 4.377v.095c0 2.791 1.16 4.045 3.36 5.441l.193.126c1.391.91 2.15 1.407 2.15 2.855v.19c0 1.088-.356 1.56-1.113 1.56-.875 0-1.23-.449-1.23-1.82v-.663h-3.525v.544c.023 3.383 1.869 4.708 4.755 4.708zm16.17-4.613c0 3.075-1.68 4.613-4.685 4.613-2.886 0-4.731-1.325-4.755-4.708v-.544h3.525v.662c0 1.372.355 1.822 1.23 1.822.757 0 1.112-.473 1.112-1.562v-.189c0-1.449-.758-1.944-2.149-2.855l-.193-.126c-2.2-1.396-3.36-2.65-3.36-5.441v-.095c0-2.815 1.657-4.377 4.567-4.377 2.862 0 4.495 1.396 4.519 4.377v.497h-3.43v-.544c0-1.207-.45-1.515-1.09-1.515-.685 0-1.017.38-1.017 1.325v.095c0 1.207.52 1.632 1.988 2.626l.139.088c1.95 1.238 3.599 2.283 3.599 5.52zm7.758 4.495c2.791 0 4.258-1.562 4.258-4.472V21.721h-3.667v12.42c0 1.183-.52 1.586-1.443 1.586-.497 0-.828-.071-1.112-.142v2.839c.426.189.994.355 1.964.355zm17.163-5.04c0 3.525-2.035 5.158-5.181 5.158-3.147 0-5.158-1.585-5.158-5.063V26.57c0-3.478 2.177-5.087 5.158-5.087 3.075 0 5.181 1.514 5.181 5.063zm-5.181 2.224c-.994 0-1.443-.615-1.443-2.153v-7.263c0-1.514.473-2.13 1.443-2.13.993 0 1.467.663 1.467 2.13v7.24c0 1.537-.474 2.176-1.467 2.176zm14.04-1.94V21.721h3.667v12.42c0 3.289-1.845 4.756-4.968 4.756-3.147 0-4.921-1.49-4.921-4.78V21.722h3.643v12.326c0 1.396.331 1.893 1.301 1.893.899 0 1.278-.497 1.278-1.917zm6.422 4.614h3.644v-7.05h.662l1.869 7.05h3.785l-2.223-7.618c1.112-.545 1.75-1.444 1.75-3.36v-1.727c0-2.815-1.325-4.211-4.873-4.211h-4.614zm3.644-14.124v4.731h.851c.994 0 1.444-.426 1.444-1.632V26.05c0-1.135-.426-1.537-1.444-1.537zm8.527 14.124h3.147V28.132l3.36 10.505h3.454V21.72h-3.17v9.037l-2.863-9.037h-3.928zm22.676 0h-3.691l-.473-3.454h-2.65l-.449 3.454h-3.336l2.674-16.916h5.228zm-5.489-13.675l.994 7.689h-1.987zM171 38.637h-7.452V21.72h3.643v14.006H171z" fill="#212f4c" fill-rule="evenodd"/></svg>