<svg fill="none" height="49" viewBox="0 0 205 49" width="205" xmlns="http://www.w3.org/2000/svg"><path d="M47.945 24.973c0 13.24-10.733 23.972-23.972 23.972C10.733 48.945 0 38.212 0 24.972 0 11.732 10.733 1 23.973 1c13.24 0 23.972 10.733 23.972 23.972z" fill="#212f4c"/><g clip-rule="evenodd" fill-rule="evenodd"><path d="M15.582 12.986H27.17a8.39 8.39 0 1 1 0 16.781h-6.792v7.192h-4.795zm4.795 11.986h6.792a3.596 3.596 0 0 0 0-7.191h-6.792z" fill="#fff"/><path d="M199.104 23.925v5.908h.001c0 2.048 1.105 3.13 3.2 3.13 1.25 0 2.051-.329 2.497-.73l-.634-2.282c-.167.188-.592.353-1.039.353-.659 0-1.035-.542-1.035-1.271v-5.108h2.306v-2.613h-2.306v-3.106h-2.99v3.106h-1.881v2.613zM63.927 16.982v15.981h3.342V27.08h4c3.392 0 5.274-2.307 5.274-5.037 0-2.754-1.86-5.06-5.274-5.06zm6.872 2.942c1.317 0 2.33.8 2.33 2.118 0 1.295-1.011 2.095-2.33 2.095h-3.53v-4.213zm7.776 13.04V21.311h2.987v1.53c.825-.989 2.214-1.812 3.626-1.812v2.918a3.847 3.847 0 0 0-.824-.07c-.989 0-2.307.565-2.802 1.295v7.79zm13.75-9.275c1.879 0 2.917 1.53 2.917 3.296 0 1.787-1.034 3.316-2.916 3.316-1.861 0-2.896-1.527-2.896-3.316 0-1.765 1.035-3.296 2.896-3.296zm-6.004 3.296c0-3.224 2.257-5.955 6.003-5.955 3.765 0 6.025 2.73 6.025 5.955s-2.26 5.978-6.026 5.978c-3.742 0-6.002-2.754-6.002-5.978zm22.086-2.001v4.023c-.495.755-1.578 1.294-2.566 1.294-1.716 0-2.894-1.34-2.894-3.316 0-1.954 1.177-3.296 2.894-3.296.989 0 2.071.542 2.566 1.295zm0 7.977V31.22c-.895 1.13-2.118 1.742-3.507 1.742-2.848 0-5.037-2.165-5.037-5.978 0-3.695 2.143-5.955 5.037-5.955 1.341 0 2.612.565 3.507 1.741v-5.787h3.012v15.981h-3.012zm13.659-1.716v1.718h2.99v-11.65h-2.99v7.696c-.518.66-1.436 1.294-2.589 1.294-1.271 0-2.095-.517-2.095-2.094v-6.895h-2.988v8.073c0 2.21 1.175 3.576 3.672 3.576a5.403 5.403 0 0 0 4-1.718zm5.234-4.26c0-3.484 2.541-5.955 6.025-5.955 2.331 0 3.743 1.012 4.496 2.048l-1.954 1.835c-.541-.8-1.365-1.224-2.398-1.224-1.813 0-3.083 1.318-3.083 3.295 0 1.977 1.27 3.317 3.083 3.317 1.035 0 1.859-.47 2.398-1.248l1.954 1.838c-.753 1.036-2.165 2.072-4.496 2.072-3.484 0-6.025-2.472-6.025-5.979zm13.091-3.06v5.908h-.002c0 2.048 1.106 3.13 3.201 3.13 1.249 0 2.05-.33 2.497-.73l-.636-2.282c-.163.188-.588.352-1.035.352-.659 0-1.035-.541-1.035-1.27v-5.108h2.305v-2.613h-2.305v-3.106h-2.99v3.106h-1.882v2.613zm24.44 9.038v-6.896h-7.415v6.896h-3.338V16.982h3.34v6.166h7.415v-6.166h3.365v15.981zm14.064-1.718v1.718h2.99v-11.65h-2.99v7.696c-.518.66-1.436 1.294-2.589 1.294-1.271 0-2.095-.517-2.095-2.094v-6.895h-2.988v8.073c0 2.211 1.175 3.576 3.672 3.576a5.403 5.403 0 0 0 4-1.718zm13.634 1.718v-7.155c0-1.577-.823-2.119-2.095-2.119-1.179 0-2.07.66-2.589 1.319v7.955h-2.988V21.312h2.988v1.46c.73-.848 2.142-1.742 3.979-1.742 2.518 0 3.715 1.412 3.715 3.624v8.31z" fill="#212f4c"/></g></svg>