<svg width="89" height="179" viewBox="0 0 89 179" fill="none" xmlns="http://www.w3.org/2000/svg"><path d="M73.746 169.873c-.005-20.778-.037-62.61-.042-83.557-10.385 10.873-22.56 23.9-22.56 24.23-.136 8.171-.067 31.051-.123 39.223-.01 1.383-.113 2.765-.211 5.035-2.243-1.551-4.13-2.503-5.505-3.943a5.896 5.896 0 0 1-1.176-3.765c-.067-13.386.014-26.772-.02-40.158a1819.54 1819.54 0 0 0-.272-28.737c-.117-6.451-3.022-11.173-8.884-14.207-7.548-3.909-12.079-10.056-12.376-18.76a21.598 21.598 0 0 1 40.437-11.251c4.806 8.582 3.572 20.244-3.63 27.068-.918.87-3.717 3.503-4.66 4.349-3.73 3.35-4.218 5.349-4.326 10.425.313 4.79.83 22.438.695 23.425 4.903-4.825 16.332-17.813 17.43-19.014 10.535-11.522 16.924-17.21 19.232-29.63C92.061 27.435 75.522 4.675 51.729.629 24.684-3.97-.272 17.262.002 44.68a45.287 45.287 0 0 0 8.364 25.739A86.984 86.984 0 0 0 23.52 87.404c3.127 2.657 3.48 5.026 1.344 8.495a38.874 38.874 0 0 1-2.723 3.766 8.338 8.338 0 0 0-1.182 9.11c.73 1.677 1.611 3.286 2.39 4.942 1.792 3.814 2.062 7.721-.338 11.28-2.408 3.569-2.385 6.649.422 9.951a15.583 15.583 0 0 1 2.219 4.523 9.803 9.803 0 0 1-1.674 10.277c-4.887 6.208-3.755 12.073 3.08 16.212 5.541 3.356 11.185 6.541 16.75 9.861a15.78 15.78 0 0 0 11.418 1.833 47.704 47.704 0 0 0 18.52-7.781" fill="#212F4C"/></svg>