<svg fill="none" height="106" viewBox="0 0 106 106" width="106" xmlns="http://www.w3.org/2000/svg"><g clip-rule="evenodd" fill-rule="evenodd"><path d="M52.75 105.5c29.133 0 52.75-23.617 52.75-52.75S81.883 0 52.75 0 0 23.617 0 52.75s23.617 52.75 52.75 52.75z" fill="#ebf2ff"/><path d="M25 39.318c0-1.327.982-2.449 2.298-2.624L47.5 34l20.202 2.694A2.648 2.648 0 0 1 70 39.318v17.396C70 70.446 60.768 82.462 47.5 86 34.232 82.462 25 70.446 25 56.714z" fill="#fff" stroke="#212f4c" stroke-linecap="round" stroke-linejoin="round" stroke-width="1.8"/><path d="M47 71c6.075 0 11-4.925 11-11s-4.925-11-11-11-11 4.925-11 11 4.925 11 11 11zM39 43.5h17z" fill="#ebf2ff"/></g><path d="M39 43.5h17" stroke="#212f4c" stroke-linecap="round" stroke-linejoin="round" stroke-width="2"/><path d="M71.913 53.826c9.34 0 16.913-7.572 16.913-16.913 0-9.34-7.572-16.913-16.913-16.913C62.573 20 55 27.572 55 36.913c0 9.34 7.572 16.913 16.913 16.913z" fill-rule="evenodd" clip-rule="evenodd" fill="#efabff" stroke="#212f4c" stroke-width="2" stroke-linecap="round" stroke-linejoin="round"/><path d="M73.921 39.637a5.265 5.265 0 1 0-5.265-9.12 5.265 5.265 0 0 0 5.265 9.12z" clip-rule="evenodd" stroke="#fff" stroke-width="2" stroke-linecap="round" stroke-linejoin="round"/><path d="M74.182 39.707l2.075 3.595" stroke="#fff" stroke-linecap="round" stroke-linejoin="round" stroke-width="2"/></svg>