<svg fill="none" height="106" viewBox="0 0 106 106" width="106" xmlns="http://www.w3.org/2000/svg"><path clip-rule="evenodd" d="M52.75 105.5c29.133 0 52.75-23.617 52.75-52.75S81.883 0 52.75 0 0 23.617 0 52.75s23.617 52.75 52.75 52.75z" fill="#ebf2ff" fill-rule="evenodd"/><rect fill="#ebf2ff" height="58" rx="8" stroke="#212f4c" stroke-linecap="round" stroke-linejoin="round" stroke-width="2" width="57" x="24.25" y="23.75"/><rect fill="#fff" height="58" rx="8" stroke="#212f4c" stroke-linecap="round" stroke-linejoin="round" stroke-width="2" width="45.5" x="24.25" y="23.75"/><g fill="#ebf2ff"><rect height="24" rx="6" width="39.5" x="27.25" y="27"/><rect height="24" rx="6" width="39.5" x="27.25" y="54.5"/><path clip-rule="evenodd" d="M41.705 61h10.59z" fill-rule="evenodd"/></g><path d="M41.705 61h10.59" stroke="#212f4c" stroke-linecap="round" stroke-linejoin="round" stroke-width="2"/><path clip-rule="evenodd" d="M41.705 32h10.59z" fill="#ebf2ff" fill-rule="evenodd"/><path d="M41.705 32h10.59" stroke="#212f4c" stroke-linecap="round" stroke-linejoin="round" stroke-width="2"/><path d="M74.663 45.326c9.34 0 16.913-7.572 16.913-16.913 0-9.34-7.572-16.913-16.913-16.913-9.34 0-16.913 7.572-16.913 16.913 0 9.34 7.572 16.913 16.913 16.913z" fill-rule="evenodd" clip-rule="evenodd" fill="#efabff" stroke="#212f4c" stroke-width="2" stroke-linecap="round" stroke-linejoin="round"/><path d="M68.156 27.162L72.994 32l8.386-8.386" stroke="#fff" stroke-linecap="round" stroke-linejoin="round" stroke-width="2"/></svg>