<svg fill="none" height="106" viewBox="0 0 106 106" width="106" xmlns="http://www.w3.org/2000/svg"><path clip-rule="evenodd" d="M52.75 105.5c29.133 0 52.75-23.617 52.75-52.75S81.883 0 52.75 0 0 23.617 0 52.75s23.617 52.75 52.75 52.75z" fill="#ebf2ff" fill-rule="evenodd"/><path d="M25 35a6 6 0 0 1 6-6h34.4a6 6 0 0 1 6 6v42.487l-9.931 8.284H31a6 6 0 0 1-6-6z" fill-rule="evenodd" clip-rule="evenodd" fill="#fff" stroke="#212f4c" stroke-width="1.8" stroke-linecap="round" stroke-linejoin="round"/><path clip-rule="evenodd" d="M40.105 66.89h14.19z" fill="#ebf2ff" fill-rule="evenodd"/><path d="M40.105 66.89h14.19" stroke="#212f4c" stroke-linecap="round" stroke-linejoin="round" stroke-width="2"/><path clip-rule="evenodd" d="M40.105 74.89h14.19z" fill="#ebf2ff" fill-rule="evenodd"/><path d="M40.105 74.89h14.19" stroke="#212f4c" stroke-linecap="round" stroke-linejoin="round" stroke-width="2"/><path clip-rule="evenodd" d="M47.2 59.153c5.94 0 10.756-4.816 10.756-10.756S53.14 37.64 47.2 37.64s-10.756 4.816-10.756 10.757c0 5.94 4.816 10.756 10.756 10.756z" fill="#ebf2ff" fill-rule="evenodd"/><g stroke-linecap="round" stroke-linejoin="round"><path d="M61.469 85.77v-5.543a3 3 0 0 1 3-3H71.4" stroke="#212f4c" stroke-width="1.8"/><path clip-rule="evenodd" d="M71.913 50.326c9.34 0 16.913-7.572 16.913-16.913 0-9.34-7.572-16.913-16.913-16.913C62.573 16.5 55 24.072 55 33.413c0 9.34 7.572 16.913 16.913 16.913z" fill="#efabff" fill-rule="evenodd" stroke="#212f4c" stroke-width="2"/><path clip-rule="evenodd" d="M72.265 35.53a4.265 4.265 0 1 0 0-8.53 4.265 4.265 0 0 0 0 8.53z" stroke="#fff" stroke-width="2"/><path d="M76.53 39.794a4.265 4.265 0 1 0-8.53 0" stroke="#fff" stroke-width="2"/></g></svg>