<?xml version="1.0" encoding="UTF-8"?>
<svg width="619px" height="409px" viewBox="0 0 619 409" version="1.1" xmlns="http://www.w3.org/2000/svg" xmlns:xlink="http://www.w3.org/1999/xlink">
    <!-- Generator: Sketch 55.1 (78136) - https://sketchapp.com -->
    <title>cover-img</title>
    <desc>Created with Sketch.</desc>
    <g id="Page-1" stroke="none" stroke-width="1" fill="none" fill-rule="evenodd">
        <g id="SD-desktop" transform="translate(-637.000000, -149.000000)">
            <g id="hero" transform="translate(182.000000, 149.000000)">
                <g id="cover-img" transform="translate(456.000000, 0.257862)">
                    <path d="M201.725941,229.894209 L144.779375,229.894209 C141.122419,229.894209 137.863446,231.598183 135.75312,234.25547 C135.660936,232.374536 135.471824,230.328401 135.174461,228.101114 C129.930711,188.824781 158.043036,186.675774 177.25009,186.675774 C196.457144,186.675774 176.804007,148.170458 185.217676,124.041068 C193.631345,99.911678 238.864149,72.927882 271.916159,100.143166 C304.968169,127.358449 301.971702,168.73093 275.262691,189.466384 C268.916315,194.393373 262.359308,198.05415 255.904842,200.857957 C253.287251,198.27885 251.716807,194.705649 251.716807,190.852217 L251.716807,171.808528 L223.981802,171.808528 L223.981802,191.218502 C223.981802,197.170469 220.231526,202.475108 214.62438,204.454261 L188.11808,213.810185 C180.794647,216.395136 175.262308,222.354743 173.146931,229.686536 L201.759447,229.71704 C201.748419,229.776114 201.737245,229.835172 201.725919,229.894209 Z M133.259375,273.535532 C125.871266,284.1408 112,277.263652 112,264.404563 C112,254.136945 127.107019,260.422078 133.259375,249.357618 L133.259375,273.535532 Z" id="Combined-Shape" stroke="#212F4C" stroke-width="1.8" fill="#212F4C" stroke-linejoin="round"></path>
                    <rect id="Rectangle" stroke="#212F4C" stroke-width="1.8" fill="#7E9ACE" stroke-linecap="round" stroke-linejoin="round" x="27" y="392.742138" width="550" height="15" rx="7.5"></rect>
                    <circle id="Oval" fill="#FFFFFF" cx="264.5" cy="150.242138" r="8.5"></circle>
                    <path d="M191.334864,212.742138 C205.033827,218.408805 220.185537,221.242138 236.789997,221.242138 C253.394457,221.242138 271.03553,218.408805 289.713218,212.742138 L299.130556,216.697084 L305.727742,222.709903 L309,229.742138 L173,229.742138 L174.640624,225.748532 L177.571945,220.763586 L182.840237,216.181511 L187.865774,213.738921 L191.334864,212.742138 Z" id="Path-16" fill="#EFABFF"></path>
                    <polygon id="Path-17" fill="#EFABFF" points="309 369.026307 330.429609 369.026307 336.159551 366.742138 339.246619 374.448375 345 380.577815 335.656606 384.931404 329.422259 391.742138 328.19404 391.742138 316.545873 380.672156"></polygon>
                    <polygon id="Path-18" fill="#EFABFF" points="156.443457 391.742138 167.93595 380.7169 177 368.742138 144.174888 368.790789 139 375.187724 144.174888 377.265183 150.235676 379.381106 154.54885 384.223829"></polygon>
                    <polygon id="Rectangle" fill="#EFABFF" points="196 368.742138 217 368.742138 214.318748 386.742138 196 386.742138"></polygon>
                    <polygon id="Rectangle-Copy-21" fill="#EFABFF" transform="translate(272.000000, 377.742138) scale(-1, 1) translate(-272.000000, -377.742138) " points="257 368.742138 287 368.742138 285.160894 386.742138 257 386.742138"></polygon>
                    <path d="M144.139445,368.591578 C142.74144,370.321783 141.028291,372.442017 139,374.95228 M156.323988,392.304204 L171.041741,376.517573 C173.289875,374.106168 175.201649,371.423968 176.739739,368.544862 M196.584092,368.6121 L196.584092,386.545843 M196.584092,392.304204 L286.80531,392.304204 M286.739825,386.545843 L286.571265,368.593224 M309.544289,368.401146 C311.713615,374.11739 315.245352,379.245801 319.860931,383.325643 L330.018495,392.304204 M345,379.449093 C341.174989,375.700757 338.208841,371.203117 336.2687,366.267938 M309.337602,229.680637 C306.987557,222.384553 301.232102,216.595694 293.80471,214.260837 L261.5672,204.126727 C255.727549,202.290988 251.754928,196.878506 251.754928,190.758036 L251.754928,171.742138 L224.025527,171.742138 L224.025527,191.123787 C224.025527,197.067068 220.276009,202.363966 214.669996,204.340231 L188.169052,213.682502 C180.847098,216.26368 175.315877,222.21459 173.200927,229.535684" id="Shape" stroke="#212F4C" stroke-width="1.8" stroke-linecap="round" stroke-linejoin="round"></path>
                    <circle id="Oval-Copy-3" fill="#FFFFFF" cx="211.5" cy="150.242138" r="8.5"></circle>
                    <rect id="Rectangle" stroke="#212F4C" stroke-width="1.8" fill="#FFFFFF" stroke-linecap="round" stroke-linejoin="round" x="213" y="111.742138" width="50" height="70" rx="25"></rect>
                    <path d="M217.558742,368.742138 L144.241768,368.742138 C138.033111,368.742138 133,363.713256 133,357.509815 L133,240.974462 C133,234.771021 138.033111,229.742138 144.241768,229.742138 L144.241768,229.742138 L329.758232,229.742138 C335.966889,229.742138 341,234.771021 341,240.974462 L341,357.509815 C341,363.713256 335.966889,368.742138 329.758232,368.742138 L256.757765,368.742138 L256.757765,368.742138" id="Path" stroke="#212F4C" stroke-width="1.8" stroke-linecap="round" stroke-linejoin="round"></path>
                    <circle id="Oval" stroke="#809BCE" stroke-width="1.8" stroke-linecap="round" stroke-linejoin="round" cx="236.5" cy="299.242138" r="12.5"></circle>
                    <polygon id="Rectangle" stroke="#212F4C" stroke-width="1.8" stroke-linecap="round" stroke-linejoin="round" points="219.675 348.742138 254.325 348.742138 259 392.742138 215 392.742138"></polygon>
                    <rect id="Rectangle" stroke="#212F4C" stroke-width="1.8" stroke-linecap="round" stroke-linejoin="round" x="181" y="386.742138" width="34" height="6"></rect>
                    <rect id="Rectangle-Copy-22" stroke="#212F4C" stroke-width="1.8" stroke-linecap="round" stroke-linejoin="round" x="259" y="386.742138" width="34" height="6"></rect>
                    <path d="M156,392.742138 C155.258602,384.225488 151.34369,379.139712 144.255266,377.484811 C133.622629,375.002459 132.087342,370.476735 128.662472,377.484811 C125.237602,384.492887 118,378.552798 118,392.742138 L156,392.742138 Z" id="Path-4" stroke="#212F4C" stroke-width="1.8" stroke-linecap="round" stroke-linejoin="round"></path>
                    <path d="M330,392.742138 C335.066683,384.742138 341.894602,380.742138 350.483756,380.742138 C359.072909,380.742138 364.911657,384.742138 368,392.742138 L330,392.742138 Z" id="Path-5" stroke="#212F4C" stroke-width="1.8" stroke-linecap="round" stroke-linejoin="round"></path>
                    <path d="M219.895483,119.636253 C232.303855,131.254788 246.314206,138.462274 261.926535,141.258709 C277.538864,144.055145 276.642484,134.719423 259.237396,113.251543 L235.169798,104.742138 L218,113.251543 L219.895483,119.636253 Z" id="Path-6" fill="#212F4C"></path>
                    <g id="Group-34" transform="translate(406.000000, 42.742138)">
                        <path d="M78.4310318,73.09011 C75.039748,80.3319515 68.1938225,85.8217501 59.6468333,87.1648429 C46.001886,89.30904 33.1885147,80.0725962 31.0273674,66.5346682 L27.8307477,46.5103012 C27.6380741,45.3033487 27.5365726,44.102954 27.5211872,42.9160217" id="Path" stroke="#212F4C" stroke-width="1.8" stroke-linecap="round" stroke-linejoin="round"></path>
                        <path d="M77.1309003,57.2424639 C78.088296,57.6236495 79.1330217,57.8339588 80.2266838,57.8352907 C84.8304842,57.8408645 88.5580783,54.1411146 88.5525045,49.5716617 C88.5469181,45.0022088 84.8102769,41.2934118 80.2064764,41.2878317" id="Path" stroke="#212F4C" stroke-width="1.8" stroke-linecap="round" stroke-linejoin="round" transform="translate(82.841702, 49.561561) rotate(-9.000000) translate(-82.841702, -49.561561) "></path>
                        <path d="M78.7497364,47.2497972 C84.8015919,31.0773479 82.8694535,22.9851138 72.9533211,22.9730948 C73.6461156,12.5691982 68.0340849,6.97444215 56.117229,6.18882657 C38.2419452,5.01040319 25.214729,20.9125679 13.3061375,13.5175353 C1.39754612,6.12250281 -1.84462247,40.3683201 24.5172021,40.4002723 C50.8790267,40.4322246 67.5894305,27.7653886 68.9524611,32.9496482 C70.3154917,38.1339078 63.7586825,57.4305844 68.9847431,59.3848617 C71.1104942,60.1797831 69.401291,52.2929119 71.3565105,49.1061241 C72.1893937,47.7486181 74.6538024,47.1298424 78.7497364,47.2497972 Z" id="Path-7" stroke="#212F4C" stroke-width="1.8" fill="#212F4C" stroke-linejoin="round" transform="translate(43.295912, 32.783445) rotate(-9.000000) translate(-43.295912, -32.783445) "></path>
                        <path d="M79.1718813,73.4740461 C74.5810553,80.7305088 69.3594269,85.0033619 63.5069963,86.2926054 C57.6545657,87.5818489 53.3872232,87.9756552 50.704969,87.4740244 L51.910183,98.0669675 C59.9892633,96.595414 65.8384505,94.1553443 69.4577445,90.7467584 C73.0770386,87.3381725 76.3150842,81.5806017 79.1718813,73.4740461 Z" id="Path-15" fill="#212F4C"></path>
                    </g>
                    <path d="M488,101.742138 L500.216097,143.106846 C501.032852,145.872445 503.12537,148.079197 505.843695,149.041662 L569.594538,171.613633 C581.557322,175.849242 590.406316,186.070536 592.885466,198.516515 L615.937834,314.245376 C617.831299,323.751065 614.484357,333.542352 607.168355,339.899981 L546.360565,392.742138 L507.221555,392.742138 L576.953608,318.302593 L542.53014,225.332528" id="Path-8" stroke="#212F4C" stroke-width="1.8" stroke-linecap="round" stroke-linejoin="round"></path>
                    <path d="M456.726278,130.742138 L458.426251,145.298011 C458.78355,148.357353 457.551503,151.386936 455.160438,153.328595 L421.049015,181.028684 C411.634165,188.673988 406.701647,200.545962 407.926919,212.611979 L420.313277,334.588147 L403,392.742138" id="Path-9" stroke="#212F4C" stroke-width="1.8" stroke-linecap="round" stroke-linejoin="round"></path>
                    <path d="M431,214.742138 C441.558857,276.459072 446.838286,321.089047 446.838286,348.632064 C446.838286,353.445664 439.263161,362.264626 443.050723,366.408738 C446.838286,370.55285 518.344496,372.526567 536,361.974879" id="Path-10" stroke="#212F4C" stroke-width="1.8" stroke-linecap="round" stroke-linejoin="round"></path>
                    <path d="M453,155.876833 C465.150019,170.829459 483.483352,168.784561 508,149.742138" id="Path-11" stroke="#212F4C" stroke-width="1.8" stroke-linecap="round" stroke-linejoin="round"></path>
                    <path d="M448,160.027088 C462.580023,177.783331 484.580023,175.355015 514,152.742138" id="Path-11-Copy" stroke="#212F4C" stroke-width="1.8" stroke-linecap="round" stroke-linejoin="round"></path>
                    <path d="M450,368.742138 L446,392.742138" id="Path-3" stroke="#212F4C" stroke-width="1.8" stroke-linecap="round" stroke-linejoin="round"></path>
                    <path d="M584.5,359.742138 L584.5,388.742138" id="Path-12" stroke="#212F4C" stroke-width="1.8" stroke-linecap="round" stroke-linejoin="round"></path>
                    <g id="Group-35" transform="translate(413.000000, 169.742138)" fill="#EFABFF">
                        <path d="M92.4191808,11.1459533 L100.103592,11.1459533 C101.797265,11.1459533 103.170259,12.5189467 103.170259,14.2126199 C103.170259,15.9062932 101.797265,17.2792866 100.103592,17.2792866 L92.4191808,17.2792866 C90.7255076,17.2792866 89.3525141,15.9062932 89.3525141,14.2126199 C89.3525141,12.5189467 90.7255076,11.1459533 92.4191808,11.1459533 Z" id="Rectangle" transform="translate(96.261386, 14.212620) rotate(-90.000000) translate(-96.261386, -14.212620) "></path>
                        <path d="M137.338546,33.6630922 L145.004972,33.6750599 C146.701726,33.6777086 148.076557,35.0525364 148.079211,36.7492896 C148.081854,38.4392043 146.714049,39.8112932 145.024135,39.8139361 C145.020947,39.813941 145.01776,39.813941 145.014573,39.8139361 L137.348147,39.8019683 C135.651394,39.7993196 134.276562,38.4244919 134.273908,36.7277387 C134.271266,35.037824 135.63907,33.665735 137.328984,33.6630922 C137.332172,33.6630872 137.335359,33.6630872 137.338546,33.6630922 Z" id="Rectangle-Copy-5" transform="translate(141.176560, 36.738514) rotate(-300.000000) translate(-141.176560, -36.738514) "></path>
                        <path d="M50.8810314,187.759624 L58.5114871,187.747691 C60.2044535,187.745043 61.5790202,189.115317 61.5816677,190.808284 C61.5816727,190.811477 61.5816727,190.81467 61.5816678,190.817863 C61.5790142,192.51768 60.2017039,193.894994 58.5018867,193.897652 L50.8714309,193.909586 C49.1784646,193.912233 47.8038979,192.541959 47.8012503,190.848993 C47.8012453,190.8458 47.8012453,190.842607 47.8012503,190.839414 C47.8039038,189.139596 49.1812142,187.762282 50.8810314,187.759624 Z" id="Rectangle-Copy-19" transform="translate(54.691459, 190.828638) rotate(-30.000000) translate(-54.691459, -190.828638) "></path>
                        <path d="M109.271536,114.621465 L116.901992,114.609532 C118.594959,114.606884 119.969525,115.977158 119.972173,117.670124 C119.972178,117.673317 119.972178,117.67651 119.972173,117.679704 C119.969519,119.379521 118.592209,120.756835 116.892392,120.759493 L109.261936,120.771426 C107.56897,120.774074 106.194403,119.4038 106.191755,117.710833 C106.19175,117.70764 106.19175,117.704447 106.191755,117.701254 C106.194409,116.001437 107.571719,114.624123 109.271536,114.621465 Z" id="Rectangle-Copy-6" transform="translate(113.081964, 117.690479) rotate(-30.000000) translate(-113.081964, -117.690479) "></path>
                        <path d="M174.306848,119.613876 L181.977435,119.602982 C183.667472,119.600582 185.039464,120.968683 185.041864,122.65872 C185.041868,122.66162 185.041868,122.664521 185.041864,122.667421 C185.03945,124.363681 183.664958,125.738167 181.968699,125.740576 L174.298113,125.751469 C172.608075,125.75387 171.236083,124.385769 171.233683,122.695732 C171.233679,122.692831 171.233679,122.689931 171.233683,122.687031 C171.236098,120.990771 172.610589,119.616284 174.306848,119.613876 Z" id="Rectangle-Copy-17" transform="translate(178.137774, 122.677226) rotate(-64.000000) translate(-178.137774, -122.677226) "></path>
                        <path d="M12.3209823,141.28856 L19.951438,141.276627 C21.6444044,141.273979 23.0189711,142.644253 23.0216187,144.33722 C23.0216236,144.340413 23.0216236,144.343606 23.0216187,144.346799 C23.0189652,146.046616 21.6416548,147.42393 19.9418376,147.426588 L12.3113818,147.438521 C10.6184155,147.441169 9.24384879,146.070895 9.2412012,144.377929 C9.24119621,144.374736 9.2411962,144.371543 9.24120119,144.368349 C9.24385469,142.668532 10.6211651,141.291218 12.3209823,141.28856 Z" id="Rectangle-Copy-7" transform="translate(16.131410, 144.357574) rotate(-30.000000) translate(-16.131410, -144.357574) "></path>
                        <path d="M50.8810314,86.7472399 L58.5114871,86.7353069 C60.2044535,86.7326593 61.5790202,88.1029334 61.5816677,89.7958997 C61.5816727,89.7990928 61.5816727,89.8022858 61.5816678,89.8054789 C61.5790142,91.5052961 60.2017039,92.8826103 58.5018867,92.8852686 L50.8714309,92.8972017 C49.1784646,92.8998493 47.8038979,91.5295752 47.8012503,89.8366088 C47.8012453,89.8334158 47.8012453,89.8302227 47.8012503,89.8270297 C47.8039038,88.1272125 49.1812142,86.7498982 50.8810314,86.7472399 Z" id="Rectangle-Copy-9" transform="translate(54.691459, 89.816254) scale(-1, 1) rotate(-30.000000) translate(-54.691459, -89.816254) "></path>
                        <path d="M132.937757,3.44570876 L140.568213,3.43377568 C142.261179,3.43112809 143.635746,4.8014022 143.638394,6.49436856 C143.638399,6.4975616 143.638399,6.50075465 143.638394,6.50394768 C143.63574,8.20376489 142.25843,9.58107915 140.558612,9.58373746 L132.928157,9.59567053 C131.23519,9.59831812 129.860624,8.22804402 129.857976,6.53507766 C129.857971,6.53188462 129.857971,6.52869157 129.857976,6.52549853 C129.86063,4.82568133 131.23794,3.44836706 132.937757,3.44570876 Z" id="Rectangle-Copy-15" transform="translate(136.748185, 6.514723) scale(-1, 1) rotate(-30.000000) translate(-136.748185, -6.514723) "></path>
                        <path d="M3.97052149,203.722963 L11.6009772,203.71103 C13.2939436,203.708383 14.6685103,205.078657 14.6711579,206.771623 C14.6711629,206.774816 14.6711629,206.778009 14.6711579,206.781202 C14.6685044,208.481019 13.291194,209.858334 11.5913768,209.860992 L3.96092106,209.872925 C2.2679547,209.875573 0.893388001,208.505299 0.890740414,206.812332 C0.89073542,206.809139 0.890735416,206.805946 0.8907404,206.802753 C0.89339391,205.102936 2.2707043,203.725622 3.97052149,203.722963 Z" id="Rectangle-Copy-13" transform="translate(7.780949, 206.791978) scale(-1, 1) rotate(-30.000000) translate(-7.780949, -206.791978) "></path>
                        <path d="M18.501738,20.0275169 L26.1321937,20.0155838 C27.8251601,20.0129362 29.1997268,21.3832103 29.2023744,23.0761767 C29.2023794,23.0793697 29.2023794,23.0825627 29.2023744,23.0857558 C29.1997209,24.785573 27.8224105,26.1628873 26.1225933,26.1655456 L18.4921376,26.1774786 C16.7991712,26.1801262 15.4246045,24.8098521 15.4219569,23.1168858 C15.4219519,23.1136927 15.4219519,23.1104997 15.4219569,23.1073066 C15.4246104,21.4074894 16.8019208,20.0301752 18.501738,20.0275169 Z" id="Rectangle-Copy-10" transform="translate(22.312166, 23.096531) scale(-1, 1) rotate(-30.000000) translate(-22.312166, -23.096531) "></path>
                        <path d="M155.65211,65.7151476 L163.282565,65.7032146 C164.975532,65.700567 166.350098,67.0708411 166.352746,68.7638074 C166.352751,68.7670005 166.352751,68.7701935 166.352746,68.7733866 C166.350093,70.4732038 164.972782,71.850518 163.272965,71.8531763 L155.642509,71.8651094 C153.949543,71.867757 152.574976,70.4974829 152.572329,68.8045165 C152.572324,68.8013235 152.572324,68.7981305 152.572329,68.7949374 C152.574982,67.0951202 153.952292,65.7178059 155.65211,65.7151476 Z" id="Rectangle-Copy-11" transform="translate(159.462537, 68.784162) scale(-1, 1) rotate(-30.000000) translate(-159.462537, -68.784162) "></path>
                        <path d="M83.2035364,67.4459343 L90.8339921,67.4340012 C92.5269585,67.4313536 93.9015252,68.8016277 93.9041728,70.4945941 C93.9041778,70.4977871 93.9041778,70.5009802 93.9041728,70.5041732 C93.9015193,72.2039904 92.5242089,73.5813047 90.8243917,73.583963 L83.193936,73.5958961 C81.5009696,73.5985436 80.1264029,72.2282695 80.1237553,70.5353032 C80.1237503,70.5321101 80.1237503,70.5289171 80.1237553,70.5257241 C80.1264088,68.8259069 81.5037192,67.4485926 83.2035364,67.4459343 Z" id="Rectangle-Copy-16" transform="translate(87.013964, 70.514949) scale(-1, 1) rotate(-30.000000) translate(-87.013964, -70.514949) "></path>
                        <path d="M56.895841,136.516095 L64.5131307,136.522977 C66.2134135,136.524514 67.5913804,137.902484 67.5929118,139.602767 C67.5944396,141.299089 66.2205373,142.675469 64.524215,142.676997 C64.5223678,142.676998 64.5205206,142.676998 64.5186735,142.676997 L56.9013838,142.670114 C55.201101,142.668578 53.8231342,141.290607 53.8216027,139.590325 C53.8200749,137.894002 55.1939773,136.517623 56.8902995,136.516095 C56.8921467,136.516093 56.8939939,136.516093 56.895841,136.516095 Z" id="Rectangle-Copy-18" transform="translate(60.707257, 139.596546) scale(-1, 1) rotate(-165.000000) translate(-60.707257, -139.596546) "></path>
                        <path d="M62.2213988,34.4351508 L69.8386884,34.442033 C71.5389712,34.4435692 72.9169381,35.82154 72.9184695,37.5218228 C72.9199974,39.2181451 71.546095,40.5945245 69.8497727,40.5960524 C69.8479256,40.5960541 69.8460784,40.5960541 69.8442312,40.5960524 L62.2269416,40.5891702 C60.5266588,40.5876339 59.1486919,39.2096632 59.1471605,37.5093804 C59.1456327,35.8130581 60.519535,34.4366786 62.2158573,34.4351508 C62.2177045,34.4351491 62.2195516,34.4351491 62.2213988,34.4351508 Z" id="Rectangle-Copy-20" transform="translate(66.032815, 37.515602) scale(-1, 1) rotate(-165.000000) translate(-66.032815, -37.515602) "></path>
                        <path d="M165.470596,175.519928 L173.101052,175.507995 C174.794019,175.505347 176.168585,176.875622 176.171233,178.568588 C176.171238,178.571781 176.171238,178.574974 176.171233,178.578167 C176.168579,180.277984 174.791269,181.655299 173.091452,181.657957 L165.460996,181.66989 C163.76803,181.672537 162.393463,180.302263 162.390815,178.609297 C162.39081,178.606104 162.39081,178.602911 162.390815,178.599718 C162.393469,176.899901 163.770779,175.522586 165.470596,175.519928 Z" id="Rectangle-Copy-8" transform="translate(169.281024, 178.588942) rotate(-30.000000) translate(-169.281024, -178.588942) "></path>
                        <path d="M6.55898618,73.5556874 L14.2074271,73.5694866 C15.9059518,73.572551 17.2821149,74.9487141 17.2851794,76.6472389 C17.2882296,78.3378619 15.9201815,79.7108553 14.2295584,79.7139055 C14.2258765,79.7139122 14.2221946,79.7139122 14.2185127,79.7139055 L6.57007181,79.7001064 C4.87154711,79.6970419 3.49538396,78.3208788 3.49231952,76.6223541 C3.48926933,74.931731 4.85731744,73.5587376 6.54794048,73.5556874 C6.55162238,73.5556808 6.55530429,73.5556808 6.55898618,73.5556874 Z" id="Rectangle-Copy-12" transform="translate(10.388749, 76.634796) rotate(-315.000000) translate(-10.388749, -76.634796) "></path>
                        <path d="M97.7154173,168.448223 L105.363858,168.462023 C107.062383,168.465087 108.438546,169.84125 108.44161,171.539775 C108.444661,173.230398 107.076613,174.603391 105.38599,174.606442 C105.382308,174.606448 105.378626,174.606448 105.374944,174.606442 L97.7265029,174.592642 C96.0279782,174.589578 94.6518151,173.213415 94.6487506,171.51489 C94.6457004,169.824267 96.0137485,168.451274 97.7043716,168.448223 C97.7080535,168.448217 97.7117354,168.448217 97.7154173,168.448223 Z" id="Rectangle-Copy-14" transform="translate(101.545181, 171.527332) rotate(-315.000000) translate(-101.545181, -171.527332) "></path>
                    </g>
                    <path d="M542.335487,224.742138 L577,317.852005 L537,359.742138 C549.670169,344.213369 556.336836,328.059201 557,311.279635 C557.663164,294.500069 552.774993,265.654237 542.335487,224.742138 Z" id="Path-13" fill="#212F4C"></path>
                    <path d="M430.845516,214.742138 C441.545628,284.053477 446.895684,328.750517 446.895684,348.83326 C446.895684,354.304896 439.21922,364.497884 443.057452,366.636647 C445.616274,368.062489 447.930456,368.77541 450,368.77541 L446.008737,392.742138 L425,392.742138 C432.408122,385.989544 436.574789,368.526704 437.5,340.353617 C438.425211,312.18053 436.20705,270.310037 430.845516,214.742138 Z" id="Path-14" fill="#212F4C"></path>
                    <path d="M224,178.742138 L233.658443,182.722539 L241.129962,182.146339 L249,179.90307 C241.469923,187.61348 233.13659,190.792179 224,189.439166 L224,178.742138 Z" id="Path-19" fill="#212F4C"></path>
                    <path d="M125,353.742138 C86.1849757,308.769834 125,276.187252 69.6880508,265.325071 C14.3761015,254.462889 3.9210712,239.718009 0,157.742138" id="Path-20" stroke="#809BCE" stroke-width="1.8" stroke-linecap="round" stroke-linejoin="round"></path>
                    <circle id="Oval" stroke="#809BCE" stroke-width="1.8" stroke-linecap="round" stroke-linejoin="round" cx="43.5" cy="320.242138" r="8.5"></circle>
                    <circle id="Oval-Copy-6" stroke="#809BCE" stroke-width="1.8" stroke-linecap="round" stroke-linejoin="round" cx="195" cy="57.7421384" r="6"></circle>
                    <circle id="Oval-Copy-7" stroke="#809BCE" stroke-width="1.8" stroke-linecap="round" stroke-linejoin="round" cx="424" cy="31.7421384" r="6"></circle>
                    <rect id="Rectangle" stroke="#809BCE" stroke-width="1.8" stroke-linecap="round" stroke-linejoin="round" x="381" y="333.742138" width="8" height="8"></rect>
                    <rect id="Rectangle-Copy-33" stroke="#809BCE" stroke-width="1.8" stroke-linecap="round" stroke-linejoin="round" x="574" y="130.742138" width="11" height="11"></rect>
                    <rect id="Rectangle-Copy-34" stroke="#809BCE" stroke-width="1.8" stroke-linecap="round" stroke-linejoin="round" x="38" y="182.742138" width="11" height="11"></rect>
                    <path d="M349,350.742138 C376.658848,287.498055 363.891254,268.384231 414.185221,268.384231 C464.479187,268.384231 493.766036,243.968028 505.297193,161.355083 C512.984631,106.279787 535.552233,78.7421384 573,78.7421384" id="Path-21" stroke="#809BCE" stroke-width="1.8" stroke-linecap="round" stroke-linejoin="round"></path>
                    <path d="M335.926945,211.742138 C348.740237,182.170716 309.87031,145.150773 345.398783,112.032935 C369.084432,89.954376 373.291666,56.8574439 358.020485,12.7421384" id="Path-22" stroke="#809BCE" stroke-width="1.8" stroke-linecap="round" stroke-linejoin="round"></path>
                    <path d="M92,157.742138 L92,243.742138 L133,243.742138" id="Path-27" stroke="#809BCE" stroke-width="1.8" stroke-linecap="round" stroke-linejoin="round" stroke-dasharray="2.7,5.4"></path>
                    <g id="Group-41-Copy" transform="translate(67.000000, 91.742138)" stroke="#212F4C" stroke-linecap="round" stroke-linejoin="round" stroke-width="1.8">
                        <polygon id="Rectangle" fill="#FFFFFF" points="-1.84741111e-13 9.9475983e-14 66.4173913 9.9475983e-14 66.4173913 69.5165782 53.3298148 80.487409 -1.84741111e-13 80.487409"></polygon>
                        <polyline id="Path-26" points="53.3298148 80.487409 53.3298148 69.1712986 66.4173913 69.1712986"></polyline>
                    </g>
                    <g id="Group-41" transform="translate(58.000000, 84.742138)" stroke="#212F4C" stroke-linecap="round" stroke-linejoin="round" stroke-width="1.8">
                        <polygon id="Rectangle" fill="#FFFFFF" points="-1.84741111e-13 9.9475983e-14 66.4173913 9.9475983e-14 66.4173913 69.5165782 53.3298148 80.487409 -1.84741111e-13 80.487409"></polygon>
                        <polyline id="Path-26" points="53.3298148 80.487409 53.3298148 69.1712986 66.4173913 69.1712986"></polyline>
                    </g>
                    <g id="Group-36" transform="translate(48.000000, 77.742138)" stroke-linecap="round" stroke-linejoin="round" stroke-width="1.8">
                        <g id="Group-41" stroke="#212F4C">
                            <polygon id="Rectangle" fill="#FFFFFF" points="-1.84741111e-13 9.9475983e-14 66.4173913 9.9475983e-14 66.4173913 69.5165782 53.3298148 80.487409 -1.84741111e-13 80.487409"></polygon>
                            <polyline id="Path-26" points="53.3298148 80.487409 53.3298148 69.1712986 66.4173913 69.1712986"></polyline>
                        </g>
                        <path d="M11.9990239,10.9789157 L54.4183674,10.9789157" id="Path-24" stroke="#809BCE"></path>
                        <path d="M11.9990239,69.1712986 L19.4618457,69.1712986" id="Path-24-Copy-4" stroke="#809BCE"></path>
                        <path d="M11.9990239,19.7620482 L28.2009761,19.7620482" id="Path-24-Copy" stroke="#809BCE"></path>
                        <path d="M38.2164152,19.7620482 L54.4183674,19.7620482" id="Path-24-Copy-2" stroke="#809BCE"></path>
                        <path d="M11.9990239,28.5451807 L39.5618457,28.5451807" id="Path-24-Copy-3" stroke="#809BCE"></path>
                    </g>
                    <g id="Group-36-Copy" transform="translate(268.000000, 0.742138)" stroke-linecap="round" stroke-linejoin="round" stroke-width="1.8">
                        <polygon id="Rectangle" stroke="#212F4C" fill="#FFFFFF" points="0 0 49.4117647 0 49.4117647 50.7665992 39.6751545 58.7783827 0 58.7783827"></polygon>
                        <path d="M17.7503019,38.582457 L31.6614628,38.582457" id="Path-24" stroke="#809BCE"></path>
                        <ellipse id="Oval" stroke="#212F4C" fill="#7E9ACE" cx="24.7058824" cy="20.6951033" rx="10.5453876" ry="10.40363"></ellipse>
                        <polyline id="Path-26" stroke="#212F4C" points="39.6751545 58.7783827 39.6751545 50.5144483 49.4117647 50.5144483"></polyline>
                    </g>
                    <g id="Group-37" transform="translate(341.000000, 111.742138)" stroke="#212F4C" stroke-linecap="round" stroke-linejoin="round" stroke-width="1.8">
                        <polyline id="Path-25" points="75.6967486 50.1360283 80.4644536 2.01391545 23.7441947 2.01391545"></polyline>
                        <polygon id="Path-23" fill="#FFFFFF" points="11.4669186 50.1360283 75.6967486 50.1360283 65.3155305 7.06153846 26.2785305 7.06153846 22.9967225 0 0 0.21049849"></polygon>
                    </g>
                    <path d="M386,161.742138 L386,252.742138 L341,252.742138" id="Path-28" stroke="#809BCE" stroke-width="1.8" stroke-linecap="round" stroke-linejoin="round" stroke-dasharray="2.7,5.4"></path>
                    <path d="M293,60.7421384 L293,83.7208348 L318,83.7208348 L318,229.742138" id="Path-29" stroke="#809BCE" stroke-width="1.8" stroke-linecap="round" stroke-linejoin="round" stroke-dasharray="2.7,5.4"></path>
                </g>
            </g>
        </g>
    </g>
</svg>