<svg fill="none" height="409" viewBox="0 0 620 409" width="620" xmlns="http://www.w3.org/2000/svg"><path clip-rule="evenodd" d="m272.916 100.401c-33.052-27.2153-78.285-.231-86.698 23.898-3.665 10.511-2.005 23.749-.55 35.344 1.884 15.025 3.423 27.291-7.418 27.291-19.207 0-47.319 2.149-42.076 41.425.231 1.728.397 3.346.502 4.864 2.268-2.443 5.507-3.971 9.103-3.971h57.108c.169-1.004.304-2.009.436-2.998.617-4.607 1.188-8.871 4.965-11.099 3.715-2.191 9.739-3.432 17.129-4.954 14.148-2.913 33.302-6.856 50.846-20.477 26.709-20.735 29.705-62.108-3.347-89.323zm-136.109 135.588c.116 5.071-.519 8.855-1.648 11.714v24.652c.36-.64.7-1.331 1.015-2.073.574-1.349 1.104-2.659 1.616-3.926 5.326-13.168 8.781-21.71 40.46-21.71 18.451 0 22.719-6.522 24.29-13.594h-56.761c-3.774 0-7.089 1.969-8.972 4.937zm-15.249 21.392c4.074-.98 8.717-2.097 11.801-6.35v23.933c-7.557 8.885-20.359 2.052-20.359-10.302 0-5.222 3.908-6.162 8.558-7.281z" fill="#212f4c" fill-rule="evenodd"/><path d="m186.218 124.299.849.296zm86.698-23.898-.572.695zm-87.248 59.242.893-.112zm-49.494 68.716-.892.119zm.502 4.864-.897.062c.024.358.259.667.598.786.338.12.715.027.959-.236zm66.211-3.971v.9c.44 0 .815-.317.888-.751zm.436-2.998-.888-.148c-.001.01-.003.019-.004.029zm0 0 .888.148c.002-.01.003-.019.004-.029zm4.965-11.099.457.775zm17.129-4.954.182.882zm50.846-20.477-.552-.711zm-141.104 57.979-.837-.331c-.041.106-.063.218-.063.331zm1.648-11.714-.76-.483c-.096.15-.144.325-.14.503zm-1.648 36.366h-.9c0 .409.276.767.672.871.396.103.812-.073 1.013-.43zm1.015-2.073-.828-.352zm1.616-3.926-.834-.337zm64.75-35.304.879.195c.059-.266-.006-.545-.177-.758s-.429-.337-.702-.337zm-69.181 19.979h.9c0-.39-.251-.736-.622-.856-.371-.121-.777.012-1.006.327zm-11.801 6.35-.21-.875zm11.801 17.583.686.583c.138-.163.214-.37.214-.583zm53.708-150.369c4.098-11.75 17.268-24.367 33.584-30.6596 16.269-6.2741 35.477-6.1916 51.693 7.1606l1.144-1.3898c-16.836-13.8632-36.77-13.8964-53.484-7.4502-16.667 6.4276-30.32 19.368-34.636 31.747zm-.506 34.936c-1.462-11.657-3.075-24.664.506-34.936l-1.699-.592c-3.748 10.749-2.04 24.218-.593 35.752zm-8.311 28.303c2.889 0 5.082-.824 6.642-2.423 1.536-1.576 2.348-3.791 2.729-6.356.757-5.096-.125-12.064-1.06-19.524l-1.786.224c.948 7.564 1.778 14.242 1.066 19.035-.354 2.38-1.073 4.17-2.238 5.364-1.141 1.17-2.821 1.88-5.353 1.88zm-41.183 40.406c-1.298-9.719-.52-17.057 1.609-22.601 2.123-5.528 5.61-9.329 9.842-11.957 8.528-5.294 20.109-5.848 29.732-5.848v-1.8c-9.583 0-21.663.52-30.681 6.119-4.542 2.819-8.3 6.92-10.574 12.841-2.267 5.905-3.037 13.565-1.713 23.484zm.507 4.92c-.107-1.538-.275-3.175-.507-4.92l-1.785.238c.229 1.711.392 3.311.497 4.807zm8.205-4.808c-3.856 0-7.331 1.64-9.762 4.258l1.319 1.225c2.105-2.267 5.108-3.683 8.443-3.683zm57.108 0h-57.108v1.8h57.108zm-.456-2.217c-.133.991-.265 1.981-.431 2.968l1.775.298c.172-1.021.308-2.041.44-3.028zm.005-.029h-.001l1.776.296zm5.395-11.726c-2.115 1.247-3.314 3.066-4.057 5.127-.731 2.028-1.038 4.348-1.343 6.627l1.784.239c.312-2.327.599-4.443 1.252-6.256.641-1.778 1.615-3.206 3.278-4.187zm17.405-5.06c-3.688.759-7.07 1.455-9.994 2.238-2.919.78-5.448 1.663-7.411 2.822l.914 1.55c1.751-1.033 4.092-1.866 6.962-2.634 2.864-.766 6.189-1.451 9.892-2.213zm50.475-20.307c-17.362 13.479-36.323 17.393-50.475 20.307l.363 1.763c14.143-2.912 33.489-6.886 51.216-20.648zm-3.367-87.917c32.632 26.869 29.594 67.556 3.367 87.917l1.104 1.422c27.19-21.109 30.145-63.168-3.327-90.7288zm-136.348 146.937c1.186-3.002 1.828-6.914 1.71-12.065l-1.799.041c.114 4.991-.512 8.648-1.585 11.363zm.063 24.322v-24.652h-1.8v24.652zm-.713-2.425c-.303.713-.628 1.374-.971 1.984l1.569.882c.377-.67.731-1.391 1.059-2.162zm1.61-3.911c-.513 1.268-1.04 2.57-1.61 3.911l1.657.704c.577-1.357 1.11-2.674 1.622-3.94zm41.294-22.273c-15.88 0-24.898 2.133-30.623 6.076-5.746 3.958-8.024 9.653-10.671 16.197l1.669.675c2.679-6.625 4.791-11.785 10.023-15.39 5.255-3.619 13.803-5.758 29.602-5.758zm23.412-12.889c-.76 3.417-2.138 6.572-5.455 8.908-3.352 2.362-8.816 3.981-17.957 3.981v1.8c9.31 0 15.206-1.641 18.993-4.309 3.823-2.692 5.364-6.335 6.176-9.99zm-55.883 1.095h56.761v-1.8h-56.761zm-8.213 4.519c1.726-2.718 4.76-4.519 8.213-4.519v-1.8c-4.095 0-7.691 2.138-9.732 5.354zm-4.935 14.031c-2.864 3.949-7.171 5.015-11.283 6.004l.421 1.75c4.034-.971 9.014-2.139 12.319-6.697zm1.628 24.462v-23.933h-1.8v23.933zm-22.159-10.302c0 6.493 3.37 11.609 7.833 13.915 4.499 2.325 10.049 1.746 14.112-3.03l-1.371-1.166c-3.495 4.108-8.124 4.556-11.915 2.597-3.828-1.978-6.859-6.454-6.859-12.316zm9.248-8.156c-2.276.548-4.591 1.093-6.308 2.226-.884.583-1.633 1.333-2.154 2.33-.52.994-.786 2.181-.786 3.6h1.8c0-1.192.222-2.08.581-2.766.357-.683.875-1.217 1.55-1.662 1.399-.922 3.363-1.407 5.738-1.978z" fill="#212f4c"/><rect fill="#7e9ace" height="15" rx="7.5" stroke="#212f4c" stroke-linecap="round" stroke-linejoin="round" stroke-width="1.8" width="550" x="28" y="393"/><path clip-rule="evenodd" d="m265.5 159c4.694 0 8.5-3.806 8.5-8.5s-3.806-8.5-8.5-8.5-8.5 3.806-8.5 8.5 3.806 8.5 8.5 8.5z" fill="#fff" fill-rule="evenodd"/><path clip-rule="evenodd" d="m192.335 213s20.548 8.5 45.455 8.5 52.923-8.5 52.923-8.5l9.418 3.955 6.597 6.013 3.272 7.032h-136l1.641-3.994 2.931-4.985 5.268-4.582 5.026-2.442z" fill="#efabff" fill-rule="evenodd"/><path clip-rule="evenodd" d="m310 369.284h21.43l5.73-2.284 3.087 7.706 5.753 6.13-9.343 4.353-6.235 6.811h-1.228l-11.648-11.07z" fill="#efabff" fill-rule="evenodd"/><path clip-rule="evenodd" d="m157.443 392 11.493-11.025 9.064-11.975-32.825.049-5.175 6.397 5.175 2.077 6.061 2.116 4.313 4.843z" fill="#efabff" fill-rule="evenodd"/><path clip-rule="evenodd" d="m197 369h21l-2.681 18h-18.319z" fill="#efabff" fill-rule="evenodd"/><path clip-rule="evenodd" d="m288 369h-30l1.839 18h28.161z" fill="#efabff" fill-rule="evenodd"/><path d="m145.839 369.415-.7-.566zm-.134-1.266-.566.7zm-5.005 7.627.7.565zm-1.266.134-.565.7zm-.134-1.265-.7-.566zm5.139-6.361.7.565zm34.095.943.793.424zm-.37-1.218-.424.794zm-5.464 9.38.658.614zm-14.718 15.787.659.614zm-1.272.044.614-.658zm-.044-1.272.658.614zm14.717-15.786.659.613zm5.563-7.783.794.424zm111.525.464-.9.008zm-.908-.892.008.9zm1.077 18.844.9-.008zm-.892.909-.008-.9zm-.908-.892-.9.009zm-.169-17.952.9-.009zm24.715-.52-.842.319zm-1.161-.522.319.841zm11.232 15.091.596-.674zm10.158 8.979-.596.674zm.078 1.27-.674-.596zm-1.271.078.597-.674zm-10.157-8.978-.596.674zm-10.562-15.28.841-.319zm28.403-2.781.838-.33zm-1.167-.509.33.838zm9.691 13.376.63-.643zm-1.26 1.286.63-.643zm-8.939-13.495.838-.329zm-73.594-163.329-.27.859zm32.238 10.134-.27.859zm16.119 16.003.857-.276zm-.58 1.132-.276-.857zm-1.133-.581.857-.276zm-14.946-14.837.27-.858zm-32.238-10.134-.27.859zm-10.442-32.343h.9c0-.497-.403-.9-.9-.9zm-25.929 0v-.9c-.498 0-.9.403-.9.9zm-9.957 32.547-.299-.849zm-26.501 9.342-.299-.849zm-14.402 15.254.864.25zm-1.115.615-.25.865zm-.615-1.114-.864-.25zm15.534-16.452.299.848zm26.501-9.343-.299-.849zm-68.831 166.232c.624-.774.504-1.907-.269-2.532l-1.132 1.4zm-5.14 6.36 5.14-6.36-1.401-1.132-5.139 6.361zm-2.531.269c.773.625 1.906.505 2.531-.269l-1.4-1.131zm-.269-2.531c-.625.773-.505 1.906.269 2.531l1.131-1.4zm5.139-6.361-5.139 6.361 1.4 1.131 5.139-6.361zm2.532-.269c-.774-.624-1.907-.504-2.532.269l1.4 1.131zm33.056 2.202c.469-.877.138-1.967-.739-2.436l-.848 1.588zm-5.969 8.352c2.355-2.526 4.358-5.336 5.969-8.352l-1.587-.848c-1.538 2.879-3.45 5.561-5.698 7.972zm-14.717 15.787 14.717-15.787-1.316-1.228-14.718 15.787zm-2.544.089c.727.678 1.866.638 2.544-.089l-1.317-1.228zm-.09-2.544c-.677.727-.638 1.866.09 2.544l1.227-1.317zm14.718-15.787-14.718 15.787 1.317 1.227 14.718-15.787zm5.427-7.593c-1.465 2.742-3.286 5.296-5.427 7.593l1.317 1.227c2.248-2.411 4.16-5.093 5.698-7.972zm2.436-.74c-.877-.468-1.967-.137-2.436.74l1.588.848zm20.796 1.655c0-.994-.806-1.8-1.8-1.8v1.8zm0 17.934v-17.934h-1.8v17.934zm-1.8 1.8c.994 0 1.8-.806 1.8-1.8h-1.8zm-1.8-1.8c0 .994.806 1.8 1.8 1.8v-1.8zm0-17.934v17.934h1.8v-17.934zm1.8-1.8c-.994 0-1.8.806-1.8 1.8h1.8zm0 23.692c-.994 0-1.8.806-1.8 1.8h1.8zm90.221 0h-90.221v1.8h90.221zm1.8 1.8c0-.994-.806-1.8-1.8-1.8v1.8zm-1.8 1.8c.994 0 1.8-.806 1.8-1.8h-1.8zm-90.221 0h90.221v-1.8h-90.221zm-1.8-1.8c0 .994.806 1.8 1.8 1.8v-1.8zm93.587-23.728c-.009-.994-.823-1.792-1.817-1.783l.017 1.8zm.169 17.953-.169-17.953-1.8.017.169 17.953zm-1.783 1.817c.994-.01 1.792-.823 1.783-1.817l-1.8.017zm-1.817-1.783c.009.994.823 1.792 1.817 1.783l-.017-1.8zm-.169-17.953.169 17.953 1.8-.017-.169-17.953zm1.783-1.817c-.994.01-1.792.823-1.783 1.817l1.8-.017zm24.673.969c-.353-.929-1.392-1.397-2.321-1.044l.638 1.683zm9.826 14.215c-4.396-3.886-7.76-8.77-9.826-14.215l-1.683.639c2.17 5.716 5.701 10.845 10.317 14.925zm10.158 8.978-10.158-8.978-1.192 1.349 10.158 8.978zm.156 2.541c.659-.745.588-1.882-.156-2.541l-1.192 1.349zm-2.541.157c.745.658 1.883.588 2.541-.157l-1.348-1.192zm-10.157-8.979 10.157 8.979 1.193-1.349-10.158-8.978zm-10.808-15.634c2.273 5.988 5.973 11.36 10.808 15.634l1.192-1.348c-4.616-4.08-8.147-9.209-10.317-14.925zm1.045-2.322c-.93.353-1.397 1.392-1.045 2.322l1.683-.639zm29.038-1.109c-.364-.925-1.409-1.38-2.334-1.016l.659 1.675zm8.316 12.554c-3.643-3.57-6.468-7.853-8.316-12.554l-1.675.659c1.94 4.935 4.906 9.433 8.731 13.181zm.026 2.546c.695-.71.684-1.85-.026-2.546l-1.26 1.286zm-2.546.026c.71.695 1.85.684 2.546-.026l-1.286-1.26zm-9.146-13.809c2.032 5.17 5.139 9.882 9.146 13.809l1.26-1.286c-3.825-3.748-6.791-8.246-8.731-13.181zm1.016-2.333c-.925.363-1.38 1.408-1.016 2.333l1.675-.658zm-111.584-194.651c-.995 0-1.8.806-1.8 1.8h1.8zm27.729 0h-27.729v1.8h27.729zm1.8 1.8c0-.994-.806-1.8-1.8-1.8v1.8zm0 19.016v-19.016h-1.8v19.016zm8.552 11.651c-5.09-1.6-8.552-6.317-8.552-11.651h-1.8c0 6.12 3.973 11.533 9.812 13.369zm32.238 10.135-32.238-10.135-.54 1.718 32.238 10.134zm16.706 16.585c-2.528-7.848-8.718-14.074-16.706-16.585l-.54 1.717c7.427 2.335 13.183 8.123 15.533 15.419zm-1.162 2.265c.947-.305 1.467-1.319 1.162-2.265l-1.713.551zm-2.265-1.162c.305.947 1.319 1.467 2.265 1.162l-.551-1.714zm-14.359-14.254c6.866 2.158 12.187 7.51 14.359 14.254l1.714-.552c-2.35-7.296-8.106-13.084-15.533-15.419zm-32.238-10.134 32.238 10.134.54-1.717-32.238-10.134zm-11.072-15.086c0 6.907 4.483 13.014 11.072 15.086l.54-1.717c-5.839-1.836-9.812-7.249-9.812-13.369zm0-18.116v18.116h1.8v-18.116zm-25.029.9h25.929v-1.8h-25.929zm.9 17.582v-18.482h-1.8v18.482zm-10.558 14.914c6.326-2.23 10.558-8.208 10.558-14.914h-1.8c0 5.943-3.75 11.24-9.356 13.216zm-26.5 9.342 26.5-9.342-.598-1.698-26.501 9.342zm-13.838 14.655c1.955-6.768 7.069-12.269 13.838-14.655l-.599-1.698c-7.322 2.582-12.853 8.532-14.968 15.854zm-2.229 1.23c.955.276 1.953-.275 2.229-1.23l-1.729-.499zm-1.229-2.229c-.276.955.274 1.953 1.229 2.229l.5-1.729zm16.099-17.051c-7.876 2.776-13.825 9.177-16.099 17.051l1.729.5c2.115-7.322 7.646-13.272 14.968-15.854zm26.501-9.343-26.501 9.343.598 1.697 26.501-9.342zm8.154-11.518c0 5.179-3.268 9.796-8.154 11.518l.598 1.698c5.606-1.976 9.356-7.273 9.356-13.216zm0-19.382v19.382h1.8v-19.382z" fill="#212f4c"/><path clip-rule="evenodd" d="m212.5 159c4.694 0 8.5-3.806 8.5-8.5s-3.806-8.5-8.5-8.5-8.5 3.806-8.5 8.5 3.806 8.5 8.5 8.5z" fill="#fff" fill-rule="evenodd"/><rect fill="#fff" height="70" rx="25" stroke="#212f4c" stroke-linecap="round" stroke-linejoin="round" stroke-width="1.8" width="50" x="214" y="112"/><path d="m218.559 369h-73.317c-6.209 0-11.242-5.029-11.242-11.232v-116.536c0-6.203 5.033-11.232 11.242-11.232h185.516c6.209 0 11.242 5.029 11.242 11.232v116.536c0 6.203-5.033 11.232-11.242 11.232h-73" stroke="#212f4c" stroke-linecap="round" stroke-linejoin="round" stroke-width="1.8"/><path d="m237.5 312c6.904 0 12.5-5.596 12.5-12.5s-5.596-12.5-12.5-12.5-12.5 5.596-12.5 12.5 5.596 12.5 12.5 12.5z" style="fill-rule:evenodd;clip-rule:evenodd;stroke:#809bce;stroke-width:1.8;stroke-linecap:round;stroke-linejoin:round"/><path d="m220.675 349h34.65l4.675 44h-44z" style="fill-rule:evenodd;clip-rule:evenodd;stroke:#212f4c;stroke-width:1.8;stroke-linecap:round;stroke-linejoin:round"/><path d="m182 387h34v6h-34z" stroke="#212f4c" stroke-linecap="round" stroke-linejoin="round" stroke-width="1.8"/><path d="m260 387h34v6h-34z" stroke="#212f4c" stroke-linecap="round" stroke-linejoin="round" stroke-width="1.8"/><path d="m157 393s-1.112-12.775-11.745-15.257c-10.632-2.483-12.168-7.008-15.593 0-3.424 7.008-10.662 1.068-10.662 15.257z" style="fill-rule:evenodd;clip-rule:evenodd;stroke:#212f4c;stroke-width:1.8;stroke-linecap:round;stroke-linejoin:round"/><path d="m331 393s7.6-12 20.484-12c12.883 0 17.516 12 17.516 12z" style="fill-rule:evenodd;clip-rule:evenodd;stroke:#212f4c;stroke-width:1.8;stroke-linecap:round;stroke-linejoin:round"/><path clip-rule="evenodd" d="m220.895 119.894s18.613 17.428 42.032 21.623c23.418 4.194-2.69-28.008-2.69-28.008l-24.067-8.509-17.17 8.509z" fill="#212f4c" fill-rule="evenodd"/><path d="m485.431 116.09c-3.391 7.242-10.237 12.732-18.784 14.075-13.645 2.144-26.458-7.092-28.62-20.63l-3.196-20.0247c-.193-1.207-.294-2.4074-.31-3.5943" stroke="#212f4c" stroke-linecap="round" stroke-linejoin="round" stroke-width="1.8"/><path d="m485.403 101.041c1.005.227 2.07.271 3.15.101 4.548-.714 7.651-4.9516 6.931-9.4639-.721-4.5124-4.991-7.5909-9.539-6.8763" stroke="#212f4c" stroke-linecap="round" stroke-linejoin="round" stroke-width="1.8"/><path d="m487.576 84.5254s5.171-25.3801-9.522-23.0711c0 0-1.415-15.5763-19.255-13.9439s-28.219 19.3767-41.138 13.9357c-12.918-5.4411-10.763 28.8903 15.279 24.7979 26.042-4.0923 40.565-19.2173 42.723-14.3101 2.157 4.9072-1.301 24.992 4.167 26.1047 2.224.4526-.698-7.0698.734-10.5232.916-2.2066 7.012-2.99 7.012-2.99z" style="fill-rule:evenodd;clip-rule:evenodd;fill:#212f4c;stroke:#212f4c;stroke-width:1.8;stroke-linejoin:round"/><path clip-rule="evenodd" d="m486.172 116.474s-6.886 10.885-15.665 12.819-12.802 1.181-12.802 1.181l1.205 10.593s12.119-2.207 17.548-7.32 9.714-17.273 9.714-17.273z" fill="#212f4c" fill-rule="evenodd"/><path d="m489 102 12.216 41.365c.817 2.765 2.909 4.972 5.628 5.935l63.751 22.571c11.962 4.236 20.811 14.457 23.29 26.903l23.053 115.729c1.893 9.506-1.454 19.297-8.77 25.655l-60.807 52.842h-39.139l69.732-74.44-34.424-92.97" stroke="#212f4c" stroke-linecap="round" stroke-linejoin="round" stroke-width="1.8"/><path d="m457.726 131 1.7 14.556c.358 3.059-.874 6.089-3.266 8.03l-34.111 27.701c-9.415 7.645-14.347 19.517-13.122 31.583l12.386 121.976-17.313 58.154" stroke="#212f4c" stroke-linecap="round" stroke-linejoin="round" stroke-width="1.8"/><path d="m432 215s15.838 92.575 15.838 133.89c0 4.814-7.575 13.632-3.787 17.777 3.787 4.144 75.293 6.117 92.949-4.434" stroke="#212f4c" stroke-linecap="round" stroke-linejoin="round" stroke-width="1.8"/><path d="m454 156.135s18.225 22.429 55-6.135" stroke="#212f4c" stroke-linecap="round" stroke-linejoin="round" stroke-width="1.8"/><path d="m449 160.285s21.87 26.634 66-7.285" stroke="#212f4c" stroke-linecap="round" stroke-linejoin="round" stroke-width="1.8"/><path d="m451 369-4 24" stroke="#212f4c" stroke-linecap="round" stroke-linejoin="round" stroke-width="1.8"/><path d="m585.5 360v29" stroke="#212f4c" stroke-linecap="round" stroke-linejoin="round" stroke-width="1.8"/><path clip-rule="evenodd" d="m510.261 191.122c-1.693 0-3.066-1.373-3.066-3.067v-7.684c0-1.694 1.373-3.067 3.066-3.067 1.694 0 3.067 1.373 3.067 3.067v7.684c0 1.694-1.373 3.067-3.067 3.067z" fill="#efabff" fill-rule="evenodd"/><path clip-rule="evenodd" d="m551.726 200.76c1.47-.852 3.353-.347 4.2 1.125l3.823 6.646c.843 1.466.341 3.338-1.122 4.186-1.47.852-3.352.347-4.2-1.125l-3.822-6.646c-.844-1.466-.342-3.338 1.121-4.186z" fill="#efabff" fill-rule="evenodd"/><path clip-rule="evenodd" d="m462.725 364.275c-.845-1.469-.342-3.345 1.124-4.194l6.602-3.826c1.473-.853 3.358-.348 4.207 1.127.845 1.469.342 3.345-1.124 4.194l-6.602 3.826c-1.473.853-3.358.348-4.207-1.127z" fill="#efabff" fill-rule="evenodd"/><path clip-rule="evenodd" d="m521.115 291.137c-.844-1.469-.342-3.345 1.124-4.194l6.602-3.826c1.473-.853 3.359-.348 4.207 1.127.845 1.469.343 3.345-1.123 4.194l-6.602 3.826c-1.473.853-3.359.348-4.208-1.127z" fill="#efabff" fill-rule="evenodd"/><path clip-rule="evenodd" d="m589.112 298.883c-1.519-.744-2.15-2.576-1.411-4.098l3.353-6.899c.742-1.527 2.584-2.161 4.109-1.415 1.52.744 2.151 2.577 1.411 4.098l-3.352 6.899c-.743 1.527-2.584 2.162-4.11 1.415z" fill="#efabff" fill-rule="evenodd"/><path clip-rule="evenodd" d="m424.165 317.804c-.845-1.469-.342-3.345 1.124-4.194l6.602-3.826c1.473-.853 3.358-.348 4.207 1.128.845 1.468.342 3.344-1.124 4.193l-6.602 3.826c-1.473.853-3.358.348-4.207-1.127z" fill="#efabff" fill-rule="evenodd"/><path clip-rule="evenodd" d="m474.658 263.262c.845-1.469.342-3.344-1.124-4.194l-6.602-3.825c-1.473-.854-3.358-.348-4.207 1.127-.845 1.469-.342 3.344 1.124 4.194l6.602 3.826c1.473.853 3.358.348 4.207-1.128z" fill="#efabff" fill-rule="evenodd"/><path clip-rule="evenodd" d="m556.715 179.961c.845-1.469.342-3.345-1.124-4.194l-6.602-3.826c-1.473-.853-3.359-.348-4.207 1.128-.845 1.468-.343 3.344 1.123 4.193l6.603 3.826c1.472.853 3.358.348 4.207-1.127z" fill="#efabff" fill-rule="evenodd"/><path clip-rule="evenodd" d="m427.747 380.238c.845-1.469.343-3.344-1.123-4.194l-6.603-3.825c-1.472-.854-3.358-.348-4.207 1.127-.845 1.469-.342 3.344 1.124 4.194l6.602 3.825c1.473.854 3.359.348 4.207-1.127z" fill="#efabff" fill-rule="evenodd"/><path clip-rule="evenodd" d="m442.279 196.543c.845-1.469.342-3.345-1.124-4.194l-6.602-3.826c-1.473-.853-3.359-.348-4.207 1.127-.845 1.469-.343 3.345 1.123 4.194l6.603 3.826c1.472.853 3.358.348 4.207-1.127z" fill="#efabff" fill-rule="evenodd"/><path clip-rule="evenodd" d="m579.429 242.23c.845-1.469.342-3.344-1.124-4.194l-6.602-3.825c-1.473-.854-3.358-.348-4.207 1.127-.845 1.469-.342 3.344 1.124 4.194l6.602 3.826c1.473.853 3.358.348 4.207-1.128z" fill="#efabff" fill-rule="evenodd"/><path clip-rule="evenodd" d="m506.98 243.961c.845-1.469.343-3.344-1.123-4.194l-6.603-3.825c-1.472-.854-3.358-.349-4.207 1.127-.845 1.469-.342 3.344 1.124 4.194l6.602 3.825c1.473.854 3.359.348 4.207-1.127z" fill="#efabff" fill-rule="evenodd"/><path clip-rule="evenodd" d="m468.056 311.379c.439 1.644 2.129 2.62 3.772 2.178l7.356-1.978c1.639-.441 2.612-2.125 2.174-3.765-.439-1.644-2.129-2.62-3.772-2.178l-7.356 1.978c-1.639.441-2.611 2.126-2.174 3.765z" fill="#efabff" fill-rule="evenodd"/><path clip-rule="evenodd" d="m473.382 209.298c.439 1.644 2.129 2.62 3.772 2.178l7.356-1.978c1.639-.441 2.611-2.125 2.174-3.765-.439-1.644-2.129-2.62-3.772-2.178l-7.356 1.978c-1.639.441-2.612 2.126-2.174 3.765z" fill="#efabff" fill-rule="evenodd"/><path clip-rule="evenodd" d="m577.315 352.035c-.845-1.469-.343-3.344 1.123-4.194l6.602-3.826c1.473-.853 3.359-.348 4.208 1.128.844 1.469.342 3.344-1.124 4.194l-6.602 3.825c-1.473.854-3.359.348-4.207-1.127z" fill="#efabff" fill-rule="evenodd"/><path clip-rule="evenodd" d="m419.513 241.757c1.201-1.205 3.152-1.205 4.353 0l5.398 5.418c1.195 1.199 1.195 3.138 0 4.337-1.2 1.205-3.152 1.205-4.352 0l-5.399-5.418c-1.194-1.199-1.194-3.138 0-4.337z" fill="#efabff" fill-rule="evenodd"/><path clip-rule="evenodd" d="m510.67 336.65c1.2-1.205 3.152-1.205 4.352 0l5.399 5.418c1.194 1.199 1.194 3.138 0 4.337-1.201 1.205-3.152 1.205-4.353 0l-5.398-5.418c-1.195-1.199-1.195-3.138 0-4.337z" fill="#efabff" fill-rule="evenodd"/><path clip-rule="evenodd" d="m543.335 225 34.665 93.11-40 41.89s19.005-23.293 20-48.463c.995-25.169-14.665-86.537-14.665-86.537z" fill="#212f4c" fill-rule="evenodd"/><path clip-rule="evenodd" d="m431.846 215s16.05 103.967 16.05 134.091c0 5.472-7.677 15.665-3.839 17.804 3.839 2.138 6.943 2.138 6.943 2.138l-3.991 23.966h-21.009s11.112-10.128 12.5-52.388c1.388-42.259-6.654-125.611-6.654-125.611z" fill="#212f4c" fill-rule="evenodd"/><path clip-rule="evenodd" d="m225 179 9.658 3.98 7.472-.576 7.87-2.243s-11.295 11.566-25 9.536z" fill="#212f4c" fill-rule="evenodd"/><g stroke-width="1.8"><path d="m126 354c-38.815-44.972 0-77.555-55.312-88.417-55.3119-10.862-65.76693-25.607-69.688-107.583" stroke="#809bce" stroke-linecap="round" stroke-linejoin="round"/><path clip-rule="evenodd" d="m44.5 329c4.6944 0 8.5-3.806 8.5-8.5s-3.8056-8.5-8.5-8.5-8.5 3.806-8.5 8.5 3.8056 8.5 8.5 8.5z" fill-rule="evenodd" stroke="#809bce" stroke-linecap="round" stroke-linejoin="round"/><path clip-rule="evenodd" d="m196 64c3.314 0 6-2.6863 6-6s-2.686-6-6-6-6 2.6863-6 6 2.686 6 6 6z" fill-rule="evenodd" stroke="#809bce" stroke-linecap="round" stroke-linejoin="round"/><path clip-rule="evenodd" d="m425 38c3.314 0 6-2.6863 6-6s-2.686-6-6-6-6 2.6863-6 6 2.686 6 6 6z" fill-rule="evenodd" stroke="#809bce" stroke-linecap="round" stroke-linejoin="round"/><path d="m382 334h8v8h-8z" stroke="#809bce" stroke-linecap="round" stroke-linejoin="round"/><path d="m575 131h11v11h-11z" stroke="#809bce" stroke-linecap="round" stroke-linejoin="round"/><path d="m39 183h11v11h-11z" stroke="#809bce" stroke-linecap="round" stroke-linejoin="round"/><path d="m350 351c27.659-63.244 14.891-82.358 65.185-82.358s79.581-24.416 91.112-107.029 67.703-82.613 67.703-82.613" stroke="#809bce" stroke-linecap="round" stroke-linejoin="round"/><path d="m336.927 212c12.813-29.571-26.057-66.591 9.472-99.709 35.528-33.118 12.621-99.291 12.621-99.291" stroke="#809bce" stroke-linecap="round" stroke-linejoin="round"/><path d="m93 158v86h41" stroke="#809bce" stroke-dasharray="2.7 5.4" stroke-linecap="round" stroke-linejoin="round"/><path d="m68 92h66.417v69.517l-13.087 10.97h-53.33z" style="fill-rule:evenodd;clip-rule:evenodd;fill:#fff;stroke:#212f4c;stroke-linecap:round;stroke-linejoin:round"/><path d="m121.33 172.487v-11.316h13.087" stroke="#212f4c" stroke-linecap="round" stroke-linejoin="round"/><path d="m59 85h66.417v69.517l-13.087 10.97h-53.33z" style="fill-rule:evenodd;clip-rule:evenodd;fill:#fff;stroke:#212f4c;stroke-linecap:round;stroke-linejoin:round"/><path d="m112.33 165.487v-11.316h13.087" stroke="#212f4c" stroke-linecap="round" stroke-linejoin="round"/><path d="m49 78h66.417v69.517l-13.087 10.97h-53.33z" style="fill-rule:evenodd;clip-rule:evenodd;fill:#fff;stroke:#212f4c;stroke-linecap:round;stroke-linejoin:round"/><path d="m102.33 158.487v-11.316h13.087" stroke="#212f4c" stroke-linecap="round" stroke-linejoin="round"/><path d="m60.999 88.979h42.419" stroke="#809bce" stroke-linecap="round" stroke-linejoin="round"/><path d="m60.999 147.171h7.4628" stroke="#809bce" stroke-linecap="round" stroke-linejoin="round"/><path d="m60.999 97.7622h16.202" stroke="#809bce" stroke-linecap="round" stroke-linejoin="round"/><path d="m87.2164 97.7622h16.2016" stroke="#809bce" stroke-linecap="round" stroke-linejoin="round"/><path d="m60.999 106.545h27.5628" stroke="#809bce" stroke-linecap="round" stroke-linejoin="round"/><path d="m269 1h49.412v50.7666l-9.737 8.0118h-39.675z" style="fill-rule:evenodd;clip-rule:evenodd;fill:#fff;stroke:#212f4c;stroke-linecap:round;stroke-linejoin:round"/><path d="m286.75 39.5825h13.911" stroke="#809bce" stroke-linecap="round" stroke-linejoin="round"/><path d="m293.706 32.0988c5.824 0 10.545-4.6579 10.545-10.4037 0-5.7457-4.721-10.4036-10.545-10.4036s-10.546 4.6579-10.546 10.4036c0 5.7458 4.722 10.4037 10.546 10.4037z" style="fill-rule:evenodd;clip-rule:evenodd;fill:#7e9ace;stroke:#212f4c;stroke-linecap:round;stroke-linejoin:round"/><path d="m308.675 59.7783v-8.2639h9.737" stroke="#212f4c" stroke-linecap="round" stroke-linejoin="round"/><path d="m417.697 162.136 4.767-48.122h-56.72" stroke="#212f4c" stroke-linecap="round" stroke-linejoin="round"/><path d="m353.467 162.136h64.23l-10.381-43.074h-39.037l-3.282-7.062-22.997.21z" style="fill-rule:evenodd;clip-rule:evenodd;fill:#fff;stroke:#212f4c;stroke-linecap:round;stroke-linejoin:round"/><path d="m387 162v91h-45" stroke="#809bce" stroke-dasharray="2.7 5.4" stroke-linecap="round" stroke-linejoin="round"/><path d="m294 61v22.9787h25v146.0213" stroke="#809bce" stroke-dasharray="2.7 5.4" stroke-linecap="round" stroke-linejoin="round"/></g></svg>