<svg fill="none" height="107" viewBox="0 0 106 107" width="106" xmlns="http://www.w3.org/2000/svg"><path clip-rule="evenodd" d="m52.75 106c29.133 0 52.75-23.617 52.75-52.75s-23.617-52.75-52.75-52.75-52.75 23.617-52.75 52.75 23.617 52.75 52.75 52.75z" fill="#212f4c" fill-rule="evenodd"/><path d="m27 32.5c0-3.3137 2.6863-6 6-6h38c3.3137 0 6 2.6863 6 6v49c0 3.3137-2.6863 6-6 6h-38c-3.3137 0-6-2.6863-6-6z" style="fill-rule:evenodd;clip-rule:evenodd;fill:#fff;stroke:#212f4c;stroke-width:1.8;stroke-linecap:round;stroke-linejoin:round"/><rect fill="#ebf2ff" height="19" rx="6" width="43" x="31" y="38.5"/><path d="m35.1207 47.6785 3.078 3.1427 5.3865-5.4997" stroke="#212f4c" stroke-linecap="round" stroke-linejoin="round" stroke-width="1.8"/><path d="m49.4756 46.3411h11.5235" stroke="#809bce" stroke-linecap="round" stroke-linejoin="round" stroke-width="2"/><path d="m49.4756 50.7856h22.4059" stroke="#809bce" stroke-linecap="round" stroke-linejoin="round" stroke-width="2"/><rect fill="#ebf2ff" height="19" rx="6" width="43" x="31" y="59.5"/><g stroke-linecap="round" stroke-linejoin="round"><path d="m35.1207 68.6785 3.078 3.1427 5.3865-5.4997" stroke="#212f4c" stroke-width="1.8"/><path d="m49.4756 67.3411h11.5235" stroke="#809bce" stroke-width="2"/><path d="m49.4756 71.7856h22.4059" stroke="#809bce" stroke-width="2"/><path clip-rule="evenodd" d="m82.9131 41.3262c9.3408 0 16.9131-7.5723 16.9131-16.9131 0-9.3409-7.5723-16.9131-16.9131-16.9131-9.3409 0-16.9131 7.5722-16.9131 16.9131 0 9.3408 7.5722 16.9131 16.9131 16.9131z" fill="#efabff" fill-rule="evenodd" stroke="#212f4c" stroke-width="2"/><path d="m77.9231 29.5c-2.1667 0-3.9231-1.7095-3.9231-3.8182s1.7564-3.8182 3.9231-3.8182c.1534 0 .3047.0086.4535.0253-.2908-.585-.4535-1.2412-.4535-1.9344 0-2.4601 2.0491-4.4545 4.5769-4.4545 2.5278 0 4.5769 1.9944 4.5769 4.4545 0 .6932-.1627 1.3494-.4529 1.9345.1482-.0168.2995-.0254.4529-.0254 2.1667 0 3.9231 1.7095 3.9231 3.8182s-1.7564 3.8182-3.9231 3.8182" stroke="#fff" stroke-width="2"/><path d="m82.5 25.5v6" stroke="#fff" stroke-width="1.8"/><path d="m80.2444 26.06 2.3117-2.2627 2.3117 2.2627" stroke="#fff" stroke-width="1.8"/></g></svg>