<svg fill="none" height="107" viewBox="0 0 106 107" width="106" xmlns="http://www.w3.org/2000/svg"><path clip-rule="evenodd" d="m52.75 106c29.133 0 52.75-23.617 52.75-52.75s-23.617-52.75-52.75-52.75-52.75 23.617-52.75 52.75 23.617 52.75 52.75 52.75z" fill="#212f4c" fill-rule="evenodd"/><rect fill="#ebf2ff" height="58" rx="8" stroke="#212f4c" stroke-linecap="round" stroke-linejoin="round" stroke-width="2" width="57" x="26" y="28.5"/><rect fill="#fff" height="58" rx="8" stroke="#212f4c" stroke-linecap="round" stroke-linejoin="round" stroke-width="2" width="45.5" x="26" y="28.5"/><rect fill="#ebf2ff" height="24" rx="6" width="39.5" x="29" y="31.75"/><path clip-rule="evenodd" d="m19 69.25c0-3.3137 2.6863-6 6-6h34.5c3.3137 0 6 2.6863 6 6v8c0 3.3137-2.6863 6-6 6h-34.5c-3.3137 0-6-2.6863-6-6z" fill="#ebf2ff" fill-rule="evenodd"/><rect fill="#fff" height="24" rx="6" stroke="#212f4c" stroke-linecap="round" stroke-linejoin="round" stroke-width="2" width="39.5" x="19" y="59.25"/><path clip-rule="evenodd" d="m33.4554 65.75h10.5892z" fill="#ebf2ff" fill-rule="evenodd"/><path d="m33.4554 65.75h10.5892" stroke="#212f4c" stroke-linecap="round" stroke-linejoin="round" stroke-width="2"/><rect fill="#fff" height="15" rx="5" stroke="#212f4c" stroke-linecap="round" stroke-linejoin="round" stroke-width="1.8" width="52" x="33" y="37.5"/><path clip-rule="evenodd" d="m44.0446 42.75h17.394z" fill="#ebf2ff" fill-rule="evenodd"/><path d="m44.0446 42.75h17.394" stroke="#212f4c" stroke-linecap="round" stroke-linejoin="round" stroke-width="2"/><path clip-rule="evenodd" d="m44.0446 47.75h11.394z" fill="#ebf2ff" fill-rule="evenodd"/><g stroke="#212f4c" stroke-linecap="round" stroke-linejoin="round" stroke-width="2"><path d="m44.0446 47.75h11.394"/><path clip-rule="evenodd" d="m66.1135 69.4716 2.0768-20.4227 18.7078 8.4227-6.3138 3.6453 6.1759 10.697-8.1398 4.6995-6.1759-10.697z" fill="#efabff" fill-rule="evenodd"/></g></svg>