<svg fill="none" height="106" viewBox="0 0 106 106" width="106" xmlns="http://www.w3.org/2000/svg"><path clip-rule="evenodd" d="m53 106c29.133 0 52.75-23.617 52.75-52.75s-23.617-52.75-52.75-52.75-52.75 23.617-52.75 52.75 23.617 52.75 52.75 52.75z" fill="#212f4c" fill-rule="evenodd"/><g stroke-linecap="round" stroke-linejoin="round" stroke-width="2"><rect fill="#fff" height="26.5" rx="6" stroke="#212f4c" width="70.4105" x="17.7948" y="23.375"/><path d="m26.5 39.375h17.4701" stroke="#809bce"/><path d="m26.5 33.875h31.5" stroke="#809bce"/><path clip-rule="evenodd" d="m86.6875 39.0625c8.664 0 15.6875-7.0235 15.6875-15.6875s-7.0235-15.6875-15.6875-15.6875-15.6875 7.0235-15.6875 15.6875 7.0235 15.6875 15.6875 15.6875z" fill="#efabff" fill-rule="evenodd" stroke="#212f4c"/><path d="m80.6516 22.2143 4.4874 4.4874 7.7782-7.7782" stroke="#fff"/><rect fill="#fff" height="26.5" rx="6" stroke="#212f4c" width="70.4105" x="17.7948" y="56.125"/><path d="m26.5 72.125h17.4701" stroke="#809bce"/><path d="m26.5 66.625h31.5" stroke="#809bce"/></g></svg>