<svg fill="none" height="106" viewBox="0 0 106 106" width="106" xmlns="http://www.w3.org/2000/svg"><path clip-rule="evenodd" d="m53 106c29.133 0 52.75-23.617 52.75-52.75s-23.617-52.75-52.75-52.75-52.75 23.617-52.75 52.75 23.617 52.75 52.75 52.75z" fill="#212f4c" fill-rule="evenodd"/><path d="m25 25.25c0-3.3137 2.6863-6 6-6h44c3.3137 0 6 2.6863 6 6v52.3194l-11.0348 9.2038h-38.9652c-3.3137 0-6-2.6863-6-6z" style="fill-rule:evenodd;clip-rule:evenodd;fill:#fff;stroke:#212f4c;stroke-width:2;stroke-linecap:round;stroke-linejoin:round"/><path clip-rule="evenodd" d="m53 54.5688c7.4558 0 13.5-6.0442 13.5-13.5 0-7.4559-6.0442-13.5-13.5-13.5s-13.5 6.0441-13.5 13.5c0 7.4558 6.0442 13.5 13.5 13.5z" fill="#dae5fa" fill-rule="evenodd"/><g stroke-linecap="round" stroke-linejoin="round" stroke-width="2"><path clip-rule="evenodd" d="m53.0165 43.2098c2.1412 0 3.877-1.7358 3.877-3.877s-1.7358-3.877-3.877-3.877-3.877 1.7358-3.877 3.877 1.7358 3.877 3.877 3.877z" fill-rule="evenodd" stroke="#212f4c"/><path d="m56.8935 47.0869c0-2.1413-1.7358-3.8771-3.877-3.8771s-3.877 1.7358-3.877 3.8771" stroke="#212f4c"/><path d="m49.9933 73h6.2923" stroke="#809bce"/><path d="m46.0196 67.5h14.2397" stroke="#809bce"/><path d="m68.9652 85.7732v-4.4934c0-2.7614 2.2386-5 5-5h6.0348" stroke="#212f4c"/><path clip-rule="evenodd" d="m86.5524 37.4306-24.656 24.6559-1.1492 5.0383 5.0383-1.1492 24.6559-24.656z" fill="#efabff" fill-rule="evenodd" stroke="#212f4c"/></g></svg>