<svg viewBox="0 0 485.8606 183.6477" xmlns="http://www.w3.org/2000/svg"><g fill="#809bce"><path d="m435.1133 99.2438a9.8327 9.8327 0 1 0 9.7808 9.7815 10.0018 10.0018 0 0 0 -9.7808-9.7815" transform="translate(-.5957 -.4185)"/><path d="m165.6628 95.8886h-25.4314v72.0734h25.4314c21.0039 0 36.8606-15.4437 36.8606-36.3462 0-20.4889-15.8567-35.7272-36.8606-35.7272m-7.9283 55.3936v-38.7131h9.1644c10.3986 0 17.7085 8.03 17.7085 19.0467 0 11.3271-7.4133 19.6664-17.7085 19.6664z" transform="translate(-.5957 -.4185)"/><path d="m232.7914 116.172c-14.93 0-26.4607 11.4286-26.4607 26.2553a26.35 26.35 0 0 0 26.77 26.5641c12.9723 0 22.5476-7.2073 24.092-18.43h-16.1647c-.72 2.78-3.5 4.839-8.442 4.839-5.6636 0-9.9877-3.2947-11.2231-8.546h36.2428c.2055-1.8526.4116-4.53.4116-5.8684a24.9824 24.9824 0 0 0 -25.2259-24.8137m-10.7074 20.2832c1.75-4.8391 5.3534-6.8984 9.8842-6.8984 4.4275 0 8.34 2.78 8.7515 6.8984z" transform="translate(-.5957 -.4185)"/><path d="m294.8755 116.1719c-6.4867 0-11.4285 2.5749-14.8266 7.2079v-6.1779h-16.4731v66.6619l16.4731.2023v-20.5087c1.0133 3.7364 11.0163 5.4345 14.8266 5.4345 12.8708 0 23.0633-11.8408 23.0633-26.3586s-10.1925-26.4614-23.0633-26.4614m-3.9131 37.0661c-6.7758 0-10.0533-5.4492-10.8261-8.68v-.5941a10.5367 10.5367 0 0 1 -.0874-1.3305 10.8659 10.8659 0 1 1 10.9135 10.6047" transform="translate(-.5957 -.4185)"/><path d="m347.694 116.1718c-14.9288 0-26.2553 11.3264-26.2553 26.5641 0 15.0321 11.3265 26.2558 26.2553 26.2558s26.3579-11.2237 26.3579-26.2558c0-15.2377-11.4292-26.5641-26.3579-26.5641m0 36.9633c-5.7663 0-10.09-4.4268-10.09-10.3992 0-6.1773 4.3241-10.7081 10.09-10.7081 5.869 0 10.1924 4.5308 10.1924 10.7081a10.0114 10.0114 0 0 1 -10.1924 10.3992" transform="translate(-.5957 -.4185)"/><path d="m398.04 116.2755c-12.87 0-20.3862 7.4127-20.3862 16.1643 0 20.3868 28.0063 12.2524 28.0063 19.7691 0 2.0586-1.9578 3.5-6.2826 3.5-4.1179 0-7.5154-2.162-7.8249-5.1479h-14.9289c1.03 11.5313 10.2965 18.43 23.8877 18.43 11.5319 0 20.3856-7.3106 20.3856-16.68 0-22.6516-28.2118-12.5612-28.2118-19.8718 0-2.0587 1.8538-3.2948 5.4574-3.2948 3.5009 0 6.2807 2.0593 6.4874 4.4268h15.8548c-1.2349-11.3251-11.12-17.2963-22.4449-17.2963" transform="translate(-.5957 -.4185)"/><path d="m426.5811 124.8586h16.4737v42.6849h-16.4737z"/><path d="m474.41 97.2772-16.4743 9.3744v10.5505h-9.2666v15.856h9.2666v13.2819c0 14.0022 8.546 22.4455 20.9005 22.4455a31.4351 31.4351 0 0 0 7.62-.8232v-15.2385a15.4747 15.4747 0 0 1 -3.81.411c-4.53 0-8.2366-2.2642-8.2366-7.1032v-12.9735h12.0463v-15.856h-12.0459z" transform="translate(-.5957 -.4185)"/></g><path d="m74.3414 170.2916c-.0051-20.7787-.037-62.61-.0421-83.5569-10.3846 10.8721-22.56 23.8992-22.56 24.23-.1359 8.1708-.067 31.0508-.1225 39.2229-.01 1.3823-.113 2.7645-.2112 5.035-2.2425-1.5513-4.1295-2.5034-5.5047-3.9431a5.8968 5.8968 0 0 1 -1.1767-3.7657c-.067-13.3857.014-26.7715-.02-40.1572-.0236-9.5792-.097-19.16-.2719-28.7376-.1168-6.451-3.0216-11.1727-8.8836-14.2071-7.5482-3.9082-12.0787-10.0554-12.3764-18.7597a21.598 21.598 0 0 1 40.4377-11.2512c4.8053 8.5824 3.5717 20.2439-3.63 27.0682-.9183.87-3.7172 3.5028-4.66 4.349-3.73 3.35-4.2188 5.3489-4.326 10.4248.3127 4.7912.83 22.4378.6949 23.4256 4.9029-4.825 16.3321-17.8132 17.43-19.0148 10.5352-11.5217 16.9236-17.21 19.2318-29.63 4.3062-23.17-12.2326-45.9306-36.0259-49.977-27.0448-4.5982-52.0013 16.6332-51.7269 44.0515a45.2875 45.2875 0 0 0 8.3636 25.7389 86.984 86.984 0 0 0 15.154 16.9855c3.1269 2.6566 3.4811 5.0261 1.3439 8.495a38.9 38.9 0 0 1 -2.7223 3.7651 8.3374 8.3374 0 0 0 -1.1825 9.1108c.7294 1.677 1.6114 3.2858 2.39 4.9418 1.7919 3.8142 2.0625 7.7209-.3382 11.28-2.4077 3.5692-2.3848 6.6488.4224 9.9506a15.5926 15.5926 0 0 1 2.2189 4.5232 9.8048 9.8048 0 0 1 -1.6739 10.2767c-4.8869 6.2079-3.7555 12.0731 3.08 16.2121 5.541 3.356 11.1854 6.5416 16.7494 9.8612a15.7794 15.7794 0 0 0 11.4183 1.8334 47.7036 47.7036 0 0 0 18.52-7.7815" fill="#212f4c" transform="translate(-.5957 -.4185)"/><path d="m157.8374 32.7015c0-3.3975 2.8831-5.4561 7.6194-5.4561 5.7657 0 9.0605 3.7063 8.9577 8.442h18.018c0-12.8695-7.9276-24.813-26.3586-24.813-14.5171 0-25.2252 9.1631-25.2252 21.9305 0 26.3586 36.6544 18.9453 36.6544 29.4466 0 3.9131-3.81 6.384-9.576 6.384-6.1766 0-10.5013-3.5009-10.5013-8.9577h-17.1942c0 14.6206 11.7368 25.328 27.6955 25.328 15.445 0 26.77-9.6781 26.77-22.7543 0-27.1812-36.86-19.5624-36.86-29.55" fill="#212f4c" transform="translate(-.5957 -.4185)"/><path d="m236.8921 64.7973a16.7166 16.7166 0 0 1 -10.8963 4.4562 10.6071 10.6071 0 1 1 10.5951-12.7535 2.1871 2.1871 0 0 1 .3012 1.1493zm-.0855-25.6088c-3.3974-4.53-8.34-7.0017-14.7239-7.0017-12.87 0-23.0632 11.9435-23.0632 26.4613s10.1931 26.358 23.0632 26.358c7.1408 0 11.8772-3.5092 14.8094-5.5161v4.4861h16.4916v-50.7594h-16.5771z" fill="#212f4c" transform="translate(-.5957 -.4185)"/><path d="m268.1051 31.4663v1.75h-9.1638v15.8558h9.1638v35.2627l16.5764-.0364v-35.2263h11.9442v-15.8554h-11.9442v-1.4415c0-4.8391 3.6036-7.1039 8.2372-7.1039a14.6272 14.6272 0 0 1 3.707.4116v-15.2382a30.857 30.857 0 0 0 -7.62-.8239c-12.3551 0-20.9011 8.34-20.9011 22.4455" fill="#212f4c" transform="translate(-.5957 -.4185)"/><path d="m313.3036 52.47c1.75-4.8384 5.354-6.8977 9.8842-6.8977 4.4268 0 8.34 2.7791 8.7515 6.8977zm10.7074-20.283c-14.9294 0-26.4607 11.4292-26.4607 26.2552a26.35 26.35 0 0 0 26.77 26.5641c12.9735 0 22.5489-7.2072 24.0932-18.43h-16.1646c-.7212 2.7792-3.5016 4.8391-8.4434 4.8391-5.6635 0-9.9876-3.2947-11.2224-8.546h36.2416c.2061-1.8532.4122-4.5309.4122-5.8691a24.9824 24.9824 0 0 0 -25.2259-24.8133" fill="#212f4c" transform="translate(-.5957 -.4185)"/><path d="m353.274 83.558h16.474v-72.073l-16.474.121z" fill="#212f4c"/><path d="m411.2178 33.2168-11.99 28.7115a13.5454 13.5454 0 0 0 -.374-8.0471l-7.1995-20.6644h-17.71l18.3748 45.2592-9.0049 21.5629h17.8125l27.9023-66.8221z" fill="#212f4c" transform="translate(-.5957 -.4185)"/></svg>