<svg fill="none" height="49" viewBox="0 0 205 49" width="205" xmlns="http://www.w3.org/2000/svg"><path d="m47.9451 24.9725c0 13.2397-10.7329 23.9726-23.9725 23.9726-13.2397 0-23.97256948-10.7329-23.97256948-23.9726 0-13.2396 10.73286948-23.972519 23.97256948-23.972519 13.2396 0 23.9725 10.732919 23.9725 23.972519z" fill="#212f4c"/><g clip-rule="evenodd" fill-rule="evenodd"><path d="m15.5822 12.9862h11.5867c4.6339 0 8.3904 3.7565 8.3904 8.3904s-3.7565 8.3904-8.3904 8.3904h-6.7922v7.1917h-4.7945zm4.7945 11.9863h6.7922c1.9857 0 3.5959-1.6102 3.5959-3.5959s-1.6102-3.5959-3.5959-3.5959h-6.7922z" fill="#fff"/><path d="m199.104 23.9254v5.9076l.001.0002c0 2.0477 1.105 3.1304 3.2 3.1304 1.25 0 2.051-.3296 2.497-.7301l-.634-2.2826c-.167.1878-.592.3526-1.039.3526-.659 0-1.035-.5414-1.035-1.2706v-5.1075h2.306v-2.613h-2.306v-3.1065h-2.99v3.1065h-1.881v2.613zm-135.1772-6.9437v15.9817h3.3422v-5.8844h4c3.3921 0 5.274-2.3066 5.274-5.0367 0-2.754-1.8607-5.0606-5.274-5.0606zm6.8725 2.9419c1.3167 0 2.3306.8002 2.3306 2.1187 0 1.2945-1.0121 2.0948-2.3306 2.0948h-3.5299v-4.2135zm7.7753 13.0398v-11.6514h2.9878v1.5302c.8241-.9889 2.2135-1.8119 3.6259-1.8119v2.9178c-.2128-.0469-.4715-.0699-.8241-.0699-.9889 0-2.3073.5644-2.802 1.2945v7.7907zm13.7511-9.274c1.8778 0 2.9167 1.5303 2.9167 3.2955 0 1.7869-1.0349 3.3162-2.9167 3.3162-1.8611 0-2.8959-1.5271-2.8959-3.3162 0-1.7652 1.035-3.2955 2.8959-3.2955zm-6.0047 3.2955c0-3.2243 2.2574-5.9546 6.0025-5.9546 3.7657 0 6.0255 2.7301 6.0255 5.9546s-2.2596 5.9785-6.0255 5.9785c-3.7429 0-6.0025-2.754-6.0025-5.9785zm22.086-2.0009v4.0226c-.495.7551-1.578 1.2945-2.566 1.2945-1.716 0-2.894-1.3393-2.894-3.3162 0-1.9538 1.177-3.2955 2.894-3.2955.989 0 2.071.5414 2.566 1.2946zm0 7.9772v-1.742c-.895 1.1297-2.118 1.742-3.507 1.742-2.848 0-5.0369-2.1655-5.0369-5.9785 0-3.695 2.1429-5.9546 5.0369-5.9546 1.341 0 2.612.5645 3.507 1.7412v-5.7876h3.012v15.9817h-3.012zm13.659-1.716v1.718.0002h2.99v-11.6512h-2.99v7.6968c-.518.6592-1.436 1.2945-2.589 1.2945-1.271 0-2.095-.5174-2.095-2.0946v-6.8949h-2.988v8.0733c0 2.2105 1.175 3.5759 3.672 3.5759 1.859 0 3.224-.871 4-1.718zm5.234-4.2605c0-3.4832 2.541-5.9546 6.025-5.9546 2.331 0 3.743 1.0118 4.496 2.0476l-1.954 1.8349c-.541-.8-1.365-1.2236-2.398-1.2236-1.813 0-3.083 1.3185-3.083 3.2955 0 1.9769 1.27 3.3162 3.083 3.3162 1.035 0 1.859-.4705 2.398-1.2476l1.954 1.8379c-.753 1.036-2.165 2.0716-4.496 2.0716-3.484 0-6.025-2.4711-6.025-5.9785zm13.091-3.0595v5.9076l-.002.0002c0 2.0477 1.106 3.1304 3.201 3.1304 1.249 0 2.05-.3296 2.497-.7301l-.636-2.2826c-.163.1878-.588.3526-1.035.3526-.659 0-1.035-.5414-1.035-1.2706v-5.1075h2.305v-2.613h-2.305v-3.1065h-2.99v3.1065h-1.882v2.613zm24.44 9.0382v-6.8965h-7.415v6.8965h-3.338v-15.9817h3.34v6.1664h7.415v-6.1664h3.365v15.9817zm14.064-1.718v1.718h2.99v-11.6512h-2.99v7.6968c-.518.6592-1.436 1.2945-2.589 1.2945-1.271 0-2.095-.5174-2.095-2.0946v-6.8947h-2.988v8.0733c0 2.2105 1.175 3.5759 3.672 3.5759 1.859 0 3.224-.871 4-1.718zm13.634 1.718v-7.1552c0-1.5774-.823-2.1188-2.095-2.1188-1.179 0-2.07.6593-2.589 1.3185v7.9555h-2.988v-11.6514h2.988v1.4595c.73-.847 2.142-1.7412 3.979-1.7412 2.518 0 3.715 1.4116 3.715 3.6238v8.3093z" fill="#212f4c"/></g></svg>