<svg fill="none" height="39" viewBox="0 0 171 39" width="171" xmlns="http://www.w3.org/2000/svg"><path clip-rule="evenodd" d="m26.1535 17.3417c2.2239 0 3.7144-1.3012 3.7144-4.0929v-.3549c0-2.7444-1.112-3.809-3.3122-5.44144-1.7981-1.34854-2.4368-2.08196-2.4368-3.76172v-.09463c0-1.41952.6861-2.12928 1.8926-2.12928 1.183 0 1.94.59147 1.94 2.29489v.59146h1.6562v-.59146c0-2.53147-1.3249-3.76172-3.5962-3.76172-2.1765 0-3.5724 1.34854-3.5724 3.7144v.07097c0 2.38952 1.112 3.57245 3.052 5.03928 1.8453 1.41955 2.6734 2.17655 2.6734 4.16395v.3312c0 1.6797-.7334 2.5551-2.011 2.5551-1.5615 0-2.2239-.8517-2.2239-2.768v-.5678h-1.7034v.5678c0 2.7207 1.3958 4.2348 3.9273 4.2348zm7.0374-.2129h1.7743v-16.915873h-1.7743zm11.769 0h-6.3878v-16.915873h1.7744v15.496373h4.6134zm3.0391 0h1.7744v-16.915873h-1.7744zm13.6617-4.1166c0 3.0756-1.727 4.3295-4.0929 4.3295-2.7444 0-4.3768-1.7743-4.3768-4.9209v-7.47615c0-3.19391 1.7744-4.94465 4.3295-4.94465 2.2949 0 4.0456 1.15927 4.0456 4.11659v.26025h-1.7271v-.23659c0-1.89268-.828-2.67342-2.2949-2.67342-1.6561 0-2.5314 1.18293-2.5314 3.47782v7.45245c0 2.2239.7571 3.4542 2.5551 3.4542 1.4432 0 2.4605-.8518 2.4605-2.8627v-.4495h1.6324zm7.274 4.3295c2.6971 0 4.4241-1.7743 4.4241-4.9209v-7.57079c0-3.09927-1.727-4.85001-4.4241-4.85001s-4.4242 1.75074-4.4242 4.87367v7.59443c0 3.0993 1.7271 4.8736 4.4242 4.8736zm-2.6261-4.8973c0 2.2003.828 3.4069 2.6261 3.4069 1.7507 0 2.6024-1.3013 2.6024-3.4305v-7.54713c0-2.08196-.8517-3.40684-2.6024-3.40684-1.7744 0-2.6261 1.20659-2.6261 3.40684zm10.3969 4.6844h1.6087v-13.58001l4.5662 13.58001h1.8453v-16.915873h-1.5851v12.562673l-4.2822-12.562673h-2.1529zm16.7244-16.915873 2.6025 14.881273 2.5788-14.881273h1.6558l-3.0754 16.915873h-2.4368l-3.0756-16.915873zm14.9161 16.915873h1.75l-2.981-16.915873h-2.673l-3.005 16.915873h1.68l.71-4.2585h3.785zm-.97-5.6307-1.657-9.88932-1.679 9.88932zm5.499 5.6307h6.388v-1.4195h-4.613v-15.496373h-1.775zm15.697 0h-6.388v-16.915873h1.774v15.496373h4.614zm2.92 0h6.79v-1.4195h-5.015v-6.93196h3.832v-1.41952h-3.832v-5.72538h4.708v-1.419513h-6.483zm14.135 0h-1.821v-7.38146l-3.455-9.534413h1.869l2.508 7.405143 2.461-7.405143h1.656l-3.218 9.558073zm-145.627 21.5078h4.75538c3.17025 0 4.85001-1.1356 4.85001-4.2585v-1.0883c0-2.1529-1.11196-3.1939-2.91001-3.5488 1.53781-.3549 2.53147-1.2776 2.53147-3.052v-1.1829c0-2.5788-1.49049-3.7854-4.56611-3.7854h-4.66074zm3.57245-7.6417v5.0629h.85171c1.08829 0 1.56146-.5441 1.56146-1.9636v-1.2066c0-1.5378-.47317-1.8927-1.63244-1.8927zm0-2.4368v-4.2586h.75707c.94635 0 1.44318.2603 1.44318 1.5378v1.0647c0 1.2539-.4022 1.6561-1.44318 1.6561zm14.67905 5.4651v-12.3025h3.6671v12.4208c0 3.2885-1.8454 4.7554-4.9683 4.7554-3.1466 0-4.921-1.4905-4.921-4.7791v-12.3971h3.6434v12.3262c0 1.3958.3313 1.8927 1.3013 1.8927.899 0 1.2775-.4969 1.2775-1.9164zm10.7045 4.8737c3.0046 0 4.6844-1.5378 4.6844-4.6134v-.3313c0-3.2357-1.6483-4.2813-3.5992-5.5189l-.1389-.0882c-1.4668-.9936-1.9873-1.4195-1.9873-2.6261v-.0946c0-.9463.3312-1.3249 1.0173-1.3249.6388 0 1.0883.3076 1.0883 1.5142v.5441h3.4305v-.4968c-.0237-2.981-1.6561-4.3768-4.5188-4.3768-2.91 0-4.5661 1.5614-4.5661 4.3768v.0946c0 2.7917 1.1593 4.0456 3.3595 5.4415l.1929.1263c1.3914.9103 2.1493 1.4061 2.1493 2.8547v.1893c0 1.0882-.3549 1.5614-1.1119 1.5614-.8754 0-1.2303-.4495-1.2303-1.8217v-.6624h-3.5251v.5441c.0236 3.3832 1.869 4.7081 4.7554 4.7081zm10.9173-.2603h-3.6671v-16.9159h3.6671zm2.8735 0h3.1466v-10.5044l3.3595 10.5044h3.4541v-16.9159h-3.1702v9.0376l-2.8627-9.0376h-3.9273zm20.6647 0h-7.902v-16.9159h7.6654v2.8627h-4.022v3.7854h3.1703v2.7207h-3.1703v4.6844h4.2586zm6.8007.2603c3.0047 0 4.6845-1.5378 4.6845-4.6134v-.3313c0-3.2357-1.6483-4.2813-3.5993-5.5189l-.1388-.0882c-1.4668-.9936-1.9873-1.4195-1.9873-2.6261v-.0946c0-.9463.3312-1.3249 1.0173-1.3249.6388 0 1.0883.3076 1.0883 1.5142v.5441h3.4305v-.4968c-.0237-2.981-1.6561-4.3768-4.5188-4.3768-2.91 0-4.5661 1.5614-4.5661 4.3768v.0946c0 2.7917 1.1593 4.0456 3.3595 5.4415l.1928.1263c1.3915.9103 2.1494 1.4061 2.1494 2.8547v.1893c0 1.0882-.3549 1.5614-1.112 1.5614-.8753 0-1.2302-.4495-1.2302-1.8217v-.6624h-3.5251v.5441c.0236 3.3832 1.869 4.7081 4.7553 4.7081zm16.1696-4.6134c0 3.0756-1.6797 4.6134-4.6844 4.6134-2.8863 0-4.7317-1.3249-4.7554-4.7081v-.5441h3.5252v.6624c0 1.3722.3549 1.8217 1.2302 1.8217.7571 0 1.112-.4732 1.112-1.5614v-.1893c0-1.4486-.7579-1.9444-2.1494-2.8547l-.1928-.1263c-2.2003-1.3959-3.3595-2.6498-3.3595-5.4415v-.0946c0-2.8154 1.656-4.3768 4.5661-4.3768 2.8626 0 4.4951 1.3958 4.5188 4.3768v.4968h-3.4305v-.5441c0-1.2066-.4496-1.5142-1.0883-1.5142-.6861 0-1.0174.3786-1.0174 1.3249v.0946c0 1.2066.5205 1.6325 1.9874 2.6261l.1388.0882c1.951 1.2376 3.5992 2.2832 3.5992 5.5189zm7.7579 4.4951c2.7917 0 4.2585-1.5615 4.2585-4.4715v-12.5864h-3.667v12.4208c0 1.1829-.5205 1.5851-1.4432 1.5851-.4969 0-.8281-.071-1.112-.1419v2.839c.4259.1893.9937.3549 1.9637.3549zm17.1633-5.0393c0 3.5251-2.035 5.1576-5.181 5.1576-3.147 0-5.158-1.5852-5.158-5.063v-7.2632c0-3.4778 2.177-5.0865 5.158-5.0865 3.075 0 5.181 1.5141 5.181 5.0629zm-5.181 2.2239c-.994 0-1.443-.6151-1.443-2.1529v-7.2632c0-1.5142.473-2.1293 1.443-2.1293.993 0 1.467.6625 1.467 2.1293v7.2395c0 1.5378-.474 2.1766-1.467 2.1766zm14.04-1.94v-12.3025h3.667v12.4208c0 3.2885-1.845 4.7554-4.968 4.7554-3.147 0-4.921-1.4905-4.921-4.7791v-12.3971h3.643v12.3262c0 1.3958.331 1.8927 1.301 1.8927.899 0 1.278-.4969 1.278-1.9164zm6.422 4.6134h3.644v-7.0502h.662l1.869 7.0502h3.785l-2.223-7.618c1.112-.5442 1.75-1.4432 1.75-3.3596v-1.727c0-2.8154-1.325-4.2113-4.873-4.2113h-4.614zm3.644-14.1241v4.7317h.851c.994 0 1.444-.4259 1.444-1.6325v-1.5614c0-1.1357-.426-1.5378-1.444-1.5378zm8.527 14.1241h3.147v-10.5044l3.36 10.5044h3.454v-16.9159h-3.17v9.0376l-2.863-9.0376h-3.928zm22.676 0h-3.691l-.473-3.4541h-2.65l-.449 3.4541h-3.336l2.674-16.9159h5.228zm-5.489-13.6746.994 7.689h-1.987zm15.058 13.6746h-7.452v-16.9159h3.643v14.0059h3.809z" fill="#212f4c" fill-rule="evenodd"/></svg>