<svg fill="none" height="50" viewBox="0 0 73 50" width="73" xmlns="http://www.w3.org/2000/svg"><g clip-rule="evenodd" fill="#212f4c" fill-rule="evenodd"><path d="m36.2825.0112305h-36.27349731v12.0077695h12.00779731v24.766h12.2579v-24.766h12.0078v24.766h36.2735v-12.6281l-24.2657-.0178v-12.1201h24.2657v-12.0077695h-24.2657v12.0077695h-12.0078z"/><path d="m25.7757 45.7108v3.5823l2.0013.0005v-3.7409c0-1.9618-.6955-3.181-2.4719-3.181-.7289 0-1.5307.2781-1.5307.6096v-3.1688l-2.0013.9153v8.5658h2.0013v-3.6218c0-1.2063.2514-1.5778 1.0071-1.5778.7558 0 .9942.3713.9942 1.6168zm-20.76346-3.9225v7.5048h-2.00129v-7.5048h-3.00194731v-1.501h7.50485731v1.501zm8.12276 4.5029h-4.16194c.06604 1.0006.76875 1.4594 1.43164 1.4594.5039 0 .9276-.1118 1.1931-.4175l1.2988 1.1235c-.5566.7155-1.5643 1.1452-2.4919 1.1452-2.00151 0-3.27409-1.4089-3.27409-3.6093 0-2.1341 1.33862-3.6276 3.10199-3.6276 1.856 0 2.9292 1.4982 2.9292 3.4868 0 .2664-.0133.4395-.0268.4395zm-4.13517-1.0007c.06629-1.0006.47705-1.2463 1.13997-1.2463.8218 0 1.193.2457 1.2461 1.2463zm8.52277 4.3309c-1.8162 0-3.2606-1.4848-3.2606-3.6189s1.4051-3.6321 3.3401-3.6321c1.3257 0 2.174.6497 2.7573 1.538l-1.206 1.2193c-.411-.5834-.8483-.9944-1.5905-.9944-.8751 0-1.445.729-1.445 1.8687 0 1.114.5699 1.8565 1.445 1.8565.7154 0 1.1662-.318 1.6438-.8881l1.1662 1.0999c-.6764.9016-1.4719 1.5511-2.8503 1.5511z"/><path d="m70.0544 45.7108v3.765l.047-.1822h1.9543v-3.7409c0-1.9618-.6952-3.181-2.4719-3.181-.729 0-1.5307.2781-1.5307.6096v-3.1688l-2.0013.9153v8.5658h2.0013v-3.6218c0-1.2063.2524-1.5778 1.0069-1.5778.756 0 .9944.3713.9944 1.6168zm-36.6653-3.8175c.8348 0 1.3649.3715 1.6964 1.0074l1.7231-.7962c-.5826-1.2058-1.6431-2.0541-3.3932-2.0541-2.4258 0-4.1222 1.9618-4.1222 4.7851 0 2.9292 1.6308 4.7856 4.0566 4.7856 1.6829 0 2.7971-.782 3.433-2.0944l-1.5642-.9276c-.4901.8218-.9804 1.1796-1.8162 1.1796-1.3917 0-2.2002-1.2726-2.2002-2.9427 0-1.7229.795-2.9427 2.1869-2.9427zm7.5121 2.3063c.4108 0 .706.1854.9977.4508l.5083-1.7892c-.2384-.2521-.6572-.4903-1.2533-.4903-.5178 0-.7621.1767-1.0933.4163-.0844.061-.1743.1261-.2758.1934v-.6922h-2.0013v7.0045h2.0013v-3.5823c0-1.2053.4012-1.511 1.1164-1.511zm6.8887 5.0312v-.2191c-.0636.0421-.1239.0834-.1824.1233-.4014.2742-.712.4864-1.3483.4864-1.7767 0-2.4719-1.2198-2.4719-3.1811v-4.1517h1.501v3.9921c0 1.246.4886 1.6173 1.2446 1.6173.7545 0 1.257-.3718 1.257-1.578v-4.0316h2.0013v7.0045h-2.0798zm7.2547-3.52v3.5823l2.0013.0005v-3.7409c0-1.9618-.5701-3.181-2.3467-3.181-.729 0-1.4057.2781-1.4057.6096v-.6922h-2.0013v7.0045h2.0013v-3.6218c0-1.2063.1273-1.5778.8818-1.5778.756 0 .8693.3713.8693 1.6168zm6.8425 3.9106c-1.8162 0-3.2604-1.4848-3.2604-3.6189s1.4052-3.6321 3.3402-3.6321c1.3261 0 2.1741.6497 2.757 1.538l-1.2053 1.2193c-.4115-.5834-.8483-.9944-1.5903-.9944-.8755 0-1.4456.729-1.4456 1.8687 0 1.114.5701 1.8565 1.4456 1.8565.7148 0 1.1663-.318 1.6436-.8881l1.1663 1.0999c-.6777.9016-1.4725 1.5511-2.8511 1.5511z"/></g></svg>