<svg width="89" height="179" viewBox="0 0 89 179" fill="none" xmlns="http://www.w3.org/2000/svg">
<path d="M73.7457 169.873C73.7406 149.095 73.7087 107.263 73.7036 86.3164C63.319 97.1885 51.1436 110.216 51.1436 110.546C51.0077 118.717 51.0766 141.597 51.0211 149.769C51.0111 151.152 50.9081 152.534 50.8099 154.804C48.5674 153.253 46.6804 152.301 45.3052 150.861C44.4923 149.778 44.0768 148.449 44.1285 147.096C44.0615 133.71 44.1425 120.324 44.1085 106.938C44.0849 97.3591 44.0115 87.7783 43.8366 78.2007C43.7198 71.7497 40.815 67.028 34.953 63.9936C27.4048 60.0854 22.8743 53.9382 22.5766 45.2339C22.4173 40.3957 23.888 35.6442 26.7526 31.742C29.6173 27.8398 33.7098 25.0131 38.3735 23.7155C43.0372 22.4178 48.0016 22.7246 52.4701 24.5865C56.9385 26.4484 60.6519 29.7575 63.0143 33.9827C67.8196 42.5651 66.586 54.2266 59.3843 61.0509C58.466 61.9209 55.6671 64.5537 54.7243 65.3999C50.9943 68.7499 50.5055 70.7488 50.3983 75.8247C50.711 80.6159 51.2283 98.2625 51.0932 99.2503C55.9961 94.4253 67.4253 81.4371 68.5232 80.2355C79.0584 68.7138 85.4468 63.0255 87.755 50.6055C92.0612 27.4355 75.5224 4.67494 51.7291 0.628538C24.6843 -3.96966 -0.272158 17.2617 0.00224192 44.68C0.101436 53.9116 3.01964 62.8923 8.36584 70.4189C12.6513 76.7201 17.7463 82.4308 23.5198 87.4044C26.6467 90.061 27.0009 92.4305 24.8637 95.8994C24.0321 97.2076 23.1231 98.4649 22.1414 99.6645C21.0736 100.9 20.3923 102.423 20.1821 104.042C19.9718 105.662 20.242 107.308 20.9589 108.775C21.6883 110.452 22.5703 112.061 23.3489 113.717C25.1408 117.531 25.4114 121.438 23.0107 124.997C20.603 128.566 20.6259 131.646 23.4331 134.948C24.4131 136.325 25.1625 137.853 25.652 139.471C26.3662 141.168 26.588 143.032 26.2919 144.85C25.9959 146.667 25.194 148.365 23.9781 149.748C19.0912 155.956 20.2226 161.821 27.0581 165.96C32.5991 169.316 38.2435 172.501 43.8075 175.821C47.2445 177.855 51.3249 178.51 55.2258 177.654C61.8815 176.404 68.1948 173.752 73.7458 169.873" fill="#212F4C"/>
</svg>
