<svg fill="none" height="106" viewBox="0 0 106 106" width="106" xmlns="http://www.w3.org/2000/svg"><path clip-rule="evenodd" d="m52.75 105.5c29.133 0 52.75-23.617 52.75-52.75s-23.617-52.75-52.75-52.75-52.75 23.617-52.75 52.75 23.617 52.75 52.75 52.75z" fill="#ebf2ff" fill-rule="evenodd"/><path d="m25 35c0-3.3137 2.6863-6 6-6h34.4c3.3137 0 6 2.6863 6 6v42.4875l-9.9313 8.2834h-30.4687c-3.3137 0-6-2.6863-6-6z" style="fill-rule:evenodd;clip-rule:evenodd;fill:#fff;stroke:#212f4c;stroke-width:1.8;stroke-linecap:round;stroke-linejoin:round"/><path clip-rule="evenodd" d="m40.1053 66.8903h14.1894z" fill="#ebf2ff" fill-rule="evenodd"/><path d="m40.1053 66.8903h14.1894" stroke="#212f4c" stroke-linecap="round" stroke-linejoin="round" stroke-width="2"/><path clip-rule="evenodd" d="m40.1053 74.8903h14.1894z" fill="#ebf2ff" fill-rule="evenodd"/><path d="m40.1053 74.8903h14.1894" stroke="#212f4c" stroke-linecap="round" stroke-linejoin="round" stroke-width="2"/><path clip-rule="evenodd" d="m47.2 59.153c5.9405 0 10.7563-4.8158 10.7563-10.7563 0-5.9406-4.8158-10.7563-10.7563-10.7563s-10.7563 4.8157-10.7563 10.7563c0 5.9405 4.8158 10.7563 10.7563 10.7563z" fill="#ebf2ff" fill-rule="evenodd"/><g stroke-linecap="round" stroke-linejoin="round"><path d="m61.4687 85.7709v-5.5441c0-1.6568 1.3431-3 3-3h6.9313" stroke="#212f4c" stroke-width="1.8"/><path clip-rule="evenodd" d="m71.9131 50.3262c9.3408 0 16.9131-7.5723 16.9131-16.9131 0-9.3409-7.5723-16.9131-16.9131-16.9131-9.3409 0-16.9131 7.5722-16.9131 16.9131 0 9.3408 7.5722 16.9131 16.9131 16.9131z" fill="#efabff" fill-rule="evenodd" stroke="#212f4c" stroke-width="2"/><path clip-rule="evenodd" d="m72.2647 35.5294c2.3554 0 4.2647-1.9093 4.2647-4.2647 0-2.3553-1.9093-4.2647-4.2647-4.2647-2.3553 0-4.2647 1.9094-4.2647 4.2647 0 2.3554 1.9094 4.2647 4.2647 4.2647z" fill-rule="evenodd" stroke="#fff" stroke-width="2"/><path d="m76.5294 39.7941c0-2.3553-1.9093-4.2647-4.2647-4.2647-2.3553 0-4.2647 1.9094-4.2647 4.2647" stroke="#fff" stroke-width="2"/></g></svg>