<svg fill="none" height="106" viewBox="0 0 106 106" width="106" xmlns="http://www.w3.org/2000/svg"><path clip-rule="evenodd" d="m52.75 105.5c29.133 0 52.75-23.617 52.75-52.75s-23.617-52.75-52.75-52.75-52.75 23.617-52.75 52.75 23.617 52.75 52.75 52.75z" fill="#ebf2ff" fill-rule="evenodd"/><rect fill="#ebf2ff" height="58" rx="8" stroke="#212f4c" stroke-linecap="round" stroke-linejoin="round" stroke-width="2" width="57" x="24.25" y="23.75"/><rect fill="#fff" height="58" rx="8" stroke="#212f4c" stroke-linecap="round" stroke-linejoin="round" stroke-width="2" width="45.5" x="24.25" y="23.75"/><g fill="#ebf2ff"><rect height="24" rx="6" width="39.5" x="27.25" y="27"/><rect height="24" rx="6" width="39.5" x="27.25" y="54.5"/><path clip-rule="evenodd" d="m41.7054 61h10.5892z" fill-rule="evenodd"/></g><path d="m41.7054 61h10.5892" stroke="#212f4c" stroke-linecap="round" stroke-linejoin="round" stroke-width="2"/><path clip-rule="evenodd" d="m41.7054 32h10.5892z" fill="#ebf2ff" fill-rule="evenodd"/><path d="m41.7054 32h10.5892" stroke="#212f4c" stroke-linecap="round" stroke-linejoin="round" stroke-width="2"/><path d="m74.6631 45.3262c9.3408 0 16.9131-7.5723 16.9131-16.9131 0-9.3409-7.5723-16.9131-16.9131-16.9131-9.3409 0-16.9131 7.5722-16.9131 16.9131 0 9.3408 7.5722 16.9131 16.9131 16.9131z" style="fill-rule:evenodd;clip-rule:evenodd;fill:#efabff;stroke:#212f4c;stroke-width:2;stroke-linecap:round;stroke-linejoin:round"/><path d="m68.1557 27.1617 4.8379 4.838 8.3859-8.3859" stroke="#fff" stroke-linecap="round" stroke-linejoin="round" stroke-width="2"/></svg>