<svg fill="none" height="106" viewBox="0 0 106 106" width="106" xmlns="http://www.w3.org/2000/svg"><g clip-rule="evenodd" fill-rule="evenodd"><path d="m52.75 105.5c29.133 0 52.75-23.617 52.75-52.75s-23.617-52.75-52.75-52.75-52.75 23.617-52.75 52.75 23.617 52.75 52.75 52.75z" fill="#ebf2ff"/><path d="m25 39.318c0-1.327.9823-2.449 2.2977-2.6244l20.2023-2.6936 20.2023 2.6936c1.3154.1754 2.2977 1.2974 2.2977 2.6244v17.3957c0 13.7319-9.2318 25.7481-22.5 29.2863-13.2682-3.5382-22.5-15.5544-22.5-29.2863z" fill="#fff" stroke="#212f4c" stroke-linecap="round" stroke-linejoin="round" stroke-width="1.8"/><path d="m47 71c6.0751 0 11-4.9249 11-11s-4.9249-11-11-11-11 4.9249-11 11 4.9249 11 11 11z" fill="#ebf2ff"/><path d="m39 43.5h17z" fill="#ebf2ff"/></g><path d="m39 43.5h17" stroke="#212f4c" stroke-linecap="round" stroke-linejoin="round" stroke-width="2"/><path d="m71.9131 53.8262c9.3408 0 16.9131-7.5723 16.9131-16.9131 0-9.3409-7.5723-16.9131-16.9131-16.9131-9.3409 0-16.9131 7.5722-16.9131 16.9131 0 9.3408 7.5722 16.9131 16.9131 16.9131z" style="fill-rule:evenodd;clip-rule:evenodd;fill:#efabff;stroke:#212f4c;stroke-width:2;stroke-linecap:round;stroke-linejoin:round"/><path d="m73.9214 39.637c2.5182-1.4539 3.381-4.6739 1.9271-7.1921s-4.6739-3.381-7.1921-1.9271-3.381 4.6739-1.9272 7.1921c1.4539 2.5182 4.674 3.381 7.1922 1.9271z" style="fill-rule:evenodd;clip-rule:evenodd;stroke:#fff;stroke-width:2;stroke-linecap:round;stroke-linejoin:round"/><path d="m74.1817 39.7068 2.0754 3.5947" stroke="#fff" stroke-linecap="round" stroke-linejoin="round" stroke-width="2"/></svg>